<svg width="25" height="24" viewBox="0 0 25 24" fill="none" xmlns="http://www.w3.org/2000/svg">

    <path
        d="M12.124 7.2221C11.248 7.2221 9.892 6.2261 8.464 6.2621C6.58 6.2861 4.852 7.3541 3.88 9.0461C1.924 12.4421 3.376 17.4581 5.284 20.2181C6.22 21.5621 7.324 23.0741 8.788 23.0261C10.192 22.9661 10.72 22.1141 12.424 22.1141C14.116 22.1141 14.596 23.0261 16.084 22.9901C17.596 22.9661 18.556 21.6221 19.48 20.2661C20.548 18.7061 20.992 17.1941 21.016 17.1101C20.98 17.0981 18.076 15.9821 18.04 12.6221C18.016 9.8141 20.332 8.4701 20.44 8.4101C19.12 6.4781 17.092 6.2621 16.384 6.2141C14.536 6.0701 12.988 7.2221 12.124 7.2221ZM15.244 4.3901C16.024 3.4541 16.54 2.1461 16.396 0.850098C15.28 0.898098 13.936 1.5941 13.132 2.5301C12.412 3.3581 11.788 4.6901 11.956 5.9621C13.192 6.0581 14.464 5.3261 15.244 4.3901Z"
        fill="#7B8C8A" />


</svg>