<svg width="25" height="24" viewBox="0 0 25 24" fill="none" xmlns="http://www.w3.org/2000/svg">
<g clip-path="url(#clip0_2_9771)">
<path d="M5.5 2H19.5C19.7652 2 20.0196 2.10536 20.2071 2.29289C20.3946 2.48043 20.5 2.73478 20.5 3V22.143C20.5001 22.2324 20.4763 22.3202 20.4309 22.3973C20.3855 22.4743 20.3204 22.5378 20.2421 22.5811C20.1639 22.6244 20.0755 22.6459 19.9861 22.6434C19.8968 22.641 19.8097 22.6146 19.734 22.567L12.5 18.03L5.266 22.566C5.19037 22.6135 5.10339 22.6399 5.0141 22.6424C4.92482 22.6449 4.83649 22.6235 4.7583 22.5803C4.6801 22.5371 4.61491 22.4738 4.56948 22.3969C4.52406 22.32 4.50007 22.2323 4.5 22.143V3C4.5 2.73478 4.60536 2.48043 4.79289 2.29289C4.98043 2.10536 5.23478 2 5.5 2Z" fill="#7B8C8A"/>
</g>
<defs>
<clipPath id="clip0_2_9771">
<rect width="24" height="24" fill="white" transform="translate(0.5)"/>
</clipPath>
</defs>
</svg>
