<svg width="232" height="232" viewBox="0 0 232 232" fill="none" xmlns="http://www.w3.org/2000/svg">
    <rect width="232" height="232" rx="8" fill="#0CA190" />
    <path
        d="M176.816 95.6133H147.73C147.199 91.8503 146.115 88.5078 144.477 85.5859C142.839 82.6198 140.736 80.0963 138.168 78.0156C135.6 75.9349 132.634 74.3411 129.27 73.2344C125.949 72.1276 122.341 71.5742 118.445 71.5742C111.406 71.5742 105.275 73.3229 100.051 76.8203C94.8268 80.2734 90.776 85.3203 87.8984 91.9609C85.0208 98.5573 83.582 106.57 83.582 116C83.582 125.695 85.0208 133.841 87.8984 140.437C90.8203 147.034 94.8932 152.014 100.117 155.379C105.341 158.743 111.384 160.426 118.246 160.426C122.098 160.426 125.661 159.917 128.938 158.898C132.258 157.88 135.202 156.397 137.77 154.449C140.337 152.457 142.462 150.044 144.145 147.211C145.871 144.378 147.066 141.146 147.73 137.516L176.816 137.648C176.064 143.891 174.182 149.911 171.172 155.711C168.206 161.466 164.199 166.624 159.152 171.184C154.15 175.699 148.173 179.285 141.223 181.941C134.316 184.553 126.503 185.859 117.781 185.859C105.651 185.859 94.8047 183.115 85.2422 177.625C75.724 172.135 68.1979 164.189 62.6641 153.785C57.1745 143.382 54.4297 130.786 54.4297 116C54.4297 101.169 57.2188 88.5521 62.7969 78.1484C68.375 67.7448 75.9453 59.8203 85.5078 54.375C95.0703 48.8854 105.828 46.1406 117.781 46.1406C125.661 46.1406 132.966 47.2474 139.695 49.4609C146.469 51.6745 152.467 54.9062 157.691 59.1562C162.915 63.362 167.165 68.5195 170.441 74.6289C173.762 80.7383 175.887 87.7331 176.816 95.6133Z"
        fill="white" />
</svg>