<svg width="960" height="960" viewBox="0 0 960 960" fill="none" xmlns="http://www.w3.org/2000/svg">
<g clip-path="url(#clip0_46_131)">
<g clip-path="url(#clip1_46_131)">
<path fill-rule="evenodd" clip-rule="evenodd" d="M338.989 722.654C348.497 702.359 355.216 680.875 359.975 658.953C357.969 684.247 356.081 710.13 354.192 736.021C352.775 755.439 351.358 774.861 349.89 794.044C349.354 801.101 348.808 808.116 348.252 815.088C348.047 817.692 347.881 820.47 349.159 822.742C350.68 825.433 353.635 826.556 356.804 827.034C358.281 827.249 359.769 827.37 361.261 827.395C368.815 827.597 376.366 827.795 383.914 827.99C388.664 828.116 393.726 828.155 397.714 825.59C398.259 825.234 398.777 824.839 399.265 824.409C404.726 819.514 405.009 810.572 404.677 802.956C404.394 796.37 404.15 789.791 403.946 783.218C401.966 722.488 402.834 662.032 406.822 601.288V601.229C376.868 601.43 346.907 601.628 316.94 601.823C317.847 664.59 289.469 727.148 241.675 767.823C239.296 769.842 236.692 772.155 236.419 775.255C236.327 776.697 236.66 778.134 237.375 779.39C238.173 780.789 239.136 782.089 240.242 783.26C244.06 787.51 248.2 791.459 252.626 795.07C256.839 798.503 261.627 801.75 267.059 802.081C267.176 802.091 267.293 802.091 267.41 802.091C273.885 802.325 279.766 798.396 284.837 794.271C284.924 794.19 285.011 794.118 285.098 794.047C285.138 794.014 285.178 793.982 285.217 793.948C308.378 774.853 326.253 749.822 338.989 722.654ZM401.686 607.525C401.712 606.697 401.062 606.005 400.234 605.978C399.406 605.952 398.714 606.602 398.687 607.43L395.5 707.584L392.313 807.738C392.287 808.566 392.937 809.258 393.765 809.285C394.593 809.311 395.285 808.661 395.312 807.833L398.499 707.679L401.686 607.525Z" fill="#171717"/>
<path fill-rule="evenodd" clip-rule="evenodd" d="M363.894 560.509C364.165 558.881 364.078 557.214 363.64 555.623L363.88 555.554C364.772 552.857 366.021 550.292 367.595 547.928C367.768 547.576 368.016 547.266 368.321 547.02C368.626 546.774 368.981 546.598 369.361 546.504C369.805 546.508 370.233 546.668 370.571 546.954C370.909 547.241 371.136 547.637 371.213 548.074C371.35 548.951 371.27 549.849 370.979 550.688C370.618 552.131 370.183 553.414 369.749 554.697C369.316 555.974 368.883 557.252 368.522 558.688V558.708C374.059 557.239 379.627 555.919 385.227 554.748C386.343 554.43 387.515 554.361 388.659 554.548C389.228 554.653 389.749 554.935 390.148 555.353C390.548 555.771 390.805 556.305 390.883 556.878C390.951 558.39 389.41 559.414 388.045 560.057C387.733 560.204 387.421 560.35 387.099 560.486L387.109 560.496C387.583 560.411 387.978 560.291 388.342 560.181C389.149 559.936 389.801 559.738 390.809 560.077C392.272 560.568 393.51 562.076 393.14 563.568C393.008 563.996 392.785 564.39 392.487 564.725C392.189 565.06 391.823 565.327 391.413 565.509L391.501 565.665C396.455 567.364 394.108 569.46 392.951 570.493C392.882 570.554 392.818 570.611 392.759 570.665C391.644 571.556 390.334 572.173 388.936 572.465C380.318 574.907 371.374 575.999 362.421 575.702C362.915 570.634 363.406 565.569 363.894 560.509ZM324.262 551.518V551.547C323.17 551.42 322.078 551.293 320.999 551.147C317.199 550.65 313.34 549.997 309.966 548.212C306.592 546.427 303.705 543.307 303.13 539.533C302.34 534.364 305.929 529.518 310.015 526.251C316.588 521.024 325.575 518.849 333.975 518.956C330.738 529.81 327.5 540.664 324.262 551.518ZM531.43 451.503C529.889 448.229 528.147 444.755 525.647 442.229C524.369 440.893 522.805 439.863 521.072 439.217C515.62 437.257 509.73 440.016 504.484 442.484C483.387 452.437 460.753 458.735 437.547 461.11C424.257 462.461 410.89 462.52 397.527 462.58C395.567 462.588 393.607 462.597 391.647 462.61C387.402 462.623 383.163 462.678 378.931 462.776C368.145 462.932 357.381 463.808 346.711 465.399C338.031 466.722 329.507 468.921 321.269 471.962C302.974 478.867 286.181 491.399 277.512 508.932C268.843 526.465 269.701 549.236 282.388 564.117C290.963 574.171 303.463 579.545 316.363 583.133L316.354 583.153C315.279 586.215 314.444 589.368 313.609 592.523C312.777 595.666 311.944 598.81 310.873 601.866C311.931 601.861 312.991 601.853 314.051 601.846C315.014 601.839 315.978 601.832 316.939 601.827C346.894 601.626 376.855 601.428 406.821 601.233C408.817 601.217 410.813 601.204 412.809 601.192C414.626 601.18 416.443 601.169 418.26 601.155C418.543 585.385 418.826 569.979 419.108 554.581C419.401 538.612 419.694 522.651 419.986 506.299L419.967 506.074C455.94 502.854 491.007 493.005 523.395 477.024C527.734 474.878 532.347 472.274 534.161 467.789C534.919 465.828 535.157 463.705 534.853 461.625C534.444 458.183 532.93 454.703 531.43 451.503ZM512.573 450.562C513.316 450.196 513.622 449.297 513.256 448.554C512.89 447.811 511.99 447.505 511.247 447.871C479.83 463.353 445.045 470.749 410.047 469.387C409.219 469.355 408.522 470 408.489 470.827C408.457 471.655 409.102 472.352 409.93 472.385C445.427 473.766 480.708 466.265 512.573 450.562Z" fill="url(#paint0_linear_46_131)"/>
<path fill-rule="evenodd" clip-rule="evenodd" d="M177.089 720.78L177.742 615.607C163.719 539.942 135.907 465.828 97.6885 398.4C86.7765 379.133 75.0648 360.489 62.5535 342.468L61.7725 342.858C39.3925 440.981 52.6745 547.988 104.038 634.548C104.545 635.406 105.062 636.264 105.579 637.113C119.611 660.319 136.192 681.886 155.011 701.413C161.473 708.125 168.185 714.578 175.148 720.77L177.089 720.78ZM84.2841 390.014C83.8667 389.298 82.9483 389.056 82.2327 389.474C81.517 389.891 81.2752 390.81 81.6925 391.525C102.347 426.945 119.662 464.209 133.413 502.836C133.691 503.616 134.549 504.024 135.329 503.746C136.11 503.468 136.517 502.61 136.239 501.829C122.426 463.027 105.032 425.594 84.2841 390.014Z" fill="url(#paint1_linear_46_131)"/>
<path fill-rule="evenodd" clip-rule="evenodd" d="M765.942 236.238C770.691 234.376 774.758 229.607 772.632 224C772.03 222.51 771.08 221.187 769.862 220.14C768.644 219.094 767.193 218.354 765.63 217.983C759.506 216.402 753.528 219.621 749.198 223.902C754.298 216.091 750.242 203.99 741.465 200.82C732.688 197.65 721.844 204.379 720.772 213.643C721.171 205.549 713.135 198.129 705.1 199.172C697.065 200.215 691.185 209.44 693.632 217.164C691.281 214.638 688.199 212.91 684.818 212.221C681.437 211.531 677.925 211.915 674.772 213.319C671.62 214.723 668.985 217.076 667.235 220.051C665.485 223.025 664.707 226.471 665.011 229.909C665.021 230.055 664.998 230.203 664.943 230.34C664.889 230.476 664.804 230.599 664.695 230.698C664.586 230.798 664.457 230.871 664.316 230.914C664.175 230.956 664.026 230.966 663.88 230.943C659.15 230.299 644.649 236.082 652.441 242.626C656.539 246.061 664.121 243.317 670.292 241.084C672.74 240.198 674.966 239.393 676.664 239.086C693.388 236.046 711.903 236.679 729.9 237.294C738.295 237.581 746.578 237.864 754.513 237.769C758.375 237.72 762.342 237.652 765.942 236.238ZM735.23 207.13C734.415 206.984 733.636 207.527 733.49 208.343C733.345 209.159 733.888 209.938 734.703 210.083C737.236 210.535 739.458 212.277 740.828 214.625C742.198 216.973 742.621 219.766 741.769 222.195C741.495 222.977 741.907 223.833 742.688 224.107C743.47 224.381 744.326 223.97 744.6 223.188C745.793 219.786 745.149 216.079 743.419 213.113C741.69 210.148 738.78 207.763 735.23 207.13Z" fill="url(#paint2_linear_46_131)"/>
<path fill-rule="evenodd" clip-rule="evenodd" d="M772.449 619.186L772.176 680.447L772.764 680.442C803.852 662.284 823.892 635.719 839.739 603.392C855.586 571.065 863.66 535.373 867.415 499.565C869.054 483.927 869.895 468.222 870.735 452.516C871.529 437.673 872.323 422.83 873.792 408.044C876.815 377.613 882.852 346.983 896.943 319.844C864.889 339.669 846.502 376.013 837.252 412.544C831.965 433.424 829.148 454.792 826.331 476.169C824.219 492.193 822.106 508.223 818.952 524.057C811.589 561.016 801.633 594.686 773.001 619.186H772.449ZM864.063 449.054C864.042 448.226 863.353 447.572 862.525 447.593C861.697 447.615 861.043 448.303 861.064 449.131C861.562 468.438 859.835 487.737 855.916 506.648C855.748 507.46 856.269 508.253 857.08 508.422C857.892 508.59 858.685 508.068 858.854 507.257C862.819 488.121 864.567 468.591 864.063 449.054Z" fill="url(#paint3_linear_46_131)"/>
<path d="M901.456 254.3C901.768 256.289 900.441 258.181 898.93 259.527C892.747 265.017 883.571 264.997 875.311 264.676L840.301 263.3L840.018 263.173C841.042 260.873 842.095 258.573 843.168 256.288C843.382 255.839 843.587 255.388 843.802 254.942L844.358 255.205C853.037 251.987 859.522 249.783 868.649 248.233C877.776 246.683 887.334 246.712 896.101 249.666C898.462 250.459 901.065 251.844 901.456 254.3Z" fill="#171717"/>
<path d="M888.953 183.094L888.836 182.986C888.845 182.938 888.865 182.899 888.875 182.85C894.985 177.654 902.383 174.2 910.29 172.85C912.227 172.411 914.241 172.431 916.17 172.909C917.129 173.159 918.002 173.669 918.69 174.383C919.378 175.097 919.856 175.988 920.07 176.956C920.137 177.855 919.991 178.758 919.644 179.59C919.296 180.422 918.757 181.16 918.07 181.744C915.076 184.572 910.629 185.044 906.523 185.352C899.656 185.885 892.789 186.415 885.923 186.942L885.893 186.922C886.205 186.522 886.517 186.132 886.83 185.732C887.539 184.849 888.241 183.971 888.953 183.094Z" fill="#171717"/>
<path d="M888.876 182.849C888.866 182.898 888.846 182.937 888.837 182.985L888.954 183.093C888.242 183.97 887.54 184.848 886.838 185.735C881.659 176.657 876.452 167.49 873.138 157.582C872.47 155.905 872.145 154.111 872.183 152.306C872.208 151.406 872.468 150.528 872.937 149.758C873.405 148.989 874.066 148.355 874.855 147.918C875.593 147.616 876.392 147.492 877.187 147.558C877.982 147.624 878.75 147.878 879.428 148.298C880.782 149.144 881.949 150.255 882.861 151.565C886.166 155.985 888.425 161.096 889.467 166.516C890.509 171.935 890.307 177.52 888.876 182.849V182.849Z" fill="#171717"/>
<path d="M864.32 216.494L864.82 216.806C863.679 218.6 862.558 220.404 861.456 222.218L860.792 221.818C854.776 210.379 848.876 198.755 845.292 186.331C844.534 184.146 844.213 181.833 844.346 179.525C844.429 178.372 844.808 177.259 845.447 176.296C846.086 175.332 846.963 174.55 847.993 174.025C848.957 173.669 849.993 173.547 851.014 173.671C852.035 173.795 853.012 174.16 853.864 174.736C855.558 175.903 856.968 177.436 857.989 179.222C864.846 190.057 865.353 203.709 864.32 216.494Z" fill="#171717"/>
<path d="M861.062 222.871C861.19 222.657 861.326 222.433 861.453 222.218C862.555 220.404 863.677 218.6 864.818 216.806C864.866 216.713 864.921 216.625 864.983 216.542L865.188 216.669C875.561 211.018 887.409 208.664 899.154 209.921C901.087 210.005 902.976 210.532 904.673 211.462C905.512 211.941 906.191 212.658 906.625 213.522C907.059 214.386 907.228 215.358 907.112 216.318C906.585 218.918 903.612 220.118 901.026 220.736C888.105 223.808 874.647 223.436 861.375 223.057L861.062 222.871Z" fill="#171717"/>
<path d="M840.019 263.176C839.843 263.566 839.668 263.966 839.502 264.356L838.644 263.975C828.678 246.432 818.458 228.098 817.151 207.951C816.995 205.551 817.112 202.792 818.936 201.222C819.778 200.602 820.779 200.234 821.822 200.162C822.865 200.089 823.907 200.315 824.826 200.813C826.652 201.832 828.204 203.278 829.351 205.026C834.665 212.164 837.805 220.726 839.609 229.444C841.413 238.162 841.94 247.075 842.457 255.959L843.169 256.291C842.101 258.573 841.043 260.874 840.019 263.176Z" fill="#171717"/>
<path d="M823.168 309.146C823.343 308.531 823.519 307.917 823.704 307.313C824.143 305.839 824.592 304.367 825.05 302.895C835.211 297.327 845.441 291.749 856.402 288.023C867.558 284.223 879.621 282.387 891.187 284.659C892.757 284.959 894.6 285.615 894.941 287.175C895.241 288.521 894.241 289.788 893.241 290.744C884.289 299.326 871.29 301.939 858.983 303.422C846.676 304.905 834.283 303.061 823.535 309.253L823.168 309.146Z" fill="#171717"/>
<path d="M824.767 303.051C824.867 302.992 824.952 302.944 825.05 302.895C824.592 304.367 824.143 305.839 823.704 307.313L823.343 307.205C823.07 307.505 822.797 307.81 822.524 308.105C812.46 299.845 803.47 290.358 795.765 279.864C790.411 272.57 785.555 264.388 785.009 255.358C784.833 252.374 785.438 248.873 788.061 247.458C791.172 245.79 794.897 248.082 797.491 250.481C812.148 264.055 819.423 283.715 824.728 302.975L824.767 303.051Z" fill="#171717"/>
<path d="M819.92 804.7C820.397 806.144 819.812 810.776 819.812 810.776L819.481 812.356C819.35 812.356 819.22 812.365 819.091 812.385L796.418 815.535C795.581 815.652 794.729 815.554 793.941 815.252L784.267 811.605C783.8 811.428 783.388 811.132 783.073 810.746C782.757 810.36 782.549 809.897 782.468 809.405C782.388 808.912 782.439 808.407 782.616 807.941C782.793 807.475 783.09 807.063 783.477 806.748L810.538 784.68C811.046 784.269 811.679 784.046 812.333 784.046H814.644V786.113L810.977 793C810.977 793 818.778 801.2 819.92 804.7Z" fill="#171717"/>
<path d="M651.401 752.318C651.693 752.434 651.939 752.642 652.101 752.912L668.592 780.276L673.068 787.707C673.177 787.89 673.245 788.095 673.265 788.308C673.285 788.521 673.258 788.735 673.185 788.936L667.733 804.041C667.646 804.277 667.501 804.486 667.309 804.649C667.118 804.811 666.887 804.921 666.641 804.968C661.209 805.968 630.121 811.774 628.441 812.613C628.09 812.789 626.686 812.506 624.667 811.931L626.784 810.809L620.184 798.385L633.036 785.542L641.755 758.461L650.073 754.278L650.931 752.132L651.401 752.318Z" fill="url(#paint4_linear_46_131)"/>
<path d="M603.05 744.243C604.444 735.925 606.482 729.401 610.071 719.243C615.152 704.908 623.441 691.373 635.533 682.138C639.209 711.032 631.106 741.546 612.033 763.338C609.176 765.523 606.475 767.697 606.026 768.048C605.981 768.086 605.932 768.12 605.88 768.148L596.089 774.204L582.436 755.256C582.214 754.953 581.914 754.717 581.568 754.573L576.312 752.389L576.371 752.243C566.524 742.869 559.144 731.208 554.887 718.297C569.319 724.555 581.33 735.33 589.114 749C581.839 730.949 583.663 713.942 590.041 693.99C599.106 709.147 603.622 726.591 603.05 744.243V744.243Z" fill="url(#paint5_linear_46_131)"/>
<path d="M581.907 804.012C581.546 804.061 581.179 803.97 580.882 803.758C580.585 803.546 580.379 803.229 580.307 802.871V802.861C580.247 802.562 580.285 802.251 580.415 801.974L592.409 776.746C592.529 776.496 592.718 776.286 592.955 776.141L596.086 774.201L605.877 768.145C605.93 768.118 605.979 768.084 606.023 768.045C606.472 767.694 609.173 765.52 612.03 763.335C615.209 760.907 618.573 758.459 619.266 758.459H632.119C632.416 758.461 632.706 758.369 632.948 758.196L644.328 750.19C644.525 750.053 644.753 749.967 644.991 749.94C645.229 749.913 645.471 749.945 645.693 750.034L650.93 752.134L650.072 754.28L641.753 758.463L633.035 785.544L620.182 798.387L626.782 810.811L624.666 811.933C616.845 809.719 599.711 803.195 597.108 802.191C596.888 802.107 596.649 802.08 596.415 802.113L581.907 804.012Z" fill="#171717"/>
<path d="M571.305 750.748L574.748 758.92L564.655 783.25L560.988 798.85L553.206 806.164C553.081 806.151 552.957 806.125 552.836 806.086L528.046 798.772C527.731 798.677 527.443 798.506 527.208 798.275C526.974 798.044 526.799 797.759 526.699 797.445C526.599 797.131 526.577 796.797 526.635 796.473C526.693 796.148 526.83 795.843 527.032 795.583L536.891 783.072C537.042 782.88 537.227 782.718 537.437 782.594L549.822 775.105L556.483 771.077C556.728 770.929 556.938 770.73 557.097 770.492L570.155 751.554C570.426 751.152 570.836 750.865 571.305 750.748Z" fill="#171717"/>
<path d="M349.083 386.917L348.907 386.858C345.367 388.565 343.056 390.203 339.516 391.91C339.75 389.432 340.813 387.105 342.533 385.305C344.253 383.506 346.529 382.338 348.995 381.992C347.796 381.295 346.465 380.858 345.087 380.709C343.709 380.559 342.315 380.701 340.995 381.124C341.811 378.97 343.403 377.2 345.459 376.163C347.515 375.125 349.885 374.894 352.103 375.517C354.092 376.16 355.803 377.477 357.759 378.169C359.975 378.8 362.286 379.035 364.585 378.862C371.303 378.735 378.022 378.612 384.742 378.491L385.249 378.745C387.153 374.786 389.91 371.299 393.324 368.534C394.475 367.598 396.181 366.75 397.342 367.686C398.356 368.495 398.151 370.075 397.8 371.323C396.874 374.616 395.574 377.793 393.928 380.792C396.912 378.462 406.616 374.044 406.772 375.292C404.828 379.728 401.738 383.566 397.819 386.41L398.073 386.751C403.35 384.443 409.14 383.558 414.866 384.186C413.491 387.892 409.785 390.34 405.943 391.276C402.101 392.212 398.083 391.861 394.143 391.519C393.948 391.5 393.743 391.48 393.548 391.471C385.912 390.788 378.278 390.112 370.648 389.442C367.04 389.13 363.119 388.877 360.077 390.856C355.477 393.84 355.045 400.306 355.113 405.796L355.289 421.623H355.103C354.86 422.998 350.53 429.123 349.35 428.372C348.092 427.582 349.291 421.399 348.94 419.956C347.984 422.266 346.567 424.356 344.776 426.1C344.246 413.208 344.714 399.077 349.083 386.917Z" fill="#171717"/>
<path d="M355.616 449.913C363.584 449.367 371.554 448.821 379.528 448.275C379.762 448.256 380.006 448.246 380.24 448.226C383.809 447.983 387.817 447.875 390.489 450.265C391.359 451.127 392.047 452.156 392.509 453.29C392.972 454.424 393.2 455.64 393.181 456.865C393.239 459.302 392.244 460.102 391.649 462.465V462.611C387.407 462.631 383.168 462.687 378.933 462.777C368.146 462.933 357.382 463.81 346.713 465.4L346.674 465.166C345.778 462.762 345.204 460.251 344.967 457.696C344.878 456.594 345.044 455.486 345.451 454.458C345.859 453.43 346.497 452.509 347.318 451.767C349.005 450.412 351.306 450.207 353.471 450.061L355.616 449.913Z" fill="url(#paint6_linear_46_131)"/>
<path d="M155.011 701.413L154.211 702.193C140.851 704.289 127.204 703.63 114.107 700.258C101.011 696.886 88.743 690.871 78.0566 682.583C67.3702 674.296 58.4914 663.91 51.9661 652.065C45.4407 640.22 41.4064 627.166 40.1113 613.705L41.7883 613.588C59.7672 627.691 81.5266 636.141 104.311 637.87L105.579 637.11C119.612 660.317 136.192 681.885 155.011 701.413V701.413Z" fill="#171717"/>
<path d="M137.76 823.544L138.013 825.661L137.913 825.671C137.806 825.686 137.698 825.693 137.591 825.69L106.525 824.5C106.002 824.48 105.507 824.263 105.139 823.891C104.771 823.52 104.558 823.022 104.545 822.5C104.533 822.21 104.585 821.921 104.696 821.653C104.807 821.385 104.975 821.145 105.189 820.948L111.752 814.766L124.852 802.43C125.187 802.116 125.615 801.921 126.071 801.874L135.671 800.974C136.133 800.931 136.597 801.045 136.988 801.296L135.954 802.886L133.633 810.892L137.768 816.401L137.76 823.544Z" fill="#171717"/>
<path d="M372.643 422.257C373.921 423.447 376.183 422.54 376.963 420.97C377.743 419.4 377.49 417.557 377.217 415.831C376.68 412.466 376.144 409.112 375.608 405.747C375.179 403.027 374.857 399.906 376.68 397.847C377.409 397.125 378.303 396.59 379.285 396.29C380.267 395.989 381.307 395.931 382.317 396.121C384.33 396.516 386.264 397.241 388.041 398.267" stroke="#171717" stroke-width="2" stroke-linecap="round" stroke-linejoin="round"/>
<path d="M381.556 406.021C381.4 404.802 381.244 403.573 381.088 402.354" stroke="#171717" stroke-width="2" stroke-linecap="round" stroke-linejoin="round"/>
<path d="M372.312 430.7C371.689 431.049 371.002 431.27 370.292 431.351C369.583 431.431 368.864 431.369 368.178 431.169C367.493 430.968 366.854 430.633 366.299 430.182C365.745 429.732 365.286 429.175 364.949 428.545" stroke="#171717" stroke-width="2" stroke-linecap="round" stroke-linejoin="round"/>
<path d="M355.614 450.079V449.912L355.293 421.622L355.117 405.795C355.049 400.305 355.478 393.839 360.081 390.855C363.123 388.876 367.044 389.129 370.652 389.441C378.287 390.115 385.92 390.791 393.552 391.471C393.747 391.48 393.952 391.5 394.147 391.519C398.087 391.861 402.104 392.202 405.947 391.276C409.79 390.35 413.495 387.892 414.87 384.186C409.145 383.558 403.355 384.442 398.077 386.751" stroke="#171717" stroke-width="3" stroke-linecap="round" stroke-linejoin="round"/>
<path d="M393.921 380.8C393.755 380.937 393.609 381.064 393.482 381.181" stroke="#171717" stroke-width="3" stroke-linecap="round" stroke-linejoin="round"/>
<path d="M397.743 386.467C397.773 386.448 397.792 386.428 397.821 386.409C401.74 383.565 404.83 379.728 406.774 375.292C406.618 374.043 396.914 378.461 393.93 380.792" stroke="#171717" stroke-width="3" stroke-linecap="round" stroke-linejoin="round"/>
<path d="M393.434 381.68C393.6 381.387 393.766 381.095 393.922 380.802L393.931 380.793C395.578 377.794 396.877 374.617 397.803 371.324C398.154 370.075 398.359 368.495 397.345 367.686C396.184 366.75 394.478 367.598 393.327 368.534C389.914 371.299 387.156 374.786 385.252 378.745C384.95 379.379 384.668 380.023 384.404 380.676" stroke="#171717" stroke-width="3" stroke-linecap="round" stroke-linejoin="round"/>
<path d="M384.744 378.491C378.025 378.618 371.306 378.742 364.587 378.862C362.289 379.035 359.978 378.8 357.761 378.169C355.801 377.477 354.094 376.16 352.105 375.517C349.889 374.895 347.519 375.126 345.464 376.164C343.409 377.202 341.817 378.971 341 381.124C342.32 380.7 343.715 380.559 345.093 380.708C346.471 380.858 347.802 381.295 349 381.992C346.535 382.338 344.259 383.505 342.539 385.305C340.819 387.105 339.756 389.432 339.521 391.91C343.061 390.203 345.372 388.565 348.912 386.858" stroke="#171717" stroke-width="3" stroke-linecap="round" stroke-linejoin="round"/>
<path d="M349.374 386.1C349.274 386.373 349.174 386.646 349.082 386.919C344.713 399.079 344.245 413.21 344.782 426.102C346.573 424.358 347.99 422.267 348.946 419.958C349.297 421.401 348.098 427.584 349.356 428.374C350.536 429.125 354.866 423 355.109 421.625" stroke="#171717" stroke-width="3" stroke-linecap="round" stroke-linejoin="round"/>
<path d="M393.579 391.364C393.57 391.403 393.56 391.432 393.55 391.471C391.629 398.629 392.975 406.186 393.336 413.588C393.706 421.019 392.736 429.23 387.377 434.388C385.261 436.416 382.589 437.83 380.648 440.034C378.707 442.238 377.703 445.748 379.507 448.06" stroke="#171717" stroke-width="3" stroke-linecap="round" stroke-linejoin="round"/>
<path d="M391.649 462.464C392.244 460.104 393.239 459.304 393.181 456.864C393.2 455.639 392.972 454.423 392.509 453.289C392.047 452.155 391.359 451.126 390.489 450.264C387.817 447.874 383.809 447.982 380.24 448.225C380.006 448.245 379.762 448.255 379.528 448.274C371.561 448.812 363.59 449.358 355.616 449.912L353.471 450.059C351.306 450.205 349.005 450.41 347.318 451.765C346.497 452.507 345.859 453.428 345.451 454.456C345.044 455.484 344.878 456.592 344.967 457.694C345.204 460.249 345.778 462.76 346.674 465.164" stroke="#171717" stroke-width="3" stroke-linecap="round" stroke-linejoin="round"/>
<path d="M361.787 582.246C358.208 587.502 332.187 586.907 325.979 585.522C322.779 584.811 319.562 584.022 316.363 583.133C303.463 579.545 290.963 574.171 282.388 564.117C269.701 549.236 268.843 526.465 277.512 508.932C286.181 491.399 302.974 478.867 321.269 471.962C329.507 468.921 338.031 466.722 346.711 465.399C357.381 463.808 368.145 462.932 378.931 462.776C383.163 462.678 387.402 462.623 391.648 462.61C406.968 462.51 422.307 462.659 437.548 461.11C460.754 458.735 483.388 452.437 504.485 442.484C509.731 440.016 515.622 437.257 521.073 439.217C522.805 439.864 524.368 440.894 525.646 442.23C528.146 444.756 529.888 448.23 531.429 451.504C532.929 454.704 534.443 458.184 534.852 461.626C535.156 463.706 534.918 465.829 534.16 467.79C532.346 472.275 527.733 474.879 523.394 477.025C491.006 493.006 455.939 502.856 419.966 506.075C415.597 506.475 411.218 506.771 406.83 506.963" stroke="#171717" stroke-width="3" stroke-linecap="round" stroke-linejoin="round"/>
<path d="M419.988 506.3C419.413 538.422 418.838 569.033 418.262 601.156" stroke="#171717" stroke-width="3" stroke-linecap="round" stroke-linejoin="round"/>
<path d="M418.262 601.155C414.449 601.184 410.636 601.203 406.823 601.233C376.856 601.429 346.896 601.627 316.941 601.827C314.922 601.837 312.894 601.857 310.875 601.866" stroke="#171717" stroke-width="3" stroke-linecap="round" stroke-linejoin="round"/>
<path d="M310.875 601.866C313.02 595.742 314.21 589.266 316.356 583.153" stroke="#171717" stroke-width="3" stroke-linecap="round" stroke-linejoin="round"/>
<path d="M324.264 551.518C327.502 540.664 330.739 529.81 333.977 518.956" stroke="#171717" stroke-width="3" stroke-linecap="round" stroke-linejoin="round"/>
<path d="M333.976 518.956C325.576 518.849 316.589 521.024 310.016 526.251C305.93 529.518 302.341 534.364 303.131 539.533C303.706 543.307 306.593 546.427 309.967 548.212C313.341 549.997 317.2 550.65 321 551.147C322.083 551.294 323.175 551.42 324.267 551.547C334.52 552.708 344.855 552.96 355.151 552.298C357.921 552.122 361.168 552.074 362.894 554.248C363.221 554.66 363.475 555.125 363.645 555.623C364.083 557.214 364.17 558.881 363.899 560.509C363.411 565.57 362.92 570.634 362.426 575.702C362.212 577.887 362.007 580.061 361.792 582.246" stroke="#171717" stroke-width="3" stroke-linecap="round" stroke-linejoin="round"/>
<path d="M525.649 442.278V442.229C525.327 437.287 525.815 432.327 527.093 427.543C527.531 425.895 528.633 423.905 530.301 424.217C531.744 424.49 532.242 426.256 532.456 427.699C532.952 431.024 533.446 434.343 533.938 437.655C539.931 432.735 546.43 428.467 553.325 424.92C554.463 424.222 555.748 423.798 557.079 423.681C557.746 423.64 558.409 423.813 558.972 424.174C559.535 424.535 559.968 425.066 560.21 425.69C560.668 427.348 559.244 428.84 557.86 429.932C557.772 429.991 557.694 430.059 557.616 430.117C552.73 433.833 547.847 437.545 542.969 441.254" stroke="#171717" stroke-width="3" stroke-linecap="round" stroke-linejoin="round"/>
<path d="M556.883 431.044C557.244 430.732 557.625 430.41 558.005 430.108C559.231 428.971 560.77 428.227 562.423 427.972C564.558 427.777 566.977 429.581 566.538 431.687C566.15 432.826 565.373 433.793 564.344 434.418C564.314 434.437 564.285 434.467 564.256 434.486C559.136 438.377 554.013 442.271 548.887 446.169L549.969 445.028" stroke="#171717" stroke-width="3" stroke-linecap="round" stroke-linejoin="round"/>
<path d="M563.827 434.613C563.99 434.525 564.164 434.459 564.344 434.418C565.175 434.264 566.034 434.412 566.765 434.836C567.497 435.26 568.052 435.931 568.332 436.729C568.578 437.64 568.591 438.599 568.367 439.516C568.144 440.433 567.693 441.279 567.055 441.975C565.762 443.349 564.245 444.493 562.569 445.359C553.373 450.781 544.17 456.2 534.961 461.616C535.381 461.46 535.8 461.294 536.219 461.138" stroke="#171717" stroke-width="3" stroke-linecap="round" stroke-linejoin="round"/>
<path d="M363.885 555.565C364.776 552.868 366.026 550.303 367.6 547.939C367.773 547.587 368.02 547.277 368.325 547.031C368.63 546.785 368.985 546.609 369.366 546.515C369.809 546.519 370.237 546.678 370.575 546.965C370.913 547.252 371.141 547.648 371.218 548.085C371.354 548.962 371.274 549.859 370.984 550.699C370.263 553.575 369.249 555.818 368.527 558.699" stroke="#171717" stroke-width="3" stroke-linecap="round" stroke-linejoin="round"/>
<path d="M368.215 558.793C368.322 558.763 368.42 558.734 368.527 558.715C374.056 557.241 379.624 555.921 385.232 554.755C386.347 554.437 387.519 554.368 388.664 554.555C389.233 554.66 389.754 554.942 390.153 555.36C390.552 555.778 390.809 556.312 390.888 556.885C390.956 558.397 389.415 559.421 388.05 560.064C387.738 560.211 387.426 560.357 387.104 560.493C382.317 562.67 377.238 564.138 372.028 564.852" stroke="#171717" stroke-width="3" stroke-linecap="round" stroke-linejoin="round"/>
<path d="M387.115 560.499C388.636 560.226 389.348 559.599 390.815 560.08C392.282 560.561 393.515 562.081 393.146 563.572C393.013 563.999 392.79 564.394 392.492 564.729C392.194 565.064 391.828 565.331 391.419 565.512C390.811 565.823 390.175 566.075 389.519 566.263C384.35 567.803 379.126 569.129 373.848 570.241" stroke="#171717" stroke-width="3" stroke-linecap="round" stroke-linejoin="round"/>
<path d="M391.499 565.668C396.746 567.468 393.799 569.715 392.757 570.668C391.642 571.56 390.332 572.176 388.934 572.468C380.316 574.91 371.372 576.002 362.419 575.705H362.273" stroke="#171717" stroke-width="3" stroke-linecap="round" stroke-linejoin="round"/>
<path d="M316.94 601.554V601.827C317.847 664.59 289.469 727.148 241.675 767.827C239.296 769.846 236.692 772.157 236.419 775.258C236.327 776.7 236.66 778.137 237.375 779.393C238.173 780.793 239.136 782.092 240.242 783.264C244.06 787.514 248.2 791.462 252.626 795.074C256.839 798.506 261.626 801.754 267.059 802.085C267.176 802.095 267.293 802.095 267.41 802.095C273.885 802.329 279.766 798.395 284.837 794.274C284.963 794.157 285.09 794.059 285.217 793.952C308.378 774.858 326.253 749.825 338.989 722.657C348.497 702.363 355.216 680.88 359.975 658.957C361.593 651.516 362.975 644.036 364.175 636.527" stroke="#171717" stroke-width="3" stroke-linecap="round" stroke-linejoin="round"/>
<path d="M359.985 658.885C359.986 658.908 359.983 658.932 359.976 658.954C356.465 703.217 353.315 749.285 349.892 794.046C349.358 801.096 348.812 808.111 348.254 815.09C348.054 817.69 347.883 820.473 349.161 822.745C350.682 825.437 353.637 826.558 356.806 827.036C358.282 827.252 359.771 827.372 361.263 827.397C368.811 827.592 376.362 827.79 383.916 827.992C388.665 828.119 393.727 828.158 397.716 825.592C398.26 825.236 398.779 824.842 399.267 824.412C404.728 819.512 405.011 810.574 404.679 802.958C404.395 796.375 404.152 789.795 403.948 783.22C401.968 722.486 402.836 662.034 406.824 601.29" stroke="#171717" stroke-width="3" stroke-linecap="round" stroke-linejoin="round"/>
<path d="M237.121 779.525C233.321 780.149 230.383 783.202 228.881 786.825C228.495 787.743 228.201 788.697 228.003 789.672C227.067 794.421 228.091 799.307 229.103 804.046C230.479 810.482 231.857 816.916 233.238 823.346C233.901 826.437 234.613 829.636 236.563 832.123C239.391 835.731 244.17 837.067 248.616 838.188C253.99 839.554 259.367 840.913 264.746 842.265C266.872 842.801 269.339 843.279 271.085 841.943C273.152 840.353 272.947 837.223 272.538 834.648C270.832 823.804 269.122 812.964 267.408 802.126" stroke="#171717" stroke-width="3" stroke-linecap="round" stroke-linejoin="round"/>
<path d="M356.766 827.3C354.435 834.77 352.456 842.972 357.108 849.262C359.955 853.114 364.708 854.986 369.19 856.662C378.396 860.105 387.69 863.576 397.422 864.981C407.154 866.386 417.481 865.595 426.102 860.881C431.387 857.994 436.302 851.89 433.757 846.438C432.518 843.776 429.827 842.148 427.291 840.675L399.265 824.409" stroke="#171717" stroke-width="3" stroke-linecap="round" stroke-linejoin="round"/>
<path d="M403.809 783.25C403.858 783.241 403.897 783.231 403.946 783.221C434.557 775.907 436.175 775.108 467.83 757.545" stroke="#171717" stroke-width="3" stroke-linecap="round" stroke-linejoin="round"/>
<path d="M285.061 794.542C316.901 797.642 317.076 796.951 349.599 794.025" stroke="#171717" stroke-width="3" stroke-linecap="round" stroke-linejoin="round"/>
<path d="M667.284 780.266C667.723 780.266 668.162 780.276 668.591 780.276C751.179 780.852 754.182 772.007 754.182 772.007L754.221 757.72L755.538 290.149L755.557 282.572C584.852 235.763 469.205 324.564 469.205 324.564C469.205 324.564 378.337 263.3 195.237 290.832L195.178 297.063L190.478 769.949L190.42 776.132C190.42 776.132 189.903 779.232 228.452 786.632" stroke="#171717" stroke-width="3" stroke-linecap="round" stroke-linejoin="round"/>
<path d="M468.854 497.922L467.83 757.545C511.196 771.245 507.978 770.622 549.745 774.981" stroke="#171717" stroke-width="3" stroke-linecap="round" stroke-linejoin="round"/>
<path d="M469.205 324.562L469.546 455.014" stroke="#171717" stroke-width="3" stroke-linecap="round" stroke-linejoin="round"/>
<path d="M195.237 297.034L195.178 297.063L185.592 301.159L185.514 312.403L182.257 754.795L182.15 769.247L189.727 769.939" stroke="#171717" stroke-width="3" stroke-linecap="round" stroke-linejoin="round"/>
<path d="M185.135 312.403L179.635 312.861L179.03 409.658L177.743 615.607L177.09 720.78L177.022 731.819L176.934 745.267L176.904 750.075L176.875 754.795H181.927" stroke="#171717" stroke-width="3" stroke-linecap="round" stroke-linejoin="round"/>
<path d="M755.556 290.149L761.759 289.457L761.788 298.068L763.114 749.977L763.134 756.862L762.461 756.93L754.357 757.72" stroke="#171717" stroke-width="3" stroke-linecap="round" stroke-linejoin="round"/>
<path d="M761.926 298.068L773.921 296.8L772.449 619.186L772.176 680.447L771.932 733.682L771.854 750.201L763.136 749.977" stroke="#171717" stroke-width="3" stroke-linecap="round" stroke-linejoin="round"/>
<path d="M580.308 802.871L574.272 804.539C573.986 804.718 573.662 804.825 573.326 804.851L553.54 806.167C553.304 806.19 553.065 806.163 552.84 806.089L528.051 798.775C527.735 798.68 527.447 798.51 527.213 798.279C526.978 798.047 526.803 797.762 526.703 797.448C526.603 797.134 526.581 796.8 526.639 796.476C526.698 796.151 526.834 795.846 527.037 795.586L536.896 783.075C537.047 782.884 537.232 782.722 537.442 782.597L549.827 775.108L556.488 771.08C556.733 770.932 556.942 770.733 557.102 770.495L570.16 751.557C570.422 751.176 570.808 750.896 571.251 750.765C571.695 750.633 572.17 750.658 572.598 750.835L576.313 752.386L581.569 754.57C581.915 754.715 582.215 754.951 582.437 755.253L596.087 774.2L596.321 774.522" stroke="#171717" stroke-width="3" stroke-linecap="round" stroke-linejoin="round"/>
<path d="M581.975 802.403L580.307 802.861" stroke="#171717" stroke-width="3" stroke-linecap="round" stroke-linejoin="round"/>
<path d="M580.307 802.861C580.247 802.562 580.285 802.251 580.415 801.974L592.409 776.746C592.529 776.496 592.718 776.286 592.955 776.141L596.086 774.201L605.877 768.145C605.93 768.118 605.979 768.084 606.023 768.045C606.472 767.694 609.173 765.52 612.03 763.335C615.209 760.907 618.573 758.459 619.266 758.459H632.119C632.416 758.461 632.706 758.369 632.948 758.196L644.328 750.19C644.525 750.053 644.753 749.967 644.991 749.94C645.229 749.913 645.471 749.945 645.693 750.034L650.93 752.134L651.398 752.32C651.691 752.438 651.937 752.649 652.098 752.92L668.588 780.283L673.065 787.714C673.175 787.898 673.243 788.103 673.263 788.316C673.283 788.528 673.256 788.743 673.182 788.943L667.73 804.048C667.644 804.284 667.498 804.494 667.307 804.656C667.115 804.819 666.885 804.929 666.638 804.975C661.206 805.975 630.118 811.782 628.438 812.62C628.087 812.796 626.683 812.513 624.664 811.938C616.843 809.724 599.709 803.2 597.106 802.196C596.886 802.112 596.647 802.085 596.413 802.118L581.902 804.018C581.541 804.067 581.174 803.977 580.876 803.765C580.579 803.553 580.374 803.235 580.302 802.877L580.307 802.861Z" stroke="#171717" stroke-width="3" stroke-linecap="round" stroke-linejoin="round"/>
<path d="M650.073 754.278L641.755 758.461L633.036 785.542L620.184 798.385L626.786 810.809L626.834 810.897" stroke="#171717" stroke-width="3" stroke-linecap="round" stroke-linejoin="round"/>
<path d="M571.081 750.201L571.306 750.748L574.749 758.92L564.656 783.25L560.989 798.853L553.206 806.167L553.188 806.187" stroke="#171717" stroke-width="3" stroke-linecap="round" stroke-linejoin="round"/>
<path d="M606.53 769.081C608.451 767.248 610.284 765.327 612.03 763.337C631.105 741.542 639.208 711.028 635.53 682.137C623.438 691.372 615.149 704.907 610.068 719.242C606.479 729.404 604.441 735.928 603.047 744.242C602.481 747.665 602.013 751.4 601.594 755.827" stroke="#171717" stroke-width="3" stroke-linecap="round" stroke-linejoin="round"/>
<path d="M601.927 755.916C602.564 752.055 602.939 748.155 603.049 744.243C603.621 726.592 599.105 709.149 590.04 693.992C583.662 713.944 581.84 730.951 589.113 749.002C590.188 751.647 591.405 754.232 592.76 756.745" stroke="#171717" stroke-width="3" stroke-linecap="round" stroke-linejoin="round"/>
<path d="M592.674 756.16C591.631 753.705 590.442 751.315 589.114 749.002C581.33 735.33 569.318 724.553 554.885 718.293C559.142 731.205 566.522 742.866 576.369 752.24" stroke="#171717" stroke-width="3" stroke-linecap="round" stroke-linejoin="round"/>
<path d="M819.481 812.36C819.35 812.359 819.22 812.369 819.091 812.389L796.418 815.539C795.581 815.656 794.729 815.558 793.941 815.256L784.267 811.609C783.8 811.432 783.388 811.136 783.073 810.75C782.757 810.364 782.549 809.901 782.468 809.409C782.388 808.916 782.439 808.411 782.616 807.945C782.793 807.479 783.09 807.067 783.477 806.752L810.538 784.684C811.046 784.273 811.679 784.05 812.333 784.05H815.463C816.119 784.048 816.756 784.276 817.263 784.694L834.475 798.894L835.918 800.084C836.033 800.18 836.157 800.266 836.289 800.338L843.261 804.438L847.133 806.711C847.583 806.976 847.952 807.361 848.199 807.822C848.445 808.283 848.56 808.804 848.529 809.326C848.499 809.848 848.325 810.352 848.027 810.782C847.729 811.211 847.318 811.551 846.84 811.762L834.27 817.272C833.655 817.542 832.989 817.677 832.318 817.666C831.646 817.656 830.985 817.502 830.379 817.213L820.686 812.64C820.309 812.46 819.898 812.365 819.481 812.36V812.36Z" stroke="#171717" stroke-width="3" stroke-linecap="round" stroke-linejoin="round"/>
<path d="M814.644 786.117L810.977 793C810.977 793 818.777 801.2 819.919 804.7C820.397 806.144 819.812 810.776 819.812 810.776" stroke="#171717" stroke-width="3" stroke-linecap="round" stroke-linejoin="round"/>
<path d="M843.452 804.119C857.909 787.658 867.552 767.532 871.322 745.95C856.782 759.222 849.205 778.267 842.086 796.62C843.427 787.895 842.511 778.971 839.424 770.7C835.323 779.498 833.617 789.224 834.48 798.892C834.5 799.092 834.519 799.312 834.539 799.516" stroke="#171717" stroke-width="3" stroke-linecap="round" stroke-linejoin="round"/>
<path d="M104.545 822.5C104.533 822.21 104.585 821.921 104.696 821.653C104.807 821.385 104.975 821.145 105.189 820.949L111.752 814.766L124.852 802.43C125.187 802.117 125.615 801.921 126.071 801.874L135.671 800.974C136.133 800.931 136.597 801.044 136.988 801.296L143.697 805.675C144.09 805.929 144.556 806.045 145.023 806.006L150.777 805.45C151.264 805.409 151.751 805.54 152.152 805.821L165.258 815.056C165.654 815.335 165.939 815.746 166.063 816.215C166.186 816.685 166.139 817.182 165.931 817.621L164.059 821.57C163.909 821.883 163.684 822.153 163.402 822.356C163.121 822.559 162.794 822.688 162.45 822.731L138.021 825.656L137.921 825.666C137.814 825.681 137.706 825.688 137.599 825.685L106.525 824.5C106.002 824.481 105.507 824.263 105.139 823.892C104.771 823.52 104.558 823.022 104.545 822.5V822.5Z" stroke="#171717" stroke-width="3" stroke-linecap="round" stroke-linejoin="round"/>
<path d="M135.946 802.891L133.625 810.897L137.76 816.407V823.545" stroke="#171717" stroke-width="3" stroke-linecap="round" stroke-linejoin="round"/>
<path d="M110.563 817.665C110.982 816.699 111.372 815.734 111.753 814.765C119.213 795.671 119.808 775.378 118.003 754.801C108.281 772.462 106.935 793.37 105.814 813.507C104.822 798.333 101.801 783.361 96.8316 768.99C94.2083 784.418 95.7192 800.266 101.211 814.921C97.2906 809.148 93.367 803.372 89.4396 797.592C87.7046 807.692 92.5896 818.412 104.546 822.499C104.634 822.528 104.731 822.567 104.829 822.599" stroke="#171717" stroke-width="3" stroke-linecap="round" stroke-linejoin="round"/>
<path d="M368.186 405.855C368.03 404.626 367.886 403.407 367.727 402.178" stroke="#171717" stroke-width="2" stroke-linecap="round" stroke-linejoin="round"/>
<path d="M177.88 616.328C177.831 616.085 177.792 615.851 177.743 615.607C163.72 539.942 135.908 465.828 97.6897 398.4C86.7977 379.178 75.086 360.536 62.5547 342.473" stroke="#171717" stroke-width="3" stroke-linecap="round" stroke-linejoin="round"/>
<path d="M61.7729 342.857C39.3929 440.98 52.6729 547.987 104.038 634.544C104.545 635.402 105.062 636.26 105.579 637.109C119.612 660.316 136.192 681.883 155.011 701.409C161.466 708.118 168.179 714.57 175.148 720.766" stroke="#171717" stroke-width="3" stroke-linecap="round" stroke-linejoin="round"/>
<path d="M176.456 696.83C169.435 672.08 162.079 647.427 154.388 622.872C148.234 603.205 141.856 583.605 135.254 564.072C119.915 518.567 103.412 473.476 85.7441 428.8" stroke="#171717" stroke-width="3" stroke-linecap="round" stroke-linejoin="round"/>
<path d="M178.756 409.658C158.353 353.578 126.114 302.548 84.2324 260.036" stroke="#171717" stroke-width="3" stroke-linecap="round" stroke-linejoin="round"/>
<path d="M82.6816 258.456C82.7206 259.012 82.7596 259.568 82.7986 260.133C85.7986 304.923 90.9416 354.014 97.9986 398.219" stroke="#171717" stroke-width="3" stroke-linecap="round" stroke-linejoin="round"/>
<path d="M104.312 637.87C81.5286 636.141 59.7707 627.69 41.793 613.588" stroke="#171717" stroke-width="3" stroke-linecap="round" stroke-linejoin="round"/>
<path d="M40.1152 613.705C41.4103 627.166 45.4446 640.221 51.97 652.066C58.4954 663.91 67.3741 674.296 78.0605 682.583C88.7469 690.871 101.015 696.886 114.111 700.258C127.208 703.63 140.855 704.289 154.215 702.193" stroke="#171717" stroke-width="3" stroke-linecap="round" stroke-linejoin="round"/>
<path d="M175.528 731.81C167.576 723.5 158.477 716.371 148.506 710.638C148.142 710.356 147.721 710.156 147.272 710.052C146.823 709.949 146.357 709.944 145.906 710.038C144.551 710.565 144.57 712.476 144.906 713.89C146.239 719.371 148.667 724.526 152.044 729.045C157.847 736.97 166.173 742.686 175.654 745.252" stroke="#171717" stroke-width="3" stroke-linecap="round" stroke-linejoin="round"/>
<path d="M151.432 729.5C144.732 729.1 136.375 729.149 129.666 728.749C133.504 736.955 140.055 743.586 148.214 747.522C156.698 751.367 166.223 752.263 175.275 750.067" stroke="#171717" stroke-width="3" stroke-linecap="round" stroke-linejoin="round"/>
<path d="M115.6 330.678C124.659 353.019 133.211 375.761 141.188 398.746C155.576 440.21 168.059 482.494 178.2 524.8" stroke="#171717" stroke-width="3" stroke-linecap="round" stroke-linejoin="round"/>
<path d="M142.089 361.737C141.797 374.074 141.497 386.41 141.189 398.746C141.18 398.946 141.18 399.155 141.17 399.36" stroke="#171717" stroke-width="3" stroke-linecap="round" stroke-linejoin="round"/>
<path d="M127.773 414.056C139.628 429.59 150.694 445.71 160.929 462.356" stroke="#171717" stroke-width="3" stroke-linecap="round" stroke-linejoin="round"/>
<path d="M106.701 444.374C108.077 460.436 109.448 476.501 110.816 492.568" stroke="#171717" stroke-width="3" stroke-linecap="round" stroke-linejoin="round"/>
<path d="M100.83 525.646C112.62 540.722 124.33 552.23 136.122 567.296" stroke="#171717" stroke-width="3" stroke-linecap="round" stroke-linejoin="round"/>
<path d="M153.422 584.089C153.744 597.022 154.066 609.95 154.388 622.872C154.395 622.953 154.398 623.034 154.397 623.116" stroke="#171717" stroke-width="3" stroke-linecap="round" stroke-linejoin="round"/>
<path d="M138.287 539.387C135.771 549.109 134.699 554.073 135.254 564.068C135.254 564.117 135.264 564.156 135.264 564.205" stroke="#171717" stroke-width="3" stroke-linecap="round" stroke-linejoin="round"/>
<path d="M75.8652 458.671C86.4262 469.817 99.3962 481.461 109.965 492.617" stroke="#171717" stroke-width="3" stroke-linecap="round" stroke-linejoin="round"/>
<path d="M165.612 430.576C164.345 441.303 163.074 452.036 161.799 462.776C161.935 461.908 162.062 461.04 162.199 460.176" stroke="#171717" stroke-width="3" stroke-linecap="round" stroke-linejoin="round"/>
<path d="M111.811 377.048C120.734 384.42 131.705 391.305 140.628 398.677" stroke="#171717" stroke-width="3" stroke-linecap="round" stroke-linejoin="round"/>
<path d="M773 619.186C801.632 594.686 811.588 561.016 818.951 524.057C826.314 487.098 828.001 449.075 837.251 412.545C846.501 376.015 864.888 339.669 896.942 319.845C882.851 346.984 876.814 377.614 873.791 408.045C870.768 438.476 870.602 469.15 867.414 499.566C863.659 535.375 855.585 571.066 839.738 603.394C823.891 635.722 803.851 662.285 772.762 680.443" stroke="#171717" stroke-width="3" stroke-linecap="round" stroke-linejoin="round"/>
<path d="M772.311 733.682C812.596 709.127 831.111 667.74 847.722 623.594C864.333 579.448 876.47 532.823 902.644 493.572C883.444 541.639 891.937 597.722 870.707 644.94C853.456 683.304 817.677 713.057 809.183 754.258" stroke="#171717" stroke-width="3" stroke-linecap="round" stroke-linejoin="round"/>
<path d="M809 755.741C809.225 755.341 809.449 754.941 809.683 754.541C816.957 742.084 827.297 731.694 839.719 724.359C842.919 722.477 846.877 720.78 850.202 722.428C854.483 724.544 854.717 730.552 853.722 735.228C852.338 742.246 849.373 748.856 845.053 754.557" stroke="#171717" stroke-width="3" stroke-linecap="round" stroke-linejoin="round"/>
<path d="M761.76 756.9L762.46 756.929C777.975 757.573 793.503 757.618 809.044 757.065C821.078 756.655 833.085 755.885 845.067 754.755C847.359 754.53 849.641 754.306 851.923 754.062" stroke="#171717" stroke-width="3" stroke-linecap="round" stroke-linejoin="round"/>
<path d="M773.463 648.558C803.957 636.446 818.994 609.834 829.741 578.833C840.488 547.832 842.369 514.588 844.866 481.87C847.363 449.152 850.736 415.811 864.116 385.844" stroke="#171717" stroke-width="3" stroke-linecap="round" stroke-linejoin="round"/>
<path d="M773.463 597.39C798.863 564.761 801.831 532.316 805.215 491.105C808.599 449.894 806.395 408.305 811.28 367.237C813.621 347.576 817.597 328.145 823.168 309.146C823.343 308.531 823.519 307.917 823.704 307.313C824.143 305.839 824.592 304.367 825.05 302.895C829.136 289.786 833.961 276.919 839.501 264.356C839.667 263.966 839.842 263.566 840.018 263.176C841.042 260.876 842.095 258.576 843.168 256.291C843.382 255.842 843.587 255.391 843.802 254.945C849.016 243.972 854.777 233.267 861.062 222.871C861.189 222.657 861.326 222.433 861.453 222.218C862.555 220.404 863.676 218.6 864.817 216.806C864.865 216.714 864.92 216.626 864.983 216.543C871.442 206.317 878.424 196.432 885.901 186.926C886.213 186.526 886.526 186.136 886.838 185.736C887.538 184.849 888.238 183.971 888.954 183.094" stroke="#171717" stroke-width="3" stroke-linecap="round" stroke-linejoin="round"/>
<path d="M754.515 237.772C758.377 237.723 762.346 237.654 765.944 236.24C770.693 234.378 774.76 229.61 772.634 224.003C772.032 222.514 771.083 221.191 769.865 220.144C768.647 219.097 767.197 218.357 765.634 217.985C759.51 216.405 753.534 219.623 749.202 223.904C754.302 216.093 750.246 203.991 741.469 200.822C732.692 197.653 721.848 204.381 720.776 213.645C721.176 205.551 713.14 198.13 705.104 199.173C697.068 200.216 691.189 209.443 693.636 217.167C691.285 214.641 688.203 212.913 684.822 212.224C681.441 211.534 677.929 211.918 674.776 213.322C671.624 214.726 668.989 217.079 667.239 220.053C665.489 223.028 664.711 226.474 665.015 229.912C665.025 230.058 665.002 230.206 664.947 230.343C664.893 230.479 664.808 230.602 664.699 230.701C664.59 230.801 664.461 230.874 664.32 230.917C664.179 230.959 664.03 230.969 663.884 230.945C659.154 230.301 644.653 236.084 652.445 242.628C658.169 247.428 670.69 240.171 676.668 239.089C701.192 234.632 729.57 238.075 754.515 237.772Z" stroke="#171717" stroke-width="3" stroke-linecap="round" stroke-linejoin="round"/>
<path d="M530.038 168.661C539.204 168.339 548.367 168.024 557.528 167.715C562.102 167.549 566.828 167.364 570.81 164.907C572.251 164.029 573.466 162.827 574.36 161.396C578.68 154.345 571.932 148.065 565.505 148.026C560.532 148.007 555.968 150.796 552.252 154.102C556.904 148.124 555.568 138.411 549.473 133.915C547.572 132.593 545.383 131.745 543.089 131.439C540.794 131.134 538.459 131.381 536.279 132.16C533.498 133.055 531.076 134.814 529.365 137.182C532.788 127.352 524.606 116.05 514.376 114.082C504.146 112.114 493.566 117.836 487.344 126.182C490.972 117.864 486.535 107.282 478.499 103.051C470.463 98.8199 460.019 100.593 453.018 106.376C446.017 112.159 442.339 121.355 442.125 130.434C438.682 121.999 433.425 112.434 423.509 112.934C421.25 113.099 419.059 113.774 417.099 114.909C415.14 116.044 413.463 117.61 412.197 119.487C406.277 127.913 407.291 137.967 408.354 147.504C398.134 141.926 383.741 150.342 381.439 161.761C381.82 159.861 354.007 162.061 364.988 173.074C370.049 178.154 394.409 173.308 400.582 173.093L500.382 169.67C510.261 169.333 520.147 168.996 530.038 168.661Z" stroke="#171717" stroke-width="3" stroke-linecap="round" stroke-linejoin="round"/>
<path d="M536.142 132.852C536.181 132.618 536.23 132.384 536.279 132.16C541.204 106.669 563.974 95.1029 584.511 93.6789C605.224 92.2459 626.259 104.279 635.511 122.879C645.4 142.763 641.611 167.552 629.811 186.364C620.322 201.489 605.226 213.805 587.595 216.664C580.804 217.73 573.867 217.404 567.205 215.708C560.543 214.011 554.296 210.979 548.841 206.795C538.231 198.564 531.483 182.162 530.041 168.665C530.011 168.372 529.982 168.08 529.953 167.797" stroke="#171717" stroke-width="3" stroke-linecap="round" stroke-linejoin="round"/>
<path d="M198.748 149.439C198.846 149.892 198.973 150.339 199.128 150.775C199.053 150.317 198.925 149.869 198.748 149.439Z" stroke="#171717" stroke-width="3" stroke-linecap="round" stroke-linejoin="round"/>
<path d="M198.749 149.44C197.101 145.598 191.298 144.164 187.466 146.329C183.214 148.729 181.244 153.858 180.747 158.724C181.078 155.496 172.175 154.131 170.263 154.384C168.263 154.682 166.38 155.513 164.812 156.79C163.243 158.067 162.048 159.742 161.35 161.64C158.922 168.14 161.877 174.405 168.479 175.946C176.085 177.73 185.72 176.267 193.405 175.965C205.063 175.499 216.677 174.258 228.17 172.25C232.558 171.479 237.112 170.514 240.57 167.705C244.028 164.896 245.953 159.689 243.691 155.857C242.733 154.408 241.344 153.297 239.72 152.679C238.097 152.062 236.32 151.969 234.641 152.414C232.979 152.913 231.456 153.795 230.196 154.989C228.936 156.183 227.974 157.657 227.386 159.29C229.746 153 229.102 145.471 225.055 140.117C221.008 134.763 213.411 132.101 207.131 134.471C201.284 136.665 197.413 143.423 198.749 149.44Z" stroke="#171717" stroke-width="3" stroke-linecap="round" stroke-linejoin="round"/>
<path d="M406.832 844.793C410.71 841.743 415.126 839.447 419.851 838.025" stroke="#171717" stroke-width="3" stroke-linecap="round" stroke-linejoin="round"/>
<path d="M397.178 838.573C401.21 835.494 405.794 833.216 410.684 831.863" stroke="#171717" stroke-width="3" stroke-linecap="round" stroke-linejoin="round"/>
<path d="M389.865 834.253C393.844 831.228 398.318 828.918 403.088 827.426" stroke="#171717" stroke-width="3" stroke-linecap="round" stroke-linejoin="round"/>
<path d="M253.758 823.359C258.946 824.493 264.134 825.621 269.322 826.743" stroke="#171717" stroke-width="3" stroke-linecap="round" stroke-linejoin="round"/>
<path d="M254.188 814.086C259.014 815.019 263.845 815.959 268.679 816.904" stroke="#171717" stroke-width="3" stroke-linecap="round" stroke-linejoin="round"/>
<path d="M252.148 804.792C256.857 806.209 261.701 807.131 266.6 807.542" stroke="#171717" stroke-width="3" stroke-linecap="round" stroke-linejoin="round"/>
<path d="M888.837 182.985C888.846 182.937 888.866 182.898 888.876 182.849C890.306 177.52 890.508 171.935 889.466 166.515C888.424 161.096 886.164 155.984 882.859 151.565C881.948 150.255 880.78 149.144 879.426 148.298C878.748 147.878 877.98 147.624 877.185 147.558C876.39 147.492 875.591 147.616 874.853 147.918C874.064 148.355 873.403 148.989 872.935 149.758C872.466 150.528 872.206 151.406 872.181 152.306C872.143 154.111 872.468 155.905 873.136 157.582C876.452 167.49 881.659 176.657 886.836 185.735C886.845 185.763 886.858 185.79 886.875 185.813" stroke="#171717" stroke-width="3" stroke-linecap="round" stroke-linejoin="round"/>
<path d="M888.417 183.23C888.563 183.096 888.716 182.969 888.876 182.85C894.987 177.654 902.384 174.2 910.291 172.85C912.229 172.411 914.242 172.431 916.171 172.909C917.131 173.159 918.003 173.669 918.691 174.383C919.379 175.097 919.857 175.988 920.071 176.956C920.138 177.855 919.992 178.758 919.645 179.59C919.297 180.422 918.758 181.16 918.071 181.744C915.077 184.572 910.63 185.044 906.524 185.352C899.657 185.885 892.79 186.415 885.924 186.942" stroke="#171717" stroke-width="3" stroke-linecap="round" stroke-linejoin="round"/>
<path d="M864.32 216.494C865.353 203.709 864.846 190.057 857.991 179.222C856.97 177.436 855.56 175.903 853.866 174.736C853.014 174.16 852.037 173.795 851.016 173.671C849.995 173.547 848.959 173.669 847.995 174.025C846.965 174.55 846.088 175.332 845.449 176.296C844.81 177.259 844.431 178.372 844.348 179.525C844.215 181.833 844.536 184.146 845.294 186.331C848.873 198.755 854.772 210.379 860.794 221.818" stroke="#171717" stroke-width="3" stroke-linecap="round" stroke-linejoin="round"/>
<path d="M865.187 216.669C875.559 211.018 887.408 208.664 899.153 209.921C901.087 210.005 902.975 210.532 904.673 211.462C905.512 211.941 906.191 212.658 906.624 213.522C907.058 214.386 907.227 215.358 907.111 216.318C906.584 218.918 903.611 220.118 901.025 220.736C888.104 223.808 874.647 223.436 861.375 223.057" stroke="#171717" stroke-width="3" stroke-linecap="round" stroke-linejoin="round"/>
<path d="M842.457 255.959C841.94 247.075 841.414 238.153 839.609 229.444C837.804 220.735 834.665 212.164 829.351 205.026C828.204 203.278 826.652 201.832 824.826 200.813C823.907 200.315 822.865 200.089 821.822 200.162C820.779 200.234 819.778 200.602 818.936 201.222C817.112 202.792 816.995 205.552 817.151 207.951C818.458 228.098 828.678 246.432 838.644 263.975" stroke="#171717" stroke-width="3" stroke-linecap="round" stroke-linejoin="round"/>
<path d="M844.359 255.208C853.038 251.99 859.523 249.786 868.65 248.236C877.777 246.686 887.335 246.715 896.102 249.669C898.462 250.459 901.065 251.844 901.456 254.302C901.768 256.291 900.441 258.183 898.93 259.529C892.747 265.019 883.571 264.999 875.311 264.678L840.301 263.3" stroke="#171717" stroke-width="3" stroke-linecap="round" stroke-linejoin="round"/>
<path d="M824.728 302.973C819.428 283.713 812.148 264.053 797.491 250.479C794.897 248.079 791.172 245.788 788.061 247.456C785.438 248.87 784.833 252.371 785.009 255.356C785.555 264.386 790.409 272.568 795.765 279.862C803.47 290.355 812.46 299.841 822.524 308.1C822.797 307.808 823.07 307.506 823.343 307.2" stroke="#171717" stroke-width="3" stroke-linecap="round" stroke-linejoin="round"/>
<path d="M824.514 303.187C824.601 303.139 824.679 303.087 824.767 303.051C824.867 302.992 824.952 302.944 825.05 302.895C835.211 297.327 845.441 291.749 856.402 288.023C867.558 284.223 879.621 282.387 891.187 284.659C892.757 284.959 894.6 285.615 894.941 287.175C895.241 288.521 894.241 289.788 893.241 290.744C884.289 299.326 871.29 301.939 858.983 303.421C846.676 304.903 834.283 303.061 823.535 309.253" stroke="#171717" stroke-width="3" stroke-linecap="round" stroke-linejoin="round"/>
<path d="M517.531 254.258L526.167 258.699C526.296 258.765 526.402 258.87 526.471 258.998C526.539 259.127 526.566 259.273 526.548 259.418C526.531 259.562 526.469 259.698 526.372 259.806C526.275 259.915 526.147 259.991 526.006 260.024L516.557 262.265C516.42 262.297 516.295 262.369 516.199 262.472C516.103 262.575 516.04 262.704 516.018 262.843L514.463 272.429C514.439 272.573 514.373 272.706 514.272 272.811C514.17 272.915 514.04 272.986 513.897 273.014C513.754 273.042 513.606 273.026 513.473 272.967C513.339 272.909 513.227 272.81 513.152 272.686L508.101 264.391C508.028 264.271 507.921 264.175 507.793 264.115C507.665 264.056 507.523 264.036 507.384 264.057L497.784 265.54C497.64 265.563 497.493 265.54 497.362 265.476C497.231 265.413 497.123 265.31 497.052 265.183C496.982 265.056 496.952 264.91 496.967 264.765C496.982 264.62 497.041 264.483 497.136 264.373L503.464 257.006C503.556 256.9 503.614 256.769 503.632 256.629C503.65 256.49 503.626 256.348 503.564 256.222L499.187 247.552C499.121 247.422 499.097 247.275 499.118 247.132C499.139 246.988 499.203 246.853 499.302 246.747C499.401 246.641 499.53 246.567 499.672 246.536C499.814 246.506 499.962 246.519 500.097 246.575L509.059 250.317C509.188 250.371 509.331 250.386 509.469 250.359C509.607 250.332 509.734 250.265 509.834 250.166L516.727 243.324C516.83 243.222 516.962 243.153 517.105 243.128C517.249 243.103 517.396 243.122 517.528 243.184C517.66 243.245 517.77 243.345 517.843 243.471C517.916 243.597 517.949 243.742 517.937 243.887L517.148 253.566C517.136 253.706 517.167 253.847 517.235 253.97C517.303 254.093 517.406 254.193 517.531 254.258Z" stroke="#171717" stroke-width="3" stroke-linecap="round" stroke-linejoin="round"/>
<path d="M288.745 202.799L303.09 204.425C303.21 204.441 303.323 204.492 303.413 204.573C303.503 204.654 303.567 204.76 303.596 204.877C303.625 204.995 303.618 205.119 303.575 205.232C303.532 205.345 303.456 205.443 303.357 205.512L291.4 213.599C291.302 213.666 291.227 213.759 291.182 213.869C291.137 213.978 291.126 214.098 291.149 214.213L294.037 228.358C294.059 228.477 294.045 228.6 293.996 228.711C293.948 228.822 293.866 228.916 293.764 228.979C293.661 229.043 293.541 229.074 293.42 229.069C293.299 229.063 293.183 229.021 293.086 228.948L281.7 220.079C281.607 220.007 281.494 219.964 281.377 219.956C281.259 219.947 281.142 219.974 281.039 220.031L268.478 227.148C268.372 227.207 268.25 227.231 268.13 227.219C268.009 227.207 267.895 227.159 267.802 227.08C267.71 227.002 267.643 226.898 267.611 226.781C267.579 226.664 267.583 226.54 267.623 226.425L272.54 212.85C272.58 212.74 272.586 212.62 272.558 212.505C272.53 212.391 272.468 212.287 272.382 212.207L261.732 202.46C261.644 202.377 261.583 202.27 261.557 202.151C261.531 202.033 261.542 201.909 261.587 201.797C261.633 201.685 261.711 201.589 261.813 201.523C261.914 201.456 262.033 201.421 262.154 201.423L276.583 201.904C276.701 201.908 276.816 201.876 276.916 201.814C277.016 201.752 277.096 201.662 277.145 201.555L283.124 188.414C283.176 188.305 283.259 188.213 283.364 188.152C283.469 188.091 283.59 188.063 283.711 188.072C283.832 188.081 283.947 188.126 284.042 188.202C284.136 188.278 284.206 188.38 284.241 188.496L288.241 202.368C288.273 202.482 288.338 202.583 288.428 202.66C288.518 202.737 288.628 202.785 288.745 202.799V202.799Z" fill="#171717"/>
<path d="M741.239 108.381L750.304 107.263C750.38 107.254 750.458 107.268 750.526 107.304C750.595 107.34 750.65 107.396 750.686 107.464C750.721 107.533 750.735 107.611 750.725 107.687C750.714 107.764 750.681 107.835 750.629 107.892L744.469 114.635C744.418 114.69 744.385 114.759 744.374 114.833C744.362 114.906 744.373 114.982 744.405 115.049L748.271 123.325C748.303 123.395 748.313 123.473 748.299 123.549C748.286 123.625 748.249 123.695 748.195 123.749C748.14 123.804 748.07 123.84 747.995 123.854C747.919 123.867 747.841 123.857 747.771 123.825L739.453 120.05C739.385 120.02 739.309 120.01 739.236 120.022C739.162 120.034 739.094 120.067 739.04 120.118L732.364 126.352C732.307 126.405 732.236 126.439 732.16 126.45C732.083 126.46 732.006 126.448 731.937 126.413C731.868 126.379 731.811 126.324 731.774 126.256C731.737 126.188 731.722 126.111 731.731 126.034L732.751 116.957C732.759 116.883 732.745 116.808 732.711 116.742C732.676 116.676 732.624 116.621 732.559 116.584L724.567 112.161C724.499 112.124 724.444 112.067 724.41 111.998C724.376 111.928 724.364 111.85 724.375 111.774C724.387 111.698 724.422 111.627 724.475 111.571C724.529 111.515 724.598 111.477 724.674 111.461L733.622 109.625C733.695 109.61 733.762 109.574 733.814 109.52C733.867 109.467 733.902 109.399 733.916 109.325L735.653 100.358C735.667 100.282 735.705 100.213 735.76 100.159C735.816 100.105 735.886 100.069 735.962 100.057C736.039 100.044 736.117 100.055 736.187 100.089C736.257 100.122 736.314 100.176 736.353 100.243L740.863 108.186C740.898 108.253 740.953 108.307 741.021 108.342C741.088 108.377 741.164 108.39 741.239 108.381Z" fill="#171717"/>
<path d="M287.476 439.606L295.134 445.579C295.248 445.668 295.333 445.791 295.376 445.93C295.419 446.069 295.418 446.217 295.374 446.356C295.329 446.495 295.244 446.616 295.128 446.705C295.013 446.793 294.873 446.844 294.728 446.85L285.028 447.291C284.887 447.297 284.752 447.345 284.638 447.429C284.525 447.512 284.439 447.627 284.391 447.759L281.077 456.888C281.027 457.025 280.936 457.143 280.818 457.226C280.699 457.31 280.557 457.355 280.412 457.356C280.267 457.357 280.124 457.314 280.005 457.231C279.885 457.149 279.793 457.032 279.742 456.896L276.325 447.805C276.275 447.674 276.188 447.56 276.074 447.478C275.96 447.396 275.824 447.349 275.684 447.344L265.978 447.013C265.832 447.008 265.692 446.958 265.576 446.871C265.46 446.784 265.373 446.663 265.327 446.525C265.281 446.388 265.279 446.239 265.32 446.1C265.361 445.96 265.444 445.837 265.558 445.746L273.148 439.687C273.258 439.599 273.339 439.481 273.382 439.347C273.425 439.213 273.427 439.069 273.388 438.934L270.7 429.6C270.66 429.46 270.664 429.312 270.711 429.174C270.758 429.037 270.846 428.917 270.963 428.831C271.08 428.745 271.221 428.697 271.366 428.693C271.511 428.689 271.654 428.73 271.776 428.81L279.884 434.155C280.001 434.233 280.138 434.275 280.279 434.275C280.419 434.275 280.557 434.233 280.674 434.155L288.721 428.717C288.841 428.635 288.984 428.593 289.129 428.595C289.274 428.597 289.416 428.643 289.534 428.728C289.652 428.813 289.741 428.932 289.79 429.069C289.838 429.206 289.843 429.355 289.805 429.495L287.226 438.858C287.189 438.993 287.194 439.137 287.238 439.27C287.283 439.403 287.365 439.52 287.476 439.606V439.606Z" stroke="#171717" stroke-width="3" stroke-miterlimit="10"/>
<path d="M173.086 253.111L157.838 239.459" stroke="#171717" stroke-width="3" stroke-linecap="round" stroke-linejoin="round"/>
<path d="M158.99 255.882C162.834 249.882 166.678 243.88 170.52 237.875" stroke="#171717" stroke-width="3" stroke-linecap="round" stroke-linejoin="round"/>
<path d="M348.783 112.581C351.541 108.683 354.3 104.785 357.058 100.889" stroke="#171717" stroke-width="3" stroke-linecap="round" stroke-linejoin="round"/>
<path d="M357.738 112.512C354.291 107.698 350.844 102.883 347.398 98.0684" stroke="#171717" stroke-width="3" stroke-linecap="round" stroke-linejoin="round"/>
<path d="M784.657 168.067C778.011 160.568 772.65 152.023 768.789 142.776" stroke="#171717" stroke-width="3" stroke-linecap="round" stroke-linejoin="round"/>
<path d="M766.6 163.506L782.458 147.006" stroke="#171717" stroke-width="3" stroke-linecap="round" stroke-linejoin="round"/>
<path d="M316.339 378.98L303.939 361.78" stroke="#171717" stroke-width="3" stroke-linecap="round" stroke-linejoin="round"/>
<path d="M301.93 378.258C308.774 373.511 314.817 367.701 319.83 361.049" stroke="#171717" stroke-width="3" stroke-linecap="round" stroke-linejoin="round"/>
<path d="M440.75 373.91L448.45 365.769" stroke="#171717" stroke-width="3" stroke-linecap="round" stroke-linejoin="round"/>
<path d="M448.551 375.5C445.797 371.83 443.044 368.158 440.291 364.486" stroke="#171717" stroke-width="3" stroke-linecap="round" stroke-linejoin="round"/>
<path d="M275.683 580.129C270.455 577.387 266.144 573.173 263.283 568.009C260.422 562.844 259.136 556.955 259.583 551.068" stroke="#171717" stroke-width="3" stroke-linecap="round" stroke-linejoin="round"/>
<path d="M219.352 822.924C217.439 820.135 216.245 816.917 215.875 813.555C215.505 810.194 215.971 806.793 217.231 803.654" stroke="#171717" stroke-width="3" stroke-linecap="round" stroke-linejoin="round"/>
<path d="M577.965 416.118L615.825 375.504" stroke="#171717" stroke-width="3" stroke-linecap="round" stroke-linejoin="round"/>
<path d="M564.887 409.234L566.263 390.648" stroke="#171717" stroke-width="3" stroke-linecap="round" stroke-linejoin="round"/>
<path d="M584.848 427.132L607.564 431.262" stroke="#171717" stroke-width="3" stroke-linecap="round" stroke-linejoin="round"/>
<path fill-rule="evenodd" clip-rule="evenodd" d="M543.089 131.439C540.794 131.134 538.459 131.381 536.279 132.16C533.498 133.056 531.075 134.817 529.365 137.187C532.788 127.359 524.596 116.049 514.376 114.087C504.156 112.125 493.566 117.84 487.344 126.187C490.972 117.869 486.524 107.298 478.499 103.056C470.474 98.8137 460.011 100.598 453.018 106.381C446.025 112.164 442.339 121.36 442.125 130.439C438.683 121.999 433.426 112.432 423.509 112.939C421.25 113.103 419.059 113.779 417.099 114.914C415.14 116.049 413.463 117.614 412.197 119.492C406.277 127.918 407.291 137.972 408.354 147.509C398.134 141.931 383.739 150.347 381.439 161.766C381.82 159.865 354.007 162.069 364.988 173.079C368.843 176.948 383.892 175.059 393.575 173.844H393.576L393.576 173.844C396.606 173.463 399.111 173.149 400.582 173.098L500.382 169.675C510.263 169.332 520.149 168.994 530.038 168.661C539.197 168.342 548.361 168.027 557.528 167.715C562.102 167.549 566.831 167.364 570.81 164.907C572.251 164.029 573.466 162.827 574.36 161.396C578.68 154.345 571.932 148.065 565.505 148.026C560.532 148.007 555.968 150.796 552.252 154.102C556.904 148.124 555.573 138.415 549.473 133.915C547.572 132.593 545.383 131.744 543.089 131.439ZM540.127 137.637C539.298 137.626 538.618 138.289 538.608 139.117C538.597 139.946 539.26 140.626 540.088 140.637C541.446 140.654 542.775 141.034 543.937 141.738C545.099 142.441 546.052 143.442 546.697 144.637C547.343 145.833 547.657 147.179 547.608 148.536C547.558 149.893 547.147 151.213 546.417 152.358C545.971 153.057 546.176 153.984 546.875 154.429C547.573 154.875 548.501 154.67 548.946 153.971C549.964 152.375 550.537 150.537 550.606 148.645C550.674 146.753 550.237 144.878 549.337 143.212C548.438 141.546 547.11 140.151 545.491 139.171C543.871 138.191 542.02 137.661 540.127 137.637ZM509.706 120.615C509.77 119.789 510.492 119.172 511.318 119.237C515.061 119.53 518.571 121.164 521.205 123.84C523.838 126.515 525.417 130.051 525.65 133.798C525.702 134.625 525.073 135.337 524.246 135.389C523.42 135.44 522.708 134.812 522.656 133.985C522.467 130.96 521.193 128.104 519.067 125.944C516.94 123.784 514.106 122.464 511.084 122.228C510.258 122.163 509.641 121.441 509.706 120.615ZM470.287 102.724C469.485 102.519 468.668 103.004 468.463 103.806C468.258 104.609 468.742 105.426 469.545 105.631C472.696 106.436 475.469 108.313 477.387 110.941C479.305 113.568 480.248 116.781 480.055 120.028C480.005 120.855 480.636 121.565 481.463 121.614C482.29 121.663 483 121.033 483.049 120.206C483.284 116.263 482.139 112.362 479.81 109.172C477.481 105.982 474.114 103.702 470.287 102.724Z" fill="#171717"/>
<path d="M595.941 118.261C588.966 117.143 581.901 123.904 582.71 130.92C583.519 137.936 591.939 142.911 598.476 140.234C605.013 137.557 607.524 128.106 603.176 122.534" stroke="#171717" stroke-width="3" stroke-linecap="round" stroke-linejoin="round"/>
<path d="M556.021 183.471C555.636 185.03 555.684 186.665 556.159 188.2C556.634 189.734 557.518 191.11 558.716 192.18C559.915 193.249 561.382 193.972 562.961 194.27C564.539 194.568 566.169 194.43 567.675 193.871" stroke="#171717" stroke-width="3" stroke-linecap="round" stroke-linejoin="round"/>
<path d="M594.743 162.468C591.619 163.493 588.907 165.494 587.006 168.177C585.105 170.859 584.116 174.081 584.183 177.368C584.384 180.65 585.565 183.797 587.573 186.401C589.581 189.005 592.324 190.946 595.448 191.975C598.603 192.9 601.954 192.927 605.124 192.053C608.294 191.179 611.157 189.439 613.393 187.028C615.565 184.56 617.065 181.574 617.75 178.358C618.434 175.142 618.279 171.804 617.3 168.666" stroke="#171717" stroke-width="3" stroke-linecap="round" stroke-linejoin="round"/>
<path d="M377.039 462.408C376.871 457.933 376.701 453.458 376.531 448.984" stroke="#171717" stroke-width="3" stroke-linecap="round" stroke-linejoin="round"/>
<path d="M364.813 463.1L364.588 450.019" stroke="#171717" stroke-width="3" stroke-linecap="round" stroke-linejoin="round"/>
<path d="M352.736 463.271C352.689 459.197 352.642 455.125 352.594 451.053" stroke="#171717" stroke-width="3" stroke-linecap="round" stroke-linejoin="round"/>
<path d="M330.701 531.012C332.275 533.533 334.611 535.486 337.37 536.59C340.129 537.693 343.168 537.888 346.046 537.147C353.151 535.147 357.398 527.917 363.724 524.115C366.45 522.508 369.511 521.552 372.667 521.323C375.823 521.094 378.99 521.598 381.919 522.795C386.384 524.663 390.007 528.048 393.657 531.227C397.307 534.406 401.257 537.527 405.957 538.673C410.657 539.819 416.311 538.441 418.774 534.273" stroke="#171717" stroke-width="3" stroke-linecap="round" stroke-linejoin="round"/>
<path d="M332.826 521.954C335.326 525.515 340.555 526.246 344.621 524.705C348.687 523.164 351.811 519.87 354.601 516.535C357.391 513.2 360.073 509.65 363.719 507.281C366.206 505.695 369.029 504.714 371.963 504.417C374.897 504.119 377.86 504.513 380.614 505.567C388.467 508.65 393.646 516.796 401.714 519.274C404.74 520.156 407.951 520.184 410.992 519.354C414.033 518.525 416.785 516.87 418.944 514.574" stroke="#171717" stroke-width="3" stroke-linecap="round" stroke-linejoin="round"/>
<path d="M313.287 594.059L418.438 592.551" stroke="#171717" stroke-width="3" stroke-linecap="round" stroke-linejoin="round"/>
<path d="M354.137 584.949C355.78 574.342 356.833 563.652 357.29 552.928" stroke="#171717" stroke-width="3" stroke-linecap="round" stroke-linejoin="round"/>
<path d="M527.501 475.355C527.967 468.701 526.82 462.033 524.159 455.917C521.497 449.8 517.399 444.417 512.213 440.223" stroke="#171717" stroke-width="3" stroke-linecap="round" stroke-linejoin="round"/>
<g opacity="0.1">
<path d="M83.2929 263.688C81.4039 268.544 82.0689 273.848 82.4549 278.92C82.8999 284.78 83.3969 290.644 83.8099 296.505C84.6209 307.988 85.8399 319.319 87.2099 330.773C88.5409 341.882 89.4939 353.049 90.9369 364.142C91.6979 369.997 92.6369 375.824 93.5369 381.659C94.3899 387.2 94.4699 393.059 97.3059 397.999C99.4709 401.771 104.606 400.534 105.959 396.868C107.93 391.548 106.926 385.444 106.759 379.868C106.592 374.292 106.459 368.717 106.026 363.159C105.113 351.359 103.526 339.573 102.074 327.831C100.653 316.317 98.7579 305.137 96.4379 293.805C95.3219 288.352 94.1079 282.934 92.8599 277.51C91.6519 272.263 90.5489 266.94 87.0509 262.694C85.8639 261.254 83.8379 262.278 83.2899 263.687L83.2929 263.688Z" fill="#171717"/>
</g>
<g opacity="0.1">
<path d="M63.969 345.894C62.679 349.564 60.9 352.594 60.004 356.394C59.294 359.407 58.445 362.394 57.82 365.424C56.436 372.144 54.202 378.37 53.12 385.209C51.0391 398.927 49.9796 412.781 49.95 426.656C49.7723 453.782 52.3401 480.857 57.614 507.466C67.4277 557.178 86.0714 604.728 112.661 647.861C119.77 659.387 127.398 670.57 135.547 681.41C144.095 692.754 152.89 704.686 163.342 714.359C164.988 715.964 167.156 716.922 169.45 717.059C171.745 717.195 174.012 716.501 175.836 715.103C179.161 712.455 181.217 706.635 178.287 702.828C170.903 693.236 162.648 684.356 155.267 674.748C148.053 665.359 141.261 655.659 134.892 645.648C122.182 625.673 111.155 604.676 101.926 582.873C82.268 536.373 71.839 486.373 69.49 436.016C68.79 421.05 69.09 406.102 69.246 391.131C69.285 387.405 69.446 383.67 69.434 379.947C69.417 376.135 68.534 372.621 68.817 368.793C69.092 365.093 69.16 361.381 69.462 357.679C69.77 353.899 69.124 350.391 69.214 346.611C69.289 343.469 64.93 343.157 63.966 345.9L63.969 345.894Z" fill="#171717"/>
</g>
<g opacity="0.1">
<path d="M361.474 389.607C358.114 398.706 356.014 408.223 355.235 417.891C354.781 422.876 354.699 427.845 354.551 432.843C354.41 437.643 353.351 442.552 354.867 447.219C356.687 452.819 363.838 451.238 364.535 445.91C365.177 441.01 363.287 435.91 363.129 430.972C362.989 426.616 363.094 422.241 363.335 417.891C363.846 408.661 364.926 399.391 365.986 390.218C366.303 387.469 362.317 387.369 361.474 389.607V389.607Z" fill="#171717"/>
</g>
<g opacity="0.1">
<path d="M348.475 451.708C346.826 454.633 346.408 457.35 345.644 460.571C345.244 462.253 345.106 462.933 344.044 463.6C342.579 464.37 341 464.901 339.367 465.172C331.681 466.8 324.18 469.202 316.978 472.342C302.678 478.7 289.8 488 281.055 501.157C272.294 514.279 268.984 530.295 271.825 545.815C274.742 560.733 285.54 573.151 299.005 579.777C317.005 588.633 337.024 588.277 356.535 586.625C367.818 585.67 368.073 568.125 356.535 568.813C333.09 570.213 294.335 570.919 289.27 540.237C284.756 512.872 309.938 493.442 331.526 482.892C337.393 480.025 345.689 477.8 349.972 472.585C351.805 470.125 353.026 467.264 353.536 464.239C354.178 460.369 352.619 456.704 352.755 452.867C352.742 452.369 352.569 451.889 352.261 451.497C351.954 451.106 351.528 450.824 351.047 450.694C350.566 450.564 350.056 450.592 349.593 450.775C349.13 450.957 348.738 451.285 348.475 451.708V451.708Z" fill="#171717"/>
</g>
<g opacity="0.1">
<path d="M332.9 520.648C328.228 526.698 322.4 539.607 325.491 547.17C327.891 553.056 334.99 554.326 338.769 548.905C341.36 545.188 341.112 540.205 341.616 535.818C342.201 531.67 342.571 527.495 342.725 523.309C342.779 517.576 335.865 516.809 332.9 520.648V520.648Z" fill="#171717"/>
</g>
<g opacity="0.1">
<path d="M319.47 601.463C318.611 601.898 320.796 600.828 320.991 600.673C321.643 600.111 322.2 599.449 322.641 598.711C323.252 597.797 323.791 596.845 324.331 595.888L319.563 598.623L320.639 598.48C322.696 598.206 324.663 597.819 326.154 596.196C327.562 594.697 328.374 592.736 328.438 590.681L328.468 590.076C328.796 583.403 320.041 580.271 315.562 584.73L315.124 585.166C312.841 587.437 311.947 591.824 313.904 594.617L314.795 595.888L314.238 591.633C313.891 592.669 313.538 593.701 313.28 594.765C313.087 595.404 312.969 596.064 312.93 596.731C312.9 597.402 313.049 598.07 313.362 598.665C313.674 599.338 313.713 599.458 313.479 599.025C313.655 599.621 313.962 600.17 314.379 600.631C314.796 601.092 315.312 601.453 315.887 601.687C316.463 601.922 317.084 602.023 317.704 601.984C318.325 601.945 318.928 601.767 319.47 601.463V601.463Z" fill="#171717"/>
</g>
<g opacity="0.1">
<path d="M406.084 507.877C418.501 510.203 431.165 507.577 443.455 505.287C456.043 502.941 468.494 499.916 480.755 496.223C492.301 492.848 503.626 488.757 514.664 483.974C523.584 480.019 536.871 473.497 539.264 463.119C540.83 456.325 534.155 452.038 528.27 454.668C524.086 456.537 521.301 460.276 517.521 462.794C513.501 465.421 509.25 467.675 504.821 469.529C494.599 473.775 484.138 477.419 473.49 480.44C462.711 483.624 451.797 486.291 440.747 488.44C429.247 490.677 417.025 491.22 406.083 495.467C400.805 497.516 399.183 506.582 406.083 507.875L406.084 507.877Z" fill="#171717"/>
</g>
<g opacity="0.1">
<path d="M778.191 742.519C785.582 741.519 793.133 734.352 798.424 729.433C804.281 723.937 809.774 718.066 814.869 711.857C825.554 699.059 834.925 685.218 842.84 670.543C859.802 638.767 872.278 604.169 882.011 569.55C884.818 559.563 888.395 549.685 890.569 539.54C891.617 534.65 890.982 529.471 891.716 524.55C892.664 518.189 895.666 511.65 898.277 505.819C898.347 505.687 898.389 505.543 898.4 505.394C898.412 505.245 898.392 505.095 898.342 504.954C898.292 504.814 898.213 504.685 898.111 504.576C898.008 504.468 897.884 504.382 897.747 504.324C897.609 504.266 897.461 504.237 897.312 504.239C897.162 504.242 897.015 504.275 896.88 504.338C896.744 504.401 896.623 504.491 896.524 504.603C896.425 504.715 896.351 504.846 896.306 504.988C894.387 509.556 892.233 513.982 890.201 518.495C888.286 522.751 885.439 525.64 882.834 529.348C880.32 532.909 878.131 536.687 876.293 540.639C874.247 544.939 872.507 549.239 870.858 553.715C864.408 571.24 857.515 588.615 851.117 606.174C839.871 637.039 826.292 667.832 806.964 694.584C801.883 701.606 796.315 708.261 790.3 714.5C787.333 717.582 784.311 720.623 781.3 723.663C777.94 727.056 773.942 729.992 771.994 734.463C769.964 739.123 773.276 743.181 778.188 742.519H778.191Z" fill="#171717"/>
</g>
<g opacity="0.1">
<path d="M597.335 93.82C584.39 95.139 572.341 95.226 560.324 101.031C550.134 105.952 541.81 114.289 537.814 124.855C534.379 133.94 549.695 138.438 552.538 128.914C555.063 120.454 560.655 114.381 568.049 109.814C576.872 104.358 587.892 100.56 597.908 98.061C600.208 97.487 599.8 93.574 597.335 93.825V93.82Z" fill="#171717"/>
</g>
<g opacity="0.1">
<path d="M601.191 206.743C594.891 207.217 588.786 208.043 582.544 206.819C576.41 205.61 570.573 203.208 565.365 199.75C557.208 194.29 547.917 183.09 549.104 172.534C549.679 167.418 544.039 163.639 539.545 164.247C534.967 164.866 530.671 169.947 532.529 174.777C535.348 182.103 536.997 189.226 541.639 195.794C546.046 202.028 551.797 207.732 558.662 211.216C571.527 217.745 590.446 218.461 602.087 208.904C602.258 208.725 602.374 208.5 602.42 208.256C602.466 208.012 602.44 207.76 602.345 207.531C602.25 207.302 602.09 207.105 601.886 206.965C601.681 206.825 601.44 206.748 601.191 206.743V206.743Z" fill="#171717"/>
</g>
<g opacity="0.1">
<path d="M167.672 155.953C160.382 155.79 158.701 165.34 161.849 170.428C163.667 173.647 166.376 176.272 169.649 177.988C174.403 180.367 179.42 179.834 184.549 179.269C194.772 178.143 205.049 177.696 215.237 176.185C224.983 174.739 236.895 172.958 244.222 165.876C246.245 163.92 244.835 159.661 241.769 159.954C234.985 160.604 228.769 163.338 222.122 164.764C215.03 166.205 207.834 167.075 200.603 167.364C193.461 167.729 186.449 167.259 179.319 166.923C176.351 166.784 173.319 167.054 170.384 166.716C165.961 166.205 166.456 161.974 169.033 159.232C169.291 158.959 169.465 158.618 169.533 158.249C169.601 157.879 169.561 157.498 169.417 157.151C169.273 156.804 169.032 156.506 168.723 156.293C168.414 156.08 168.049 155.962 167.674 155.951L167.672 155.953Z" fill="#171717"/>
</g>
</g>
</g>
<defs>
<linearGradient id="paint0_linear_46_131" x1="403.389" y1="438.552" x2="403.389" y2="601.866" gradientUnits="userSpaceOnUse">
<stop stop-color="#24E9C1"/>
<stop offset="1" stop-color="#0EABA6"/>
</linearGradient>
<linearGradient id="paint1_linear_46_131" x1="114.527" y1="342.468" x2="114.527" y2="720.78" gradientUnits="userSpaceOnUse">
<stop stop-color="#24E9C1"/>
<stop offset="1" stop-color="#0EABA6"/>
</linearGradient>
<linearGradient id="paint2_linear_46_131" x1="711.697" y1="199.073" x2="711.697" y2="244.25" gradientUnits="userSpaceOnUse">
<stop stop-color="#24E9C1"/>
<stop offset="1" stop-color="#0EABA6"/>
</linearGradient>
<linearGradient id="paint3_linear_46_131" x1="834.559" y1="319.844" x2="834.559" y2="680.447" gradientUnits="userSpaceOnUse">
<stop stop-color="#24E9C1"/>
<stop offset="1" stop-color="#0EABA6"/>
</linearGradient>
<linearGradient id="paint4_linear_46_131" x1="646.728" y1="752.132" x2="646.728" y2="812.665" gradientUnits="userSpaceOnUse">
<stop stop-color="#24E9C1"/>
<stop offset="1" stop-color="#0EABA6"/>
</linearGradient>
<linearGradient id="paint5_linear_46_131" x1="595.641" y1="682.138" x2="595.641" y2="774.204" gradientUnits="userSpaceOnUse">
<stop stop-color="#24E9C1"/>
<stop offset="1" stop-color="#0EABA6"/>
</linearGradient>
<linearGradient id="paint6_linear_46_131" x1="369.063" y1="448.105" x2="369.063" y2="465.4" gradientUnits="userSpaceOnUse">
<stop stop-color="#24E9C1"/>
<stop offset="1" stop-color="#0EABA6"/>
</linearGradient>
<clipPath id="clip0_46_131">
<rect width="960" height="960" fill="white"/>
</clipPath>
<clipPath id="clip1_46_131">
<rect width="884" height="776" fill="white" transform="translate(38 92)"/>
</clipPath>
</defs>
</svg>
