<svg xmlns="http://www.w3.org/2000/svg" width="155" height="154" fill="none"><path fill="#000" d="M55.166 115.199a27.8 27.8 0 0 1 3.917-1.073l.161.59a.298.298 0 0 0 .322.222l5.266-.613c1.449-3.304 4.109-8.309 4.147-8.386-.038-1.249 0-2.299 0-3.495-3.012 1.119-8.585 3.242-11.498 4.599a.376.376 0 0 0-.161.406s.054.192.123.468c-1.426 0-5.696-.207-6.723.767-.16.222-.238.493-.222.766-.061 1.058.468 9.275 1.31 11.69.438 1.264 1.358 1.126 1.986-.085a20.92 20.92 0 0 0 1.388-5.695c0-.1-.024-.092-.016-.161Zm-.881-6.86c.935-.077 1.226-.062 3.234-.123.36 1.364 1.104 4.17 1.488 5.603-1.353.21-2.688.52-3.994.928a41.901 41.901 0 0 1-.728-6.408Z"/><path fill="#000" d="M125.717 41.252c.192-.269-.053-.614-.26-.882a11.534 11.534 0 0 1 1.939-1.602 12.48 12.48 0 0 0 3.212-2.3c.391-.406 1.127-1.241.851-1.732-.276-.49-.767-.521-1.434-.237.289-.304.525-.654.698-1.035.215-.598-.291-1.081-1.388-.636.399-.637.491-1.304-.184-1.626-.544-.26-1.341.36-1.801.767-.903.79-1.751 1.64-2.537 2.545-.483-1.012-1.25-2.177-2.208-1.81-.958.369-.214 2.017.276 2.914l-1.74 1.203a1.616 1.616 0 0 0-.858-.191c-1.978.337-11.061 7.25-11.981 7.25-.705 0-10.778-4.828-19.485-6.223a.292.292 0 0 0-.238-.2 24.52 24.52 0 0 0-4.6-.345.322.322 0 0 0-.237.13h-.644c-.153-.62-.72-2.053-.92-2.605.522-.453 1.242-.683 1.618-1.41.69-1.35.66-3.695.467-5.198.867-.66.89-1.717.69-2.798-.076-.437-.314-1.426-.682-1.67-.207-.139-.644 0-1.02.137-.375-.874-.375-.475-.222-.828.072-.162.113-.336.123-.513.406.122 1.25-.69.958-1.763a6.812 6.812 0 0 0-.56-1.104c.108-.26.338-.575-.383-1.533a2.3 2.3 0 0 0-1.157-.675h-.353a1.954 1.954 0 0 0-1.058-.766 2.553 2.553 0 0 0-1.916.268c-.153.115-.276.268-.43.376a2.215 2.215 0 0 0-2.299 0 1.617 1.617 0 0 0-.904.889 2.859 2.859 0 0 0-2.3.192 5.764 5.764 0 0 0-2.76 3.365 5.71 5.71 0 0 0 0 .651h-.084c-1.15-.169-2.614 2.56-1.44 4.684.137.253.314.49.482.766.49.767.3.997 1.395 1.932.322.276.376.253.575.421.2.169.123.085.238.514a1.972 1.972 0 0 0 .904 1.219c.082.75.401 1.453.912 2.008.162.181.351.336.56.46.056.032.12.05.184.054.23 1.425.514 3.28.636 4.07l-.682.368c-.893.359-1.76.776-2.599 1.25a.321.321 0 0 0-.13.19c-.812.43-1.579.836-2.016 1.097-6.086 3.61-23.371 27.411-23.548 28.5a.321.321 0 0 0 0 .191c.248.396.55.754.897 1.066a2.975 2.975 0 0 1-.383.544c-1.533 1.004-3.833 2.499-5.067 3.833a.666.666 0 0 0 .223 1.126c.23.077.268.054 1.763-.766a4.17 4.17 0 0 0-.99 1.288c-.099.421.284.667.767.59.272-.071.53-.185.767-.337a1.319 1.319 0 0 0 0 1.433c.766.966 2.775-2.077 3.832-2.828.43.544 1.012 1.816 1.94 1.479.805-.299-.077-2.07 0-2.583.312-.3.645-.576.996-.828.592.438 1.268.75 1.986.912 1.264 0 14.464-13.322 15.468-14.388-.36 3.388-2.177 17.93-1.794 20.758.177 1.28 3.25 1.464 4.546 1.533-.391 9.198-.652 23.134-.72 23.28-2.032 4.376-2.584 5.572-3.266 6.898-1.242 2.377-6.47 11.146-7.06 13.139-.084.314-.092.437.238 1.019a31.975 31.975 0 0 0-2.744 3.304c-.422.766 1.387 7.911 2.667 10.44.291.567.767 1.441 1.403 1.418 1.916-.069 1.909-6.952 1.855-8.876a.243.243 0 0 0-.061-.161c.347-.519.726-1.015 1.134-1.487.244.167.5.316.767.444.26.115.552-.084.766-.26 2.553-2.009 16.32-19.164 19.27-27.258 1.342-3.695 3.128-8.8 3.634-12.418.31-2.288.338-4.604.084-6.899a.123.123 0 1 1 .246 0c.384 2.308.458 4.656.222 6.983-.567 5.021-4.53 15.484-6.646 19.332 1.825-.337 5.534-1.073 7.328-1.609 5.98-1.817 11.498-7.237 11.981-13.323.156-2.867.156-5.74 0-8.608a50.772 50.772 0 0 0-1.533-11.736c1.625-.881 3.112-1.916 3.595-2.866 1.035-2.032-1.702-13.721-2.3-17.002 3.274.36 8.846 1.012 11.445-1.02 2.974-2.391 9.397-9.121 13.084-14.295Zm-63.43 91.761c-1.38-.835-3.311-2.821-3.603-4.377.315-.398.644-.766.95-1.18a17.111 17.111 0 0 0 3.834 4.147 15.48 15.48 0 0 0-1.181 1.41Zm60.939-97.18a.186.186 0 0 0 .08-.111.186.186 0 0 0-.018-.135c-.269-.498-1.074-2.254-.514-2.453.322-.123.606.077.843.345.363.46.645.979.836 1.533a.26.26 0 0 0 .2.178.262.262 0 0 0 .252-.093c.766-.851 2.56-2.79 3.572-3.312.766-.398.95.337-.928 2.054-.431.33-.845.68-1.241 1.05a.175.175 0 0 0 0 .207c0 .2.161.422.437.215a20.07 20.07 0 0 1 2.108-1.617 2.754 2.754 0 0 1 1.272-.49c-.23.704-2.369 2.62-2.553 2.835a.3.3 0 0 0 .391.453c.851-.552 2.338-1.84 2.852-1.648.513.191-1.012 1.617-1.395 1.954-2.2 1.909-1.633.682-4.178 3.273a17.642 17.642 0 0 0-3.779-3.127l1.763-1.112ZM89.92 72.495c-.13-1.058-.29-2.2-.49-3.388l.33-.438c1.532-1.97 1.992-5.105 1.847-7.565.82 3.595 1.472 7.129 1.97 10.64l-3.657.75ZM78.522 46.25c-2.016-1.533-5.258-4.178-7.144-5.987l3.066-1.533a38.984 38.984 0 0 1 7.152 8.999 66.987 66.987 0 0 1 6.492 17.209l-10.93-15.461 1.425-2.96a.238.238 0 0 0-.06-.268Zm5.182-8.693c.046.084.575 1.211 1.38 3.181 0 .084-.146 2-.215 2.675a11.935 11.935 0 0 1-2.744-1.533c.168-.667.927-3.694.981-4.377l.598.054Zm-2.721 8.233c.053-.138.107-.322.168-.537l.514.268c.291.192.176-.39.437 1.296 0 .283.076.598.092.943-.353-.637-.79-1.319-1.204-1.97h-.007Zm-.43-.644a37.98 37.98 0 0 0-4.92-5.688l5.771 2.507c-.222.528-.544 2.146-.843 3.18h-.008Zm5.895 4.492c-.766-2.093-1.357-4.431-1.648-5.044a3.19 3.19 0 0 0 0-.575c.11.041.227.067.345.077a.307.307 0 0 0 .307-.261c.06-.253.16-1.533.176-1.817a139.73 139.73 0 0 1 5.573 17.27c-4.331-9.213-3.664-6.546-4.745-9.65h-.008Zm6.34 14.633c-1.748-8.379-4.822-18.826-8.318-26.568 1.284 0 2.566.103 3.833.306.652 5.826.107 5.627.544 5.857.437.23 3.066 1.287 3.457 1.448-.038.59.514 17.47.49 18.957h-.007Zm-8.823-40.22c.4.872.54 1.84.406 2.79a1.349 1.349 0 0 1-2.353.514 11.04 11.04 0 0 1-.82-2.415c.206-.268 2.414-.805 2.767-.89Zm-10.548 7.665a8.718 8.718 0 0 0-.859-.337 1.387 1.387 0 0 1-.582-2.116c.483-.406.92-.383 1.318.222.253.468.246.506.36.552a.255.255 0 0 0 .295-.066.253.253 0 0 0 .05-.095c.114-.48.133-.977.054-1.464-.092-.529-.107-2.874-.092-2.95.224.117.476.173.728.16 1.388-.053 1.664-.766 2.216-1.349.636.061.766.368 1.487 0 .337-.192.647-.43.92-.705.22.09.433.198.636.322a2.384 2.384 0 0 0 2.782-.53c.085.162.161.323.23.492a6.654 6.654 0 0 0-1.962.988c-.13.161.061 1.035.107 1.242a5.192 5.192 0 0 0-1.832.59c-.115-.398-.368-1.142-.766-1.349a.628.628 0 0 0-.368 0c-.69.107-3.166.851-3.465 1.257-.26.284.483 2.476.713 2.837.882 1.364 3.465.965 3.948-.63.12-.534.12-1.089 0-1.624.222 0 .889-.238.966-.26.528 1.187.682 1.256 1.295 2.537-.084.069-.222.183-.337.26-.545.36-.66.3-.629.452a.13.13 0 0 0 .146.092c.321-.046.636-.133.935-.26a.766.766 0 0 0 .414-.368c.215-.483-.974-2.3-1.441-2.844.092 0 .306-.153.467-.238.215.859.36 1.533 1.189 1.87a1.902 1.902 0 0 0 1.486-.06c.123 1.348.1 3.54-.544 4.736-.33.621-1.142.859-1.663 1.373-.153.145-.054.352 0 .575.85 2.368.866 2.36.82 2.667a27.504 27.504 0 0 1-.943 3.756c-.191-.084-2.345-1.226-6.561-2.867-.13-.866-.828-5.488-1.05-6.339.015-.299-.023-.368-.468-.567v.038Zm5.366-3.127c-.246.835-1.403 1.195-2.23.966-.829-.23-.882-.652-1.273-1.649a4.33 4.33 0 0 1-.376-1.203c.253-.276 3.02-.843 3.365-.897a4.14 4.14 0 0 1 .514 2.744v.039ZM48.788 74.61c-.29.284.1 1.211.161 2.016 0 .07 0 .368-.046.391-.421.138-.812-.498-1.05-.882-.237-.383-.475-.904-.85-.766-.767.36-2.545 2.721-3.243 2.966-.353-.674 1.663-2.598 1.732-2.705a.313.313 0 0 0-.29-.476c-.139 0-.23.123-.445.315a8.872 8.872 0 0 1-2.216 1.579c.74-.848 1.53-1.65 2.369-2.4a.33.33 0 0 0 .084-.153s-.16-.406-.475-.245c-.445.245-2.606 1.495-3.289 1.817-.092-.062-.038-.154 0-.246 1.081-1.326 3.458-2.936 4.914-3.955.17-.176.313-.378.422-.598a28.23 28.23 0 0 0 3.219 2.583c-.35.23-.683.483-.997.76Zm17.838 6.968c-.17-.107-.292-.207-.315-.345-.421-3.127 1.924-20.85 1.886-21.547a.307.307 0 0 0-.314-.307c-.391 0 .299 0-9.467 9.352-.644.605-5.565 5.312-6.385 5.626-1.127-.084-5.366-3.465-6.056-4.53C47.31 67.13 63.483 44.931 69.08 41.535c.429-.26 1.165-.666 1.97-1.096.278.263.578.501.896.713 1.779 1.686 4.255 3.787 6.133 5.366l-1.465 2.905a.253.253 0 0 0 0 .253C88.504 66.73 88.326 66.54 88.404 66.54a82.624 82.624 0 0 1 1.418 11.942c0 1.08 0 .989.046.912.046-.076 0 .054 0 .054-1.855 2.024-20.214 3.91-23.241 2.13Zm42.373-25.395c-3.472.483-7.397-.238-8.155-.268a15.114 15.114 0 0 0-2.469-5.68.123.123 0 0 0-.207.13c.445.904 1.932 4.806 2.3 5.756-.115.368 3.465 15.17 2.453 17.163-.905 1.801-6.17 4.07-8.072 4.722-.376-4.267-.99-8.51-1.84-12.71.261-2.207-.076-15.33-.176-20.182a.3.3 0 0 0-.184-.26l-3.441-1.45a50.015 50.015 0 0 0-.345-5.45c8.592 1.488 18.603 6.401 19.439 6.409 1.211 0 10.21-6.899 12.073-7.175.828-.13 4.384 2.974 4.798 3.833-3.633 5.074-10.018 11.743-12.977 14.05a6.717 6.717 0 0 1-3.197 1.112Z"/><path fill="#000" d="M77.993 27.056a.39.39 0 0 0-.766.145c.153.767.184.943.521.943a.383.383 0 0 0 .353-.536 39.246 39.246 0 0 0-.108-.552Zm2.346 5.074c.498.146.973-.092.958-.215-.015-.122 0-.06-.674-.314-.453-.168-.951-.766-1.127-.674-.177.092.092.582.153.674.164.249.407.435.69.529Zm14.02-7.282c-1.004 4.208-1.74 7.78-1.863 8.493a2.3 2.3 0 0 0-.046.95c.406.867 5.657 2.576 6.324 2.239.667-.337 2.399-4.239 4.415-8.263 1.235.04 2.471-.05 3.687-.269a15.628 15.628 0 0 0 3.71-1.172c2.591-1.196 5.427-6.317 5.81-8.892a13.497 13.497 0 0 0-1.694-8.056c-6.431-11.153-25.295-5.151-23.762 7.236a16.265 16.265 0 0 0 3.419 7.734Zm4.675 9.13c0 .122-.138.107-.766 0a10.526 10.526 0 0 1-3.672-1.173c-.536-.292-.682-.353-.628-.483.053-.13.168-.085.996.145.077 0 2.453.767 3.135 1.005.882.398.935.398.935.505Zm-.138-12.472a4.774 4.774 0 0 0 2.369-.49 6.09 6.09 0 0 0 2.177.59c-1.288 2.399-3.902 7.29-4.745 9.895l-3.25-.896c.767-1.886 2.46-6.301 3.434-9.1h.016Zm-.268-.636a2.645 2.645 0 0 1-2.23-2.3c-.215-1.533.766-3.25 2.246-2.844.927.253 1.042.99.881 1.917-.138.674-.636 2.368-.912 3.196l.015.03Zm2.085-1.84c.082-.502.27-.98.552-1.403a1.424 1.424 0 0 1 1.334-.705c.567.169.812 1.242.345 1.916a5.862 5.862 0 0 1-1.648 1.488 1.25 1.25 0 0 1-.598-1.296h.015Zm-7.044-9.743c3.434-4.131 9.896-5.772 14.564-4.07a11.054 11.054 0 0 1 6.002 4.96 12.886 12.886 0 0 1 1.617 7.665c-.352 2.384-3.066 7.336-5.45 8.432a15.705 15.705 0 0 1-6.952 1.41c-.261 0-.537 0-.636.184-.453.92-1.281 2.698-2.093 4.37a11.682 11.682 0 0 0-1.74-.675c.889-2.545 3.695-7.543 5.028-9.965a6.744 6.744 0 0 0 3.373-.583 1.696 1.696 0 0 0 .903-1.58 1.69 1.69 0 0 0-1.049-1.486c-1.188-.582-2.253.813-2.874 1.985-.169.307-.36.667-.575 1.074a6.742 6.742 0 0 1-1.817-.376c.583-.41 1.1-.906 1.533-1.472a2.12 2.12 0 0 0-.076-2.453 1.311 1.311 0 0 0-1.717-.237 3.273 3.273 0 0 0-1.533 3.204c.083.353.273.671.544.912a4.034 4.034 0 0 1-1.587.307c.307-.905.805-2.538.935-3.204.082-.38.1-.772.054-1.158a1.746 1.746 0 0 0-1.295-1.387c-1.863-.53-3.235 1.533-2.967 3.457a3.227 3.227 0 0 0 2.622 2.82c-.982 2.76-2.515 7.214-3.281 9.115l-1.686-.437c1.08-5.427 1.21-5.297 1.057-5.366a15.782 15.782 0 0 1-3.227-7.665 9.965 9.965 0 0 1 2.323-7.78Zm10.639 11.767c.537-.974 1.61-3.105 2.652-2.583a1.233 1.233 0 0 1 .767 1.019c-.015 1.349-2.116 1.587-3.449 1.564h.03Zm29.343 3.38a4.377 4.377 0 0 1 3.066-.521 4.52 4.52 0 0 1 4.438 4.346 3.493 3.493 0 0 0-2.299-.43c-1.924.17-4.438 1.212-4.101 3.067.276 1.533 2.299 1.326 3.832.912 1.534-.414 2.752-1.165 3.067-2.644 1.862 1.356 2.299 3.733 2.376 6.055a.123.123 0 0 0 .245 0c.054-2.598-.414-5.143-2.537-6.623a4.916 4.916 0 0 0-1.407-3.609 4.928 4.928 0 0 0-3.583-1.473 4.598 4.598 0 0 0-3.066.629c-.284.138-.154.345-.031.291Zm6.991 5.496c-.866 1.135-3.319 1.725-4.454 1.533-.421-.069-.766-.245-.858-.682-.276-1.533 2.368-2.369 3.947-2.422a2.93 2.93 0 0 1 1.825.467c-.058.401-.216.78-.46 1.104ZM130.14 15.473c.821-1.012.269-2.775-2.023-2.782-.889 0-1.319.904-1.257 1.77.138 2.062 2.46 2.001 3.28 1.012Zm-2.744-1.05c0-.506.238-1.165.767-1.157 1.234 0 1.801.575 1.801 1.21-.031 1.45-2.668 2.2-2.568-.053Zm-.314 86.902c-6.738-2.69-9.865 10.333-15.369 21.524a6.65 6.65 0 0 0 .046 1.41c0 1.173.13 8.938.812 9.82.184.352.959 0 1.319-.223a60.112 60.112 0 0 0 8.616-6.469.257.257 0 0 0 .05-.09c.011-.033.014-.067.011-.102 1.426-2.031 6.768-12.609 8.064-17.914.904-3.756.008-6.553-3.549-7.956Zm2.407 9.735a28.906 28.906 0 0 1-10.279-3.358c1.793-3.395 4.009-7.266 7.665-5.81 4.07 1.617 3.986 4.967 2.614 9.145v.023Zm-12.755 19.929a4.019 4.019 0 0 0-.767-.505 4.596 4.596 0 0 0-3.35-.322c-.076-.913-.513-6.846-.513-6.899 5.741 2.1 3.97 1.188 9.658 4.016-.598.568-2.844 2.139-5.028 3.695v.015Zm3.955-22.183c.748.409 1.515.779 2.3 1.112a66.983 66.983 0 0 0-4.646 8.631c-1.287 2.69-1.241 2.675-2.552 5.611-.767-.246-1.533-.476-2.3-.706.828-1.648 6.715-13.697 7.198-14.663v.015Zm-4.599 15.43c2.491-4.469 5.028-10.026 7.205-14.219.767.322 1.533.583 2.3.813-.406.766-1.595 2.805-1.909 3.395-.314.591-3.465 6.8-3.687 7.275-.352.766-1.318 2.905-1.617 3.587-.782-.345-1.533-.605-2.323-.866l.031.015Zm2.568.951c.467-.851 2.391-4.423 2.629-4.883.36-.713 4.377-8.922 4.599-9.398.705.2 1.449.368 1.924.46-1.403 3.833-5.442 11.215-6.899 14.856-1.326-.621-1.625-.775-2.284-1.05l.031.015Zm.467-17.262 1.372.766a109.39 109.39 0 0 0-7.205 14.687l-1.15-.353c4.454-9.489 4.661-10.731 6.953-15.116l.03.016Zm3.158 18.964-1.157-.552c1.249-2.453 5.159-8.746 6.945-14.917.429.077.851.146 1.257.199a111.203 111.203 0 0 1-7.075 15.254l.03.016Zm-24.015 4.974a1.892 1.892 0 0 0 .56-2.138 2.373 2.373 0 0 0-2.116-2.071 2.37 2.37 0 0 0-2.484 1.611 319.567 319.567 0 0 0-3.066-1.955c.767-1.019 3.02-.567 3.25.268a.126.126 0 0 0 .05.082.123.123 0 0 0 .174-.028.122.122 0 0 0 .022-.092c-.115-1.334-2.89-2.116-4.01-.544a78.541 78.541 0 0 0-3.242-1.901c.882-.767 2.852-.337 3.066.46.01.027.03.05.055.064a.128.128 0 0 0 .084.014.124.124 0 0 0 .099-.124c-.1-1.242-2.667-2.078-3.833-.713a8.672 8.672 0 0 0-1.533-.675.547.547 0 0 0-.582.108c-1.94 2.414-8.478 8.684-11.498 9.413a.43.43 0 0 0-.342.273.437.437 0 0 0 .066.432 9.548 9.548 0 0 0 2.253 1.694c-.766.766-1.364 1.456-1.809 1.955-.23.245-.352 4.936-.153 5.971.03.101.095.188.184.245.966.659 13.407 6.04 14.68 5.32.85-.483 11.007-11.054 11.168-11.375.245-.506.16-3.879.145-5.228-.061-.406-.82-.843-1.188-1.066Zm-24.529 10.126v-1.709c3.181 1.533 10.463 4.66 13.223 5.534.705.23.766.199 1.134 0 2.108-1.349 9.551-9.735 10.915-11.015v1.618c-4.139 4.146-11.168 11.413-11.298 10.999-.759-.046-13.315-5.12-13.974-5.427Zm24.337-12.709c.276.464.424.993.43 1.533a1.12 1.12 0 0 1-.453.882c-.644-.43-1.862-1.227-3.303-2.162.79-1.556 2.544-1.579 3.296-.253h.03Zm-24.529 4.906c3.266-.966 9.467-6.945 11.552-9.536.502.14.986.338 1.441.59-.767 1.426.054 2.99.345 2.768.161-.123-.13-.169-.176-.92a3.149 3.149 0 0 1 .36-1.579c1.058.552 2.3 1.272 3.35 1.878-.644 1.433.13 2.851.398 2.644.269-.207-.122-.161-.168-.912a3.227 3.227 0 0 1 .276-1.433c1.08.636 2.184 1.295 3.196 1.916a2.575 2.575 0 0 0 .215 2.361.128.128 0 0 0 .132.045.13.13 0 0 0 .092-.105.126.126 0 0 0-.025-.093 2.247 2.247 0 0 1 .038-1.932c1.786 1.088 3.227 2.001 3.672 2.3-.084.076-8.08 7.19-10.8 9.305-1.786-.467-11.161-5.12-13.898-7.297Zm.292 4.269c3.472 1.534 11.36 5.09 13.176 5.435.315.062.437.085 1.035-.391 2.553-2.046 10.854-10.731 10.93-10.639a.216.216 0 0 1 0 .069v1.533c-1.709 1.372-11.214 11.352-11.367 10.877-.766 0-13.222-5.082-13.859-5.366-.015-.322.054-1.18.085-1.518Zm13.958 10.563c-.766.437-12.44-4.308-14.004-5.273a11.8 11.8 0 0 1-.085-1.472c3.358 1.656 13.123 5.779 14.02 5.741 1.311-.069 10.578-10.501 11.238-11.23.007.392-.031.783-.115 1.166-.13.253-10.548 10.785-11.054 11.068ZM24.29 105.809c.054.82.092 1.533.092 2.2a.383.383 0 1 0 .767 0c0-.713-.039-1.418-.092-2.254a.386.386 0 0 0-.41-.356.383.383 0 0 0-.357.41ZM141.086 90.44a.376.376 0 0 0-.352.406c.046.706.092 1.464.092 2.2a.382.382 0 1 0 .766 0c0-.766-.046-1.533-.099-2.253a.38.38 0 0 0-.129-.262.375.375 0 0 0-.278-.091ZM22.305 103.9a.382.382 0 1 0 0-.766c-.928 0-1.702.069-2.468.053a.394.394 0 0 0-.391.384.385.385 0 0 0 .383.383c.79.015 1.656-.015 2.476-.054ZM138.71 88.171c-.92 0-1.694.054-2.468.061a.383.383 0 1 0 0 .767c.828 0 1.686 0 2.514-.061a.381.381 0 0 0 .36-.407.384.384 0 0 0-.406-.36ZM24.083 99.163c.046.705.092 1.464.092 2.2a.392.392 0 0 0 .383.383.382.382 0 0 0 .384-.383c0-.766-.046-1.533-.092-2.254a.384.384 0 1 0-.767.054ZM141.385 86.4c0-.766-.046-1.533-.099-2.253a.384.384 0 0 0-.767.053c.046.706.092 1.465.092 2.2a.385.385 0 0 0 .657.271.391.391 0 0 0 .117-.27ZM29.74 103.801a.386.386 0 0 0 .368-.399.398.398 0 0 0-.399-.368c-.927.038-1.701.069-2.475.054a.383.383 0 1 0 0 .766c.82.016 1.678-.015 2.506-.053Zm116.405-15.73c-.766.039-1.617.062-2.468.062a.374.374 0 0 0-.391.375.39.39 0 0 0 .384.391c.873 0 1.579 0 2.506-.061a.389.389 0 0 0 .267-.123.391.391 0 0 0 .101-.276.404.404 0 0 0-.399-.368Zm-134.02-6.983c.1.077 21.716-3.127 22.644-3.694a.375.375 0 0 0 .153-.33c0-.989-1.295-10.271-1.916-12.586-.077-.284-.154-.568-.33-.667-1.173-.706-21.839 3.188-23.073 3.986a.276.276 0 0 0-.13.184c-.26.927 1.985 12.647 2.652 13.107ZM9.941 68.165c1.471-.667 20.228-4.101 22.375-3.833.52 1.341 1.916 11.168 2.008 12.61-1.066.314-21.907 3.893-21.984 3.909-.077.015-.084.107-.245-.376-.675-2.023-2.193-10.578-2.154-12.31Z"/><path fill="#000" d="M36.455 78.076a.46.46 0 0 0 .054-.253c0-1.219-1.748-14.748-2.369-15.829a.529.529 0 0 0-.468-.253c-2.567-.314-24.23 3.917-25.655 4.906-.2.138-.169.483-.146.85.123 2.017 2.3 15.278 3.066 15.201.084 0 .054-.061-.146.345-1.195 2.46-3.464 10.34-3.418 11.927 0 .667.153 1.533.812 1.487 4.73-.582 27.917-4.262 34.586-5.634.26-.053.43-.291.422-.682a5.367 5.367 0 0 0-.583-1.863c-.935-1.755-4.814-8.707-6.155-10.202ZM10.983 82.46c-.598-.766-2.798-13.973-2.63-15.438 1.687-.873 23.058-5.005 25.296-4.668.614 1.687 2.2 13.867 2.3 15.331-2.713.935-21.501 3.97-24.966 4.775Zm.337.23c.644-.16 22.575-3.832 24.583-4.361 1.096 1.02 6.048 9.827 6.37 10.578-4.4.767-30.5 5.128-34.34 5.71.053-2.322 2.437-10.44 3.387-11.927Z"/><path fill="#000" d="M14.202 90.64c.667-.1 14.817-1.802 19.93-3.19a.123.123 0 0 0-.061-.237c-1.004.207-13.253 1.84-19.884 3.189a.122.122 0 0 0-.135.074.123.123 0 0 0 .044.148.123.123 0 0 0 .106.015Zm10.34-53.336a15.159 15.159 0 0 0-.72 1.993.437.437 0 0 0 .085.307c.774 1.165 8.707 10.11 10.777 11.367.284.177.621.3.828.046a13.905 13.905 0 0 1 5.695-4.208 18.788 18.788 0 0 1 5.642-1.065c1.533-.138 1.801-.292 2.392-1.296a12.71 12.71 0 0 1 2.728-3.51 21.558 21.558 0 0 1 4.669-3.113.392.392 0 0 0 .184-.444 8.29 8.29 0 0 0-1.02-1.855c.276-.092.583-.176.583-.452 0-.767-6.685-10.44-8.54-12.265-.191-.192-.467-.445-.72-.43-3.833.215-7.566 3.833-9.727 6.992-2.476-.092-4.078-.315-6.9.873a15.712 15.712 0 0 0-5.273 3.664c-.23.238-1.794 1.894-1.817 2.024-.023.13.023.13 1.135 1.372Zm30.662-.214c-3.196.544-5.235 3.204-6.738 6.093-.667 1.288-.605 1.35-1.31 1.334a19.713 19.713 0 0 0-3.695.138c-.898.134-1.781.355-2.637.66-1.947.69-4.178 2.897-5.366 4.537a.3.3 0 0 1-.444.039c-2.492-2.568-6.9-7.075-9.114-9.666-.108-.115.076-.284.184-.161 1.433 1.533 5.135 5.205 9.106 9.198 1.341-1.71 3.411-3.779 5.458-4.5a14.267 14.267 0 0 1 3.457-.766 21.916 21.916 0 0 1 3.319 0c.452-.521 2.69-6.439 7.765-7.098a.124.124 0 0 1 .05.094.122.122 0 0 1-.043.098h.008ZM47.117 23c1.533 1.074 7.773 10.31 8.585 11.928a21.945 21.945 0 0 0-4.062 1.755 9.199 9.199 0 0 0-4.86 6.24c-2.752-4.477-6.592-9.405-9.145-13.031.154-.1 4.461-6.592 9.482-6.891Zm-16.45 7.666c2.798-1.127 4.347-.866 6.662-.767 2.3 3.925 6.43 9.46 9.152 13.085a10.371 10.371 0 0 0-7.412 1.02c-1.357.766-3.013 2.606-4.032 3.748-1.472-1.18-9.965-10.226-11.33-11.759 2.1-2.376 4.04-4.162 6.96-5.358v.031ZM16.64 50.16a1.196 1.196 0 0 0-1.303-.046 1.206 1.206 0 0 0-.338 1.974 1.205 1.205 0 0 0 1.319.226 1.166 1.166 0 0 0 .322-2.154Zm-.506 1.533c-.537.169-.859 0-.989-.26-.245-.545.062-1.38.859-1.135.56.207 1.011 1.15.13 1.433v-.038Zm39.484-36.61c.222.453 1.257.284 1.71.138.237-.076.39-.16.413-.39.07-.575.146-5.558-.115-6.04a.291.291 0 0 0-.283-.154 8.287 8.287 0 0 0-2.415.353c-.314.191.414 5.588.69 6.093Zm-.529-5.91a11.221 11.221 0 0 1 2.139-.1c.046.568-.077 5.482-.085 5.558-.323.116-.67.158-1.011.123-.054-.176-.146-.652-.261-1.25a41.096 41.096 0 0 1-.782-4.33ZM15.896 43.69a.52.52 0 0 0 .476 0c.296-.182.53-.45.674-.766a.314.314 0 0 0-.046-.307c-.368-.437-4.384-5.09-4.875-4.798a14 14 0 0 0-1.71 1.303.207.207 0 0 0-.068.153c-.016.399 4.446 3.97 5.55 4.415Zm-3.679-5.672c.56.406 2.445 2.737 4.193 4.799a1.355 1.355 0 0 1-.276.314 47.568 47.568 0 0 1-5.25-3.894c.415-.437.86-.844 1.333-1.219Zm12.042-16.91c.169-2.974 1.901-4.354 3.71-4.706-.513 1.886-.429 4.338 1.434 4.653.889.145 1.326-.314 1.97-.851 2.751-2.3.529-4.6-2.576-4.438 1.158-3.174 3.833-5.757 7.382-5.841a.123.123 0 0 0 0-.246c-3.833-.076-6.845 2.683-8.033 6.133-2.047.352-4.078 1.885-4.132 5.25a.123.123 0 0 0 .02.094.125.125 0 0 0 .225-.048Zm4.362-4.798c1.142-.077 2.844.276 3.311 1.31.268.59 0 1.32-.95 2.116a3.755 3.755 0 0 1-.874.652c-1.15.49-2.422-.928-1.487-4.078Zm2.192 108.41a5.762 5.762 0 0 0-6.111 2.138 5.743 5.743 0 0 0-.964 2.063 5.975 5.975 0 0 0 9.057 6.319 5.977 5.977 0 0 0 2.617-3.751 5.765 5.765 0 0 0-4.599-6.769Zm2.369 6.248a5.297 5.297 0 0 1-5.627 3.986 5.277 5.277 0 0 1-3.25-5.956 5.366 5.366 0 0 1 5.657-4.155 5.365 5.365 0 0 1 3.189 6.125h.03Z"/><path fill="#000" d="M41.024 126.904a4.13 4.13 0 0 0-2.078-.161c-.288-.66-.642-1.29-1.058-1.878.499-.452 1.863-1.709 1.534-2.3a16.914 16.914 0 0 0-4.124-3.564 5.635 5.635 0 0 0-2.108-.682c-.491.069-1.656 1.977-1.917 2.407-.168 0-.766-.192-.812-.215 0-.552-.161-2.545-.66-2.775a7.874 7.874 0 0 0-1.724-.421c-.544-.085-5.443.812-5.803 1.471-.237.445.314 2.124.476 2.591-.414.228-.81.484-1.189.767-.766.544-.56.521-.697.46a1.687 1.687 0 0 0-.53-.154 3.068 3.068 0 0 0-2.03-.383c-.706.23-2.369 4.017-2.637 4.99a1.535 1.535 0 0 0-.07.767c.185.506 1.411.912 1.925 1.073a10.449 10.449 0 0 0 0 2.974c-.675.184-2.078.598-2 1.288.076.69 1.87 5.243 2.613 5.603a3.354 3.354 0 0 0 2.698.253c.25-.124.49-.265.72-.422.307.23.63.437.959.637-.238.59-.767 1.908-.598 2.506.084.314.337.414.69.544.973.353 6.216 1.61 7.014 1.472.299-.046.46-.36.552-.659.17-.68.27-1.377.298-2.077.394-.039.785-.098 1.173-.177.237.417.54.792.897 1.112.391.276.72.138 1.165-.146.215.276.537.659.882.698.866.099 4.446-3.273 4.813-3.963.307-.575-.812-1.602-1.31-2.055a10.46 10.46 0 0 0 1.257-2.621 8.897 8.897 0 0 0 1.67.092c.254 0 .545-.092.652-.33.468-1.065.33-5.105 0-6.132-.046-.299-.39-.498-.643-.59Zm.184.705c.26.997.345 4.76-.039 5.734a6.922 6.922 0 0 1-1.985-.092.282.282 0 0 0-.322.207 9.833 9.833 0 0 1-1.403 2.897.285.285 0 0 0 .046.391c.538.426.995.946 1.35 1.533-.384.629-3.381 3.373-4.209 3.603-.123 0-.46-.46-.544-.583-.283-.425-.54-.868-.767-1.326a.297.297 0 0 0-.375-.145c-2.223.835-3.067.344-3.067.896a7.543 7.543 0 0 1-.398 2.43 24.445 24.445 0 0 1-5.29-1.18 6.893 6.893 0 0 1 .675-2.353c.23-.514-.69-.368-2.406-2.116a.3.3 0 0 0-.407 0c-.766.629-1.763 1.242-1.962 1.142-.391-.192-2.192-4.277-2.3-5.105a4.753 4.753 0 0 1 1.817-.767.3.3 0 0 0 .215-.329 9.619 9.619 0 0 1 0-3.281.271.271 0 0 0-.2-.307 7.063 7.063 0 0 1-1.655-.666c-.169-.123-.154-.115-.138-.246a16.448 16.448 0 0 1 2.353-5.005c.414-.115 1.533.705 1.916.996a.215.215 0 0 0 .3 0c.351-.365.73-.703 1.134-1.011 1.165-.882 1.48-.767 1.38-1.074a6.456 6.456 0 0 1-.583-2.445c.119-.099.253-.176.398-.23.716-.283 1.451-.513 2.2-.69a12.791 12.791 0 0 1 2.783-.452c.16.069.306.767.345.981.284 1.533.092 1.848.314 1.871 2.185.214 2.63.82 2.783.551.425-.743.92-1.444 1.479-2.092.161-.161.153-.238.636.038a17.121 17.121 0 0 1 3.833 3.427c.115.199-.882 1.257-1.61 1.878-.253.222.107.322.767 1.579.659 1.257.506 1.609.858 1.533a7.297 7.297 0 0 1 2.078-.192Zm106.386-64.051a20.127 20.127 0 0 0-5.013-1.326c-1.257-.2-2.736-.399-3.986-.56 1.204-1.702 4.768-6.01 5.366-7.06.169-.283-.153-.682-.391-.92-1.334-1.425-3.909-1.962-5.887-2.268-1.134-.184-5.872-.767-6.676-.384-.966.46-8.11 11.192-8.325 12.824 0 .276.092.384.36.483 1.127.414 6.209 1.058 7.344 1.326-1.533 2.683-8.348 11.751-9.015 13.031-.161.322-.061.514.131.575.689.274 1.399.495 2.123.66.276.084.881-.292 1.763-.828 3.955-2.377 20.926-13.583 22.229-15.032a.337.337 0 0 0 .108-.266.336.336 0 0 0-.038-.142.335.335 0 0 0-.093-.113Zm-16.472 9.198c-6.516 4.3-8.716 5.558-8.793 5.611 1.051-1.602 7.574-10.54 8.693-12.678a.316.316 0 0 0-.001-.264.316.316 0 0 0-.084-.106.314.314 0 0 0-.122-.06c-.767-.275-6.347-.873-7.665-1.341.168-1.426 7.128-12.203 7.972-12.632.843-.43 9.022.544 10.555 1.64-.805 1.571-5.251 7.075-5.972 8.355-.145.26-.191.514.092.583.284.069 7.489.912 9.061 1.425-1.917 1.602-11.59 8.026-13.736 9.436v.031ZM81.949 25.89c0 .07.046.154.16.598a.391.391 0 0 0 .476.261.384.384 0 0 0 .26-.475 8.466 8.466 0 0 0-.191-.675.383.383 0 0 0-.705.291Z"/></svg>