<svg xmlns="http://www.w3.org/2000/svg" width="154" height="154" fill="none"><path fill="#000" d="M83.793 50.321c-.636.327.413 1.497.655.587.038-.28-.369-.734-.655-.587ZM87.484 49.298c.039-.28-.368-.731-.654-.586-.635.331.412 1.497.654.586ZM51.102 96.2a.384.384 0 0 0 .175.746 42.363 42.363 0 0 1 33.494 6.292.387.387 0 0 0 .366-.269.382.382 0 0 0-.149-.43 42.726 42.726 0 0 0-33.886-6.34Z"/><path fill="#000" d="M87.3 100.126c-8.787-5.494-18.606-9.188-29.024-7.655a.383.383 0 0 0 .099.76 37.295 37.295 0 0 1 18.951 2.452 75.38 75.38 0 0 1 9.568 5.094.382.382 0 0 0 .576-.412.385.385 0 0 0-.17-.239Z"/><path fill="#000" d="M65.135 89.676a.383.383 0 1 0 .028.766 36.347 36.347 0 0 1 24.327 8.212c.374.319.88-.28.487-.593a37.42 37.42 0 0 0-24.842-8.385Z"/><path fill="#000" d="M63.027 86.885a.385.385 0 0 0 .056.767 41.585 41.585 0 0 1 29.512 9.375c.37.32.882-.28.486-.592a42.473 42.473 0 0 0-30.054-9.55Z"/><path fill="#000" d="M66.754 85.165a34.403 34.403 0 0 1 28.607 9.357c.345.349.9-.207.533-.55a35.29 35.29 0 0 0-29.247-9.566.384.384 0 0 0 .107.759ZM27.47 86.923c-2.08.502-2.24 3.418.111 3.45 3.173.017 3.243-4.261-.11-3.45Zm1.61 1.988a1.9 1.9 0 0 1-1.895.637c-1.045-.383-.56-1.623.52-1.896.839-.403 1.956.414 1.374 1.259h.001ZM117.343 96.733c-.428 0-.623 0-1.736 7.061a415.514 415.514 0 0 0-1.127 7.619c.047.79 1.58.419 2.128.537 12.739-.157 13.047-14.269.735-15.217Zm6.696 11.603c-2.211 2.444-5.897 3.04-8.745 2.787.451-3.296 1.779-12.219 2.26-13.615 5.978.298 10.777 6.082 6.485 10.828ZM149.311 42.486c-1.421-1.067-3.104-.16-4.379-1.294a1.26 1.26 0 0 0-.968-.356 1.269 1.269 0 0 0-.912.481 3.269 3.269 0 0 0-.725 1.903c-4.516 4.652-9.865 8.247-18.244 10.276a21.99 21.99 0 0 0 4.234-6.165c2.53-6.17-7.721-10.885-12.188-12.006-.198-.836.408-2.171.654-3.028.279-1.13-.537-1.687-1.135-1.38-1.472.486-2.179 2.11-3.034 3.228-1.67 2.223-.41 2.893 1.552 3.897a.36.36 0 0 0 .063.507c1.014 1.008 5.979 4.955 4.042 6.458-1.049.81-4.191 3.238-6.016 4.79-3.559-.172-5.112-.18-7.411.216a.128.128 0 0 0-.103.116.124.124 0 0 0 .021.079c.015.023.038.04.065.05 6.78 3.27 7.999 12.03 5.807 18.282 1.505-.104 4.143.064 5.393-.518 4.722-.468 11.397-1.763 14.912-3.761a27.679 27.679 0 0 0 13.956-19.145 29.979 29.979 0 0 1 4.21-1.226c.664-.104 1.15-1.07.206-1.404Zm-30.169-5.332c4.13 1.616 10.331 5.586 8.477 9.859a21.192 21.192 0 0 1-5.01 6.844c-.75.182-1.739.377-2.506.547a53.343 53.343 0 0 0 6.078-7.235 4.564 4.564 0 0 0 .929-2.246c-.393-2.679-2.913-3.443-4.996-4.867a28.733 28.733 0 0 1-3.106-2.002c.089-.292.135-.595.134-.9Zm-4.206.441-1.646-.901c-.415-.224-.843-.578-.632-1.09a20.116 20.116 0 0 1 1.686-2.593 3.077 3.077 0 0 1 1.665-1.394c.055.027.094.248.046.45a14.207 14.207 0 0 0-.793 3.164 1.356 1.356 0 0 0 .383 1.241 1.915 1.915 0 0 1-.709 1.123Zm1.027 1.479c-.266-.245-.519-.498-.776-.718a2.656 2.656 0 0 0 1.265-2.136c.604.183 1.24.395 1.877.627.318 1.41-1.033 2.904-2.366 2.227ZM111.342 50.5c.417-.038.911.202 1.287-.01 1.787-1.534 5.042-4.048 6.09-4.858 2.123-1.708-.494-4.211-1.88-5.654a2.199 2.199 0 0 0 1.863-1.196c2.093 1.857 7.002 3.277 7.643 6.1a3.808 3.808 0 0 1-.786 1.84 52.734 52.734 0 0 1-6.314 7.464c-.379-.46-1.297-1.569-1.79-.881a.388.388 0 0 0-.003.294.38.38 0 0 0 .205.21c.463.218.848.574 1.103 1.019.258.96 1.93.145 2.616.089 8.101-1.616 15.401-4.96 19.749-9.506.503.117.958.384 1.303.767-4.362 10.904-13.478 17.256-25.044 17.501.392-5.047-1.196-10.72-6.042-13.18Zm27.722 5.902c-5.077 7.19-13.094 9.805-22.14 10.751.241-.882.377-1.79.403-2.704 11.796-.224 21.113-6.63 25.658-17.64 1.367 1.726-2.629 7.766-3.921 9.593Zm4.818-10.176c-.034.137-.077.271-.113.407a4.184 4.184 0 0 0-2.053-1.844c.357-.354.851-1.12 1.365-.924a1.583 1.583 0 0 1 .98.984 1.581 1.581 0 0 1-.179 1.377Zm.838-1.89a3.489 3.489 0 0 0-1.389-1.196c-.525.012.143-1.17.311-1.339.51-.894 1.97 1.57 4.599 1.517a33.388 33.388 0 0 0-3.521 1.017ZM86.167 48.253c.36-.1.772-.356 1.098-.182a.384.384 0 0 0 .284-.712c-.453-.221-1.98-.114-1.711.709a.384.384 0 0 0 .329.185ZM83.358 50.29a1.42 1.42 0 0 1 .48-.718.384.384 0 0 0-.46-.613c-.37.29-.638.691-.762 1.144a.383.383 0 0 0 .742.187ZM87.213 52.252c-.356.346.196.898.542.542.154-.153.284-.3.416-.451-.194.336-.41.787.167.873.753-.215.767-1.336.3-1.862-.594-.509-1 .606-1.425.898ZM85.664 52.052c.452.213 1.42-.521.868-.986-.247-.194-.537.076-.648.25-.214-.24.284-1.9-.429-1.872a.383.383 0 0 0-.383.383c.05.618-.245 2.031.592 2.225Z"/><path fill="#000" d="M133.408 98.32c-2.512-5.086-8.815-8.098-16.199-9.317 3.06-2.756 4.279-3.896 4.355-4.047.313-1.242.097-5.54.704-6.683a.412.412 0 0 0-.126-.47 52.8 52.8 0 0 0-13.709-6.683c4.274-6.736 2.461-18.828-6.397-21.107 1.67-2.383-.072-6.024-2.996-5.784a34.964 34.964 0 0 0-5.758.565c.484-.408.23-1.303-.116-1.631 1.555-.875-.417-3.63-1.916-3.491.076-1.18-.747-3.338-2.13-2.398a5.804 5.804 0 0 0-1.513-1.522c-.774-.46-1.769-.566-2.196.268a5.322 5.322 0 0 0-2.11-.787c-.976-.014-1.84.613-1.722 1.488-1.037-.23-2.177-.12-2.741.92-.273.624.344.979-.626.933-1.359.123-2.223 1.975-.843 2.845-1.506.344-2.683 3.072-.632 3.502-.725.997-1.222 2.482-.395 3.486-10.65 1.783-19.14 3.267-27.168 4.856-3.874 1.746-6.774 4.046-10.488 5.979a.383.383 0 0 0-.173.498c.566 1.245 10.894 2.146 12.959 2.317a267.268 267.268 0 0 0 28.192-5.647c-3.249 2.599-7.89 5.027-8.293 9.663-10.162-1.156-19.64.316-27.666 5.43-13.58 8.06-27.656 16.142-40.232 26.121.355 2.338 1.15 4.696 1.268 6.894a.386.386 0 0 0 .322.345.388.388 0 0 0 .246-.043.389.389 0 0 0 .167-.185c9.083-2.657 19.351-2.724 28.756-.641 7.653 1.343 5.127 4.936 7.448 5.443.139.034 2.723.355 2.76.313.485-.042.703-.594.69-.974.275-3.526 2.356-3.609 5.72-3.449 15.682 1.018 21.328 3.595 34.33 11.881a.364.364 0 0 0 .332.036.363.363 0 0 0 .226-.247c7.73-6.898 19.099-16.923 24.159-21.463-1.947 7.981-3.725 16.055-5.733 26.008a.373.373 0 0 0 .002.156.375.375 0 0 0 .178.249.385.385 0 0 0 .147.051c7.964 1.018 18.261 1.268 24.559-3.8 6.002-4.507 8.086-13.328 4.358-19.878Zm-34.35-53.325c2.715-.02 3.635 2.98 2.159 4.814a14.448 14.448 0 0 0-3.196-.384 4.378 4.378 0 0 0-1.425-4.296c.809-.077 1.631-.127 2.462-.134Zm-2.201 15.268c-.215-.98.65-1.126.865-.14a18.656 18.656 0 0 1-.963 8.908 23.648 23.648 0 0 0-11.405 1.303 27.127 27.127 0 0 0-3.751-1.713c1.95-1.406 4.433-3.38 6.346-4.669a13.272 13.272 0 0 0 7.717 4.553.4.4 0 0 0 .374-.3 17.568 17.568 0 0 0 .817-7.942Zm-3.918-11.121a3.427 3.427 0 0 0-.091-3.497c.813-.128 1.708-.316 2.606-.383a3.616 3.616 0 0 1 1.763 4.209c-1.325.11-3.937.37-4.83.46-.336-.245.481-.42.552-.79Zm-9.998-1.389c1.132.479 2.195-.522 2.633-1.571a1.916 1.916 0 0 0 2.277-.658.981.981 0 0 0 1.043.169c.222.371.735 1.047 1.13 1.556-.027.313.03.628.165.912a.906.906 0 0 0 1.71-.291c-.006-.103.291-.098.39-.312a1.09 1.09 0 0 0 .23-.753c.176.735.113 2.1-.77 2.31-.299.017-.581.384-.404.662a13.434 13.434 0 0 0 2.448 3.041c.264 2.21-3.143 5.04-4.54 2.327.513-.463.697.137 1.1.48.23.23.62-.152.388-.387a4.094 4.094 0 0 1-.775-.853c-.077-.153-.23-.153-.388-.077a4.063 4.063 0 0 1-2.947.776 4.505 4.505 0 0 1-2.83-2.14c-.062-.37-.166-.988-.663-1.226-.583-.42-.742-1.386-1.039-2.049.41-.574.696-1.226.842-1.915Zm4.002 7.883c-1.872 1.137-4.676-.507-4.808-2.618a.661.661 0 0 1 .671-.613c.184.124.219.604.268.822.131.524.761 1.36 1.24 1.164a4.062 4.062 0 0 0 2.63 1.245Zm-44.364 4.6a21.011 21.011 0 0 1-2.974-.624c1.035-.328 2.063-1.84 3.106-1.039.193.287-.275.421-.276.686-.065.442.494.355.654.638a.677.677 0 0 1-.51.344v-.006Zm8.815 1.039a132.67 132.67 0 0 1-7.716-.868.869.869 0 0 0-.264-1.266 1.006 1.006 0 0 0-.607-1.412 58.643 58.643 0 0 1 6.592-3.733 3.966 3.966 0 0 1 1.995 7.285v-.006Zm1.38-.186a4.726 4.726 0 0 0-1.597-7.446c7.904-1.514 16.4-3.015 27.026-4.773.027.742.65 1.68 1.465 1.281.23-.153.235-.362.45-.033a1.03 1.03 0 0 0 1.533.085c.196.518.428 1.021.694 1.507-1.258.409-1.123 1.946-.497 2.882-.296.198-.575.42-.832.667a267.798 267.798 0 0 1-28.24 5.836l-.002-.006Zm-11.133 47.388a.374.374 0 0 1-.292-.026.386.386 0 0 1-.189-.224 8.763 8.763 0 0 0-8.092-6.138.385.385 0 0 1 0-.767 9.5 9.5 0 0 1 8.82 6.678.382.382 0 0 1-.247.477Zm.204-3.373c-5.247-8.202-26.971-9.363-36.004-8.378 11.428-8.722 23.992-16.137 36.156-23.322 8.569-5.79 18.397-7.932 29.363-6.56.178 2.278 1.95 2.496 4.029 2.573 3.181 0 6.925-3.553 8.32-6.81a31.762 31.762 0 0 0 2.385-5.856c.39-.054.766-.18 1.11-.37-1.96 4.077-2.692 9.215-6.532 11.962-.354.257-.054.672.237.825 1.333.519 2.472.996 3.596 1.566-1.493.64-3.04 1.84-4.492 2.33-8.058-5-19.218-4.958-28.57-3.297-8.55 4.058-15.777 9.65-24.039 14.231-5.26 3.05-10.7 6.204-15.899 9.618a.383.383 0 0 0 .23.703 58.803 58.803 0 0 1 21.655 2.62c3.087.96 6.87 2.477 8.769 5.706a7.082 7.082 0 0 0-.314 2.458v.001Zm5.05-22.08c-7.614 1.864-6.523-.819-4.952-6.998 4.466-2.459 8.023-6.001 13.54-6.132 8.33-.614 16.975-.587 23.859 3.666a217.632 217.632 0 0 0-9.743 5.864c-.582.252-1.127.986-1.748.873a102.297 102.297 0 0 0-20.956 2.725v.001ZM66.978 81.1a217.88 217.88 0 0 0-7.67 5.25c-.868-.115-2.679.552-3.242-.097-.746-1.054-.536-2.792-.635-4.052 3.826-.572 7.68-.94 11.546-1.103l.001.002ZM33.626 96.21a59.99 59.99 0 0 0-20.505-2.728c9.223-5.869 18.766-11.038 27.903-16.886-2.04 6.882-1.15 9.054 6.065 7.17a113.228 113.228 0 0 1 7.597-1.457 17.08 17.08 0 0 0 .16 2.847c.213 1.955 1.57 2.408 3.268 2.045a126.552 126.552 0 0 0-11.831 9.86 14.756 14.756 0 0 0-3.778 4.697c-2.148-3.152-6.065-4.663-8.88-5.55v.002Zm27.799 8.964a.385.385 0 0 1-.477.258c.096-.119-18.417-4.705-16.778 3.066a.384.384 0 0 1-.749.166c-.805-3.254 2.377-5.579 6.429-5.452 3.822-.022 7.629.477 11.316 1.483a.39.39 0 0 1 .228.186.38.38 0 0 1 .03.292v.001Zm11.263-.659a.383.383 0 0 1-.485.241c-.077-.026-7.902-2.641-13.66-3.444-6.118-.852-12.387.46-14.271 2.985-.282.404-.925-.063-.614-.46 2.358-3.162 9.48-4.054 14.992-3.286 5.826.813 13.722 3.45 13.798 3.476a.384.384 0 0 1 .239.486l.001.002Zm11.728 2.19a26.023 26.023 0 0 0-8.59-4.753 50.712 50.712 0 0 0-17.656-2.968c-4.26.221-13.498.613-15.573 5.463.134-2.745 2.05-4.892 4.209-6.823 10.148-9.727 25.615-19.623 37.757-26.07 2.947-1.571 6.964-2.182 11.932-1.819-.287.422-.544 1.826-1.046 1.644a36.03 36.03 0 0 0-8.23-.158.383.383 0 0 0-.35.417.384.384 0 0 0 .416.35 35.34 35.34 0 0 1 7.982.144c-.472.769-1.004 1.5-1.59 2.185a.375.375 0 0 0-.23-.141 30.79 30.79 0 0 0-8.482-.237.387.387 0 0 0-.067.753c.049.014.1.019.15.013 2.72-.3 5.469-.228 8.17.216-.61.635-1.368 1.851-2.224 1.98-.224-.121-8.755-1.959-6.482-.256 1.967.133 3.919.43 5.836.891-.882.758-2.318.547-3.188 1.254-.441.18-.727.697-.481 1.018-.844-.135-6.982-1.303-7.021-.288a.383.383 0 0 0 .383.383c.986.11 7.376-.005 6.041 1.188-.332.473-.444 1.537.32 1.604.188-.072.015.52.207.718a35.09 35.09 0 0 0-15.832-2.18.385.385 0 0 0 .072.766c10.667-1.1 21.045 3.239 28.425 10.705a.384.384 0 0 0 .28-.646 34.78 34.78 0 0 0-12.146-8.314c.197-.095.361-.247.471-.436a.671.671 0 0 0 1.138.452 11.842 11.842 0 0 1 2.063-1.858 28.625 28.625 0 0 1 10.243 6.882.374.374 0 0 0 .27.128.388.388 0 0 0 .28-.105.379.379 0 0 0 .119-.274.384.384 0 0 0-.113-.277 29.354 29.354 0 0 0-9.526-6.643 16.1 16.1 0 0 0 5.356-1.38 34.498 34.498 0 0 1 8.126 5.694.376.376 0 0 0 .276.112.384.384 0 0 0 .25-.67 35.356 35.356 0 0 0-7.757-5.535 24.844 24.844 0 0 0 3.638-2.056 32.211 32.211 0 0 1 7.859 5.435c.354.347.894-.222.525-.558a33.001 33.001 0 0 0-7.675-5.375c.914-.678 1.77-1.43 2.56-2.25A36.373 36.373 0 0 1 113 79.516a.38.38 0 0 0 .285.075.387.387 0 0 0 .32-.284.396.396 0 0 0-.14-.404 37.393 37.393 0 0 0-7.393-4.47 19.339 19.339 0 0 0 1.976-2.626 51.792 51.792 0 0 1 13.031 6.214c-2.173 1.204-11.881 9.045-15.689 11.82-1.554 1.14-20.894 16.778-20.974 16.862v.002Zm4.966-25.914c-.729-.471-1.863 1.467-2.102 1.975a4.156 4.156 0 0 1 1.375-2.177.388.388 0 0 0-.448-.63c.21-.126.429-.234.657-.32a.383.383 0 0 0-.06-.734c1.35-.621 2.452.69 2.662 1.884a8.188 8.188 0 0 0-2.796 2.268c.105-.64.362-1.244.75-1.763a.384.384 0 0 0-.04-.504l.002.001Zm-3.67 35.218-.275-3.924a50.488 50.488 0 0 1 6.829-5.181.384.384 0 0 0-.412-.647 51.65 51.65 0 0 0-6.485 4.865l-.1-1.43 18.744-15.3a.387.387 0 0 0 .139-.26.376.376 0 0 0-.084-.28.38.38 0 0 0-.259-.14.387.387 0 0 0-.281.085l-18.325 14.961-.104-1.483c9.852-7.622 10.291-9.133 27.51-21.948 2.027-1.577 6.541-5.255 8.724-6.593a23.892 23.892 0 0 0-.351 3.951l-9.775 7.929a.385.385 0 0 0-.12.425.385.385 0 0 0 .361.255c.206 0-.53.537 9.505-7.595-.015.44-.03.801-.043.866-.729.897-28.318 25.336-35.197 31.442v.002Zm46.191-9.434 2.572.135a15.018 15.018 0 0 1-3.658 8.756c-.562-.465-2.069-2.3-2.63-1.647a.384.384 0 0 0 .118.529 10.83 10.83 0 0 1 1.993 1.682 17.363 17.363 0 0 1-7.722 4.59l-.676-2.433a.384.384 0 0 0-.738.206l.682 2.453a29.828 29.828 0 0 1-8.854.943l.388-2.594a.376.376 0 0 0-.078-.274.38.38 0 0 0-.524-.079.383.383 0 0 0-.155.24l-.405 2.698a68.735 68.735 0 0 1-7.212-.488c2.055-10.169 3.874-18.379 5.886-26.569 2.223-2.175 4.327-3.867 5.785-5.242.192.414.818.28 1.189.415-.092.597-.831 2.817.022 2.948a.385.385 0 0 0 .383-.384 8.944 8.944 0 0 1 .351-2.417 31.081 31.081 0 0 1 6.55 2.04l-1.331 2.195a.392.392 0 0 0-.044.29.382.382 0 0 0 .315.287.382.382 0 0 0 .386-.18l1.372-2.265c2.9 1.463 5.033 3.172 6.507 5.64l-1.942.97a.374.374 0 0 0-.201.22.377.377 0 0 0 .246.492.382.382 0 0 0 .297-.027l1.979-.988a14.627 14.627 0 0 1 1.744 7.221l-2.555-.134a.382.382 0 0 0-.277.099.384.384 0 0 0 .237.67v.002Z"/></svg>