<svg xmlns="http://www.w3.org/2000/svg" width="154" height="154" fill="none"><path fill="#000" d="M74.33 73.157a1.165 1.165 0 0 0 .85-2.162 1.588 1.588 0 0 0-1.456.153 1.165 1.165 0 0 0 .605 2.009Zm-.437-1.18c0-.645 1.28-.721 1.402 0 .238 1.004-1.44.942-1.402 0Zm-.46-47.878c-1.18 1.387-.897 3.173.958 4.047.42-.108.848-.18 1.28-.215.492.033.982.102 1.464.207a2.751 2.751 0 0 0 1.242-3.066 2.829 2.829 0 0 0-4.944-.973Zm-.43 13.307a.2.2 0 0 0-.39 0c-.058.427-.09.857-.1 1.288a.307.307 0 0 0 .582 0c.039-.13-.092-1.158-.092-1.288Zm6.048.138a.2.2 0 0 0-.39 0c0 .107-.13 1.142-.093 1.288a.307.307 0 0 0 .583 0c.038-.146-.1-1.173-.1-1.288Zm-5.994-2.66c-.92-.077-1.341 1.349-1.357 1.41a.173.173 0 0 0 .246.202.172.172 0 0 0 .084-.102c.046-.115.537-.95 1.111-.92.292.023.437-.552-.084-.59Zm6.224 1.617a1.326 1.326 0 0 0-.927-1.195.301.301 0 0 0-.153.582 1.202 1.202 0 0 1 .766.85.164.164 0 0 0 .314-.091s.016-.084 0-.146Zm-3.549 4.07a.154.154 0 0 0 0-.29c-.352-.07-.766-.093-.766-.438.04-.43.107-.858.199-1.28a.16.16 0 0 0-.307-.084 6.978 6.978 0 0 0-.398 1.533c.015.46.506.805 1.272.56Zm.958 1.005a1.68 1.68 0 0 1-1.333.536 1.234 1.234 0 0 1-.836-.552.17.17 0 0 0-.23-.069.17.17 0 0 0-.069.23 1.625 1.625 0 0 0 2.852.184c.1-.253-.177-.513-.384-.33Zm-.084 45.547a.115.115 0 0 0 .13 0c.82-.514 6.991-5.42 7.497-5.856a.116.116 0 0 0-.012-.179.115.115 0 0 0-.065-.02s-12.647-.246-14.878-.323c-.13 0-.153.138-.084.2.406.398 5.304 4.56 7.412 6.178Zm26.645 59.046c.575-1.173-.499-3.143-.981-3.94a.115.115 0 0 0-.043-.047.109.109 0 0 0-.061-.018.109.109 0 0 0-.061.018.107.107 0 0 0-.042.047c-.391.766-1.212 2.775-.43 3.932.529.859 1.204.92 1.618.008Zm-46.682-8.24c-.077.046-5.688 3.273-5.902 3.602-.215.33-.207.575.084.598 2.3.146 3.181.337 3.273.445.146.513.307 2.598.613 3.012.033.051.08.092.135.117.055.025.116.034.176.025a.316.316 0 0 0 .257-.226c.322-1.211 1.333-4.982 1.533-5.603.199-.621.536-2.223-.169-1.97Zm-.107.72c-.077.506-.445 1.97-1.533 5.711a12.338 12.338 0 0 0-.491-2.3 11.896 11.896 0 0 0-2.82-.483c1.578-.981 3.234-1.924 4.82-2.928h.024Zm4.07 2.445a.277.277 0 0 0 .248-.243.278.278 0 0 0-.187-.293 2.718 2.718 0 0 0-.874-.107v-1.112a.199.199 0 1 0-.398 0c0 .399-.07.767-.1 1.142-.36 0-.72.069-1.096.123-.376.053-.215.483.061.46a8.32 8.32 0 0 1 .974 0c0 .337-.07.697-.084 1.042a.335.335 0 0 0 .333.287.335.335 0 0 0 .333-.287v-1.019c.263.019.527.022.79.007Zm18.466-4.193a1.018 1.018 0 0 0-.913-.689c-.705 0-1.364.866-1.923 1.671h-.054c-.544-.384-.713-.384-1.219.153-.674.728-.39.858.483 1.533-.59.82-2.077 2.936-2.3 3.319-.222.383-.873 1.464-.153 2.062a.82.82 0 0 0 1.004-.038 40.21 40.21 0 0 0 3.066-4.255c.767.46.828.552 1.426.062a.686.686 0 0 0 .307-.514c0-.375-.453-.636-.767-.889.269-.391.506-.766.72-1.157a1.54 1.54 0 0 0 .323-1.258Zm-2.423 1.265c.254-.343.525-.673.813-.989.376-.406.651-.505.904-.329.43.283.192.536-.69 2.138l-1.027-.82Zm-3.257 6.393c-.437-.1-.154-.766.053-1.165s1.763-2.652 2.361-3.564c.238.168.636.429.828.544-.521.889-2 3.066-2.3 3.403-.298.338-.574.866-.942.782Zm2.184-6.5.123.046c.123.046 2.621 2.085 2.621 2.131a1.357 1.357 0 0 1-.429.406c-.291-.23-2.1-1.456-2.775-1.985.14-.209.294-.409.46-.598Zm16.91 3.825s3.48 3.733 3.787 3.833c.513.138 3.288-3.067 3.656-3.496.36.307.544.36.95-.046.252-.263.461-.563.621-.889a.269.269 0 0 0-.046-.314c-3.901-3.956-4.599-4.691-4.76-4.753-.506-.214-.766.407-1.065.629-.414.398-.637.521.046 1.288-3.112 3.372-3.358 3.349-3.189 3.748Zm3.28-4.5c.205-.235.434-.449.683-.636 0 0 2.3 2.3 4.476 4.446-.139.26-.309.502-.505.721-.085-.085-4.53-4.4-4.684-4.531h.03Zm3.833 4.485c-3.342 3.541-3.004 3.403-3.357 3.066-.207-.177-2.775-2.821-3.166-3.273.276-.307 2.821-3.066 2.99-3.22-.039.031 2.981 2.951 3.503 3.427h.03Z"/><path fill="#000" d="M95.478 140.251c-.766.813-1.364 1.05-1.28 1.487a9.513 9.513 0 0 0 1.288 1.533c.03.024.066.038.104.038a.166.166 0 0 0 .166-.127.168.168 0 0 0-.01-.11s-.605-1.035-.866-1.38c.061-.076.713-.95.89-1.149a.207.207 0 0 0-.146-.352.208.208 0 0 0-.146.06Z"/><path fill="#000" d="m106.792 149.657-18.796-.123c0-1.311-.421-12.196-.452-13.123 0-.284-.452-.284-.437 0 0 .767.276 12.402.315 13.115h-20.46c0-1.241-.198-10.984-.214-11.651a.206.206 0 0 0-.353-.146.206.206 0 0 0-.06.146v11.651c-1.595 0-18.397 0-20.697.169a.215.215 0 0 0 0 .422c2.047.092 59.314.199 61.192-.238a.113.113 0 0 0 .059-.051.112.112 0 0 0 .013-.076.111.111 0 0 0-.038-.067.109.109 0 0 0-.072-.028ZM51.663 11.344c.176.306 1.97.406 2.13.345a.529.529 0 0 0 .261-.2c.609.508 1.246.979 1.91 1.41a.873.873 0 0 0 .681.185c.322-.092 6.37-3.695 6.462-3.756.399-.245.407-.49.353-.652-.115-.314-6.293-3.211-7.282-4.292a.268.268 0 0 0-.376.061c-.766.882-1.449 1.786-2.146 2.683a7.481 7.481 0 0 0-2.085.23 25.086 25.086 0 0 0 .092 3.986Zm5.266-2.3a1.004 1.004 0 0 1-.422.514c-.383.13-.766-.23-.896-.391-.422-.49.536-1.533 1.172-.713a.636.636 0 0 1 .146.636v-.046Zm-.552-1.418a1.257 1.257 0 0 0-1.341 1.802 1.533 1.533 0 0 0 1.533.72 1.271 1.271 0 0 0 .812-.95c.843 0 3.741 0 4.898-.054l-5.71 3.327c-.322-.138-2.208-1.533-2.438-1.717 0-.422 0-2.944-.053-3.35a69.753 69.753 0 0 0 1.931-2.407c.935.766 5.25 3.066 6.516 3.733h-5.12a1.226 1.226 0 0 0-1.028-1.058v-.046Zm-4.292.138 1.418-.054c0 .238.092 3.067.053 3.465-.484.032-.97.009-1.448-.069.046-.529.007-2.698-.023-3.296v-.046Zm-24 40.297a.528.528 0 0 0 .528 0c.606-.3 1.81-1.35 5.32-3.672a.766.766 0 0 0 .391-.552s.13-3.273-.054-3.38c-.59-.368-2.3-1.533-2.79-1.457-.061 0-6.53 4.032-6.546 4.224a20.56 20.56 0 0 0-.038 2.514 30.203 30.203 0 0 0 3.188 2.323Zm-2.722-4.308c.59.398 2.239 1.533 2.69 1.763v1.748c-2.866-1.917-2.682-1.595-2.659-2.162.008-.314-.015-1.05-.03-1.35Zm3.005 1.127a.284.284 0 0 1-.337 0c-.123-.077-1.84-1.304-2.3-1.633 6.025-3.833 5.81-3.879 6.132-3.764.154.062.874.521 1.848 1.165-1.15.981-5.228 4.155-5.343 4.231Zm5.366-1.02c-.161.153-4.308 2.905-5.228 3.503v-1.916c.544-.414 4.14-3.235 5.258-4.193.031 2.53.077 2.53.008 2.606h-.038Zm79.313 4.668a7.572 7.572 0 0 0 4.016-1.264 3.065 3.065 0 0 0 1.242-3.657 57.69 57.69 0 0 0 2.438-2.054c.651.038 1.41-1.12 1.816-1.748.169-.26.391-.529.276-.828a40.33 40.33 0 0 0-3.28-3.104.552.552 0 0 0-.614-.13 16.124 16.124 0 0 0-2.054 2.43.51.51 0 0 0 .038.337c0 .053-1.065 3.143-1.195 3.518a2.361 2.361 0 0 0-2.124 2.3c-.092 2.238 1.679 2.958-.628 3.786a.243.243 0 0 0-.082.227.241.241 0 0 0 .151.187Zm4.43-10.218a10.665 10.665 0 0 1 1.748-1.985c.414.33 2.805 2.537 3.066 2.897-.192.33-1.265 1.725-1.533 1.756-.023-.023-3.181-2.576-3.281-2.668Zm.552 4.799a2.645 2.645 0 0 0-1.671-1.104c.153-.514.713-2.392.905-3.15.582.498 2.023 1.709 2.905 2.407-.345.344-1.648 1.456-2.139 1.847Zm-3.756 4.814c.598-.545.452-1.257.176-1.94-.49-1.533-.344-2.521.476-3.066a1.882 1.882 0 0 1 2.117.066c.203.147.374.333.504.548 1.211 1.908-1.058 3.955-3.273 4.392ZM65.123 9.044c.314 0 2.154-.237 3.833-.414a.222.222 0 1 0 0-.444c-.629.061-3.58.237-3.902.306a.284.284 0 0 0 .07.552Zm6.01-.49c.207 0 4.277-.338 5.174-.292.299 0 .322-.437 0-.46a32.532 32.532 0 0 0-5.25.17.299.299 0 0 0 .076.582Zm7.481-.437 3.304-.092a.238.238 0 0 0 0-.468l-3.289-.092a.33.33 0 0 0-.015.652Zm5.933.107c1.41 0 6.5.238 7.742.452.307.062.414-.414.107-.467a52.607 52.607 0 0 0-7.856-.598.307.307 0 0 0 .007.613ZM94.765 9.55a14.64 14.64 0 0 1 5.496 3.028c.245.222.59-.138.353-.36a13.8 13.8 0 0 0-5.703-3.289.322.322 0 0 0-.146.621Zm6.799 10.226a.267.267 0 0 0-.203.291.27.27 0 0 0 .264.237c1.012 0 2.2-1.18 2.3-2.813.1-1.632-1.019-2.943-2.093-4.04a.245.245 0 0 0-.348-.003.247.247 0 0 0-.075.174c0 .065.025.128.071.175 1.211 1.257 1.801 2.407 1.809 3.526a2.475 2.475 0 0 1-1.725 2.453Zm-8.363 2.49c.767 0 5.818-1.157 6.654-1.356a.245.245 0 0 0-.115-.475c-1.142.26-5.174.966-6.592 1.211a.314.314 0 0 0 .053.62Zm-2.077-.505c-1.633.176-3.342.33-4.99.575a.314.314 0 0 0 .053.613c.468 0 4.209-.49 4.96-.583.39-.053.368-.659-.023-.605Zm-11.56 1.962c.445 0 3.511-.498 4.224-.598a.253.253 0 0 0-.061-.498c-.935.108-3.304.314-4.224.475a.315.315 0 0 0 .062.621Zm-12.793 1.104c1.64 0 3.32-.291 4.944-.445.338 0 .338-.559 0-.528-1.632.13-3.342.199-4.99.429-.33.038-.291.544.046.544Zm-8.079.705a.284.284 0 0 0 .061.56c.522 0 4.73-.621 5.366-.705a.276.276 0 0 0-.077-.545c-1.004.123-4.5.514-5.35.69Zm-11.674 2.193a83.136 83.136 0 0 1 9.007-1.38c.398 0 .383-.652 0-.613a48.583 48.583 0 0 0-9.076 1.41.3.3 0 0 0 .069.583ZM36.762 31.68a21.599 21.599 0 0 1 6.607-2.599c.406-.084.245-.697-.153-.613-2.4.477-4.7 1.363-6.8 2.622a.345.345 0 0 0 .346.59Zm-6.478 6.163a10.218 10.218 0 0 1 4.6-5.366c.283-.153.046-.575-.246-.43a9.965 9.965 0 0 0-4.951 5.581c-.146.43.452.598.597.215Zm1.672 9.167c-.23-.26-.598.1-.384.353.537.621 3.365 2.798 3.94 2.798a.276.276 0 0 0 .138-.514 28.289 28.289 0 0 1-3.694-2.636Zm10.685 4.914a16.902 16.902 0 0 1-5.02-1.295c-.354-.154-.645.367-.285.536 1.66.786 3.45 1.26 5.282 1.395.421.023.421-.59.023-.636Zm1.663 1.05c.89.13 4.515.72 5.435.767a.307.307 0 0 0 .077-.606c-.882-.184-4.477-.613-5.366-.767-.36-.007-.506.545-.146.606Zm11.813.935a13.03 13.03 0 0 1-4.431-.368.253.253 0 0 0-.13.483c1.491.435 3.05.593 4.599.468.345-.038.337-.606-.038-.583Zm50.943-3.763a23.026 23.026 0 0 0 4.699-1.02c.322-.107.184-.613-.146-.513-1.489.432-3.016.72-4.561.858-.444.046-.436.713.008.675Zm-7.113.582a.283.283 0 0 0 .053.552c.56 0 4.385-.675 5.036-.767.376-.068.23-.613-.13-.559-1.977.284-3.449.483-4.96.774Zm-1.986.238c-1.908.337-3.832.536-5.657.713-.398.046-.383.659 0 .628a55.869 55.869 0 0 0 5.757-.766.293.293 0 0 0 .238-.338.293.293 0 0 0-.338-.237ZM41.96 78.285c.337 0 .352-.475 0-.521a15.924 15.924 0 0 0-4.692 0 .3.3 0 0 0 .085.59c1.53-.16 3.072-.183 4.607-.069Zm68.06-.406a.293.293 0 0 0-.121.482.291.291 0 0 0 .175.085c.076 0 4.116-.115 5.089 0 .261.038.345-.36.085-.399a31.188 31.188 0 0 0-5.228-.168Zm-2.093.605a.23.23 0 0 0 .163-.392.23.23 0 0 0-.163-.068 12.545 12.545 0 0 0-3.372.238c-.33.069-.238.552.076.552a13.609 13.609 0 0 1 3.296-.33Zm17.447 9.513c-.062.306.383.498.513.2.659-1.488.989-3.764.161-5.367-.161-.306-.621-.046-.467.261.927 1.84.038 3.718-.207 4.906Zm-92.567 22.996a11.276 11.276 0 0 0-2.66 3.212.224.224 0 0 0 .077.306.224.224 0 0 0 .307-.076 11.62 11.62 0 0 1 2.652-3.028c.306-.223-.07-.621-.376-.414Zm5.12-4.5a30.59 30.59 0 0 0-2.989 2.553.247.247 0 0 0 .353.345c.43-.452 2.736-2.254 2.966-2.445.23-.192-.046-.552-.33-.453Zm2.3-1.395c.161 0-.314.154 2.545-1.732a.29.29 0 0 0 .089-.382.293.293 0 0 0-.372-.124 23.707 23.707 0 0 0-2.415 1.886.21.21 0 0 0-.033.223.212.212 0 0 0 .186.129Z"/><path fill="#000" d="M44.143 102.063c.2.084.07 0 2.484-1.533a30.406 30.406 0 0 0 .084 5.779 28.339 28.339 0 0 1-3.434-2.2c-.207-.161-.483.131-.268.307a25.39 25.39 0 0 0 3.833 2.713 30.063 30.063 0 0 0 10.877 19.432c-2.745.644-4.477 1.004-5.151 1.073-.292 0-.292.475 0 .475.666 0 4.913-.827 5.81-1.011 11.007 8.761 25.48 7.902 36.027-.169a50.29 50.29 0 0 0 6.423 1.257.29.29 0 0 0 .268-.255.295.295 0 0 0-.199-.312c-.95-.161-3.618-.667-5.917-1.142a29.373 29.373 0 0 0 10.769-18.397c.292-.184.575-.383.851-.59.276-.207 0-.69-.299-.499l-.437.269c.936-8.14-1.931-16.25-6.998-22.345 1.441-1.586 2.445-3.464 1.855-5.55a17.572 17.572 0 0 1 2.215-.52c.338-.046.215-.545-.107-.499-.776.1-1.545.253-2.3.46a7.517 7.517 0 0 0-6.96-4.706 11.129 11.129 0 0 0 2.86-9.804c-1.419-6.516-6.485-12.71-12.863-16.274a5.634 5.634 0 0 0-.138-2.59c-.169-.767-.674-1.028-1.265-1.411-.306-.2-.598-.383-.92-.567a8.017 8.017 0 0 0 1.273-4.416c1.725-.168 1.786-2.682-.107-3.066 1.924-9.03-14.78-10.562-13.798.292a1.832 1.832 0 0 0-1.31 1.502 1.488 1.488 0 0 0 1.762 1.732c-.07.993.137 1.986.598 2.867a2.483 2.483 0 0 0-1.732 1.457 5.572 5.572 0 0 0-.192 3.012 27.55 27.55 0 0 0-13.705 13.798c-2.17 4.944-1.112 8.562 2.72 12.333a7.818 7.818 0 0 0-5.25.161 7.895 7.895 0 0 0-4.43 4.944 9.534 9.534 0 0 0-2.231-.092.222.222 0 0 0 0 .437 6.648 6.648 0 0 1 2.093.245c-.53 3.228 2.207 5.956 4.867 7.873a26.828 26.828 0 0 0-5.09 13.245c-.9.549-1.767 1.147-2.598 1.794a.276.276 0 0 0 .03.491Zm33.889-56.532.322-.1c.176.184.651.598.942.844-2.276 1.195-5.097 1.096-8.04-.338.33-.299.866-.843 1.065-1.073.527.202 1.064.376 1.61.521a2.537 2.537 0 0 0 4.1.146ZM71.9 44.65c-.261.29-.844.912-1.035 1.073a20.7 20.7 0 0 1-.644-.368.184.184 0 0 0-.192.314c1.863 1.196 3.68 2.1 5.88 2.1a5.978 5.978 0 0 0 4.752-2 .171.171 0 0 0-.245-.238 6.75 6.75 0 0 1-.652.475c-.207-.176-.682-.56-.912-.766a5.866 5.866 0 0 0 2.077-1.342 5.802 5.802 0 0 1 2.016 1.426c.282.835.327 1.732.13 2.59-.705 2.178-6.408 4.332-12.264 1.273-2.062-1.034-2.928-1.885-2.56-4.46a2.1 2.1 0 0 1 1.64-1.925A5.543 5.543 0 0 0 71.9 44.65Zm6.239 6.553c1.25-.153 4.216-.72 5.266-2.66C89.5 51.916 95.853 59.46 96 66.335a9.69 9.69 0 0 1-3.64 7.91 9.1 9.1 0 0 0-3.067 1.165c.675-10.417.698-9.788.62-9.865-.076-.076-1.24-.084-3.142-.13.238-.3.874-1.142 1.02-1.31a.195.195 0 1 0-.284-.27 20.8 20.8 0 0 1-1.533 1.534h-.161c.195-2.325.247-4.66.153-6.99 0-.185-.322-.185-.306 0 .076 1.095-.437 6.009-.499 6.952-5.71-.115-15.23-.215-20.98-.269a22.127 22.127 0 0 1-.881-7.35c0-.261-.368-.261-.39 0a20.38 20.38 0 0 0 .605 7.358h-.161a32.521 32.521 0 0 1-2.185-2.415.192.192 0 0 0-.33.192c.085.16 1.005 1.533 1.61 2.254h-2.974c-.222 0-.153 0-.169.176-.076.866.2 5.65.414 9.053a11.86 11.86 0 0 0-1.44-.767c-3.948-3.879-6.049-6.899-3.902-12.08A26.729 26.729 0 0 1 67.89 47.37c.858 1.832 5.22 4.43 10.248 3.832ZM59.796 65.645c.874 0 27.764.237 29.642.406-.36 3.02-1.028 11.943-1.257 14.94H86.5c-.95.82-8.002 6.676-8.508 7.106-.176.137.146.252.905.935a4.317 4.317 0 0 1 1.732 2.974.107.107 0 0 0 .108.1c2.728.114 5.036 2.544 3.142 4.047-1.74 1.38-4.43 0-5.764-1.273 1.204-1.571 1.909-2.943.56-4.361-.161-.169-1.894-1.58-4.094-3.373-8.332-6.8-7.665-6.416-7.772-6.416-.43 0-4.983-.314-5.803-.36-.605-4.906-1.05-12.073-1.211-14.725Zm8.018 30.232c-1.127.084-3.02.23-3.833-.912-.529-.767.26-1.664 1.112-1.91 1.862.675 4.79 1.618 5.741 1.917a9.007 9.007 0 0 1-3.02.905Zm-3.986-.153c.766.766 2.07.858 3.112.843a9.658 9.658 0 0 0 4.837-1.326c1.678.49 3.342.912 5.074 1.28a.1.1 0 0 0 .115-.039c.291-.36.575-.766.836-1.111 1.763 1.64 4.706 2.721 6.515 1.326 1.334-1.035 1.127-2.806-.207-3.902 6.347-1.862 11.399-4.538 14.235-7.35a27.906 27.906 0 0 1 6.584 22.382 53.006 53.006 0 0 1-5.02 2.905.208.208 0 0 0-.03.349.21.21 0 0 0 .129.042c.1 0 3.166-1.479 4.783-2.438a30.054 30.054 0 0 1-10.501 17.631c-1.234-.261-2.3-.506-2.806-.66-.276-.092-.398.322-.13.422.468.169 1.341.406 2.384.675a28.548 28.548 0 0 1-34.44.122 20.149 20.149 0 0 0 2.706-.766c.337-.146.13-.644-.215-.568l-3.189.767a30.539 30.539 0 0 1-11-18.749l.154.069c.352.153.628-.33.299-.522l-.567-.329a27.634 27.634 0 0 1 4.767-19.892 57.96 57.96 0 0 0 12.188 5.918c-1.211.613-1.617 1.932-.613 2.92Zm18.29-56.885c-.162 1.533-.392 3.066-1.342 4.247-.521.651-1.633 1.617-2.545 1.64-.606 0-.82-.352-1.211-.766-.514-.598-.767-.913-1.043-.867-.613.077-.505 1.235-1.487 1.81-.299.168-1.341-.13-2.138-.514a5.112 5.112 0 0 1-2.814-5.113c0-.184-.268-.299-.375-.245a1.034 1.034 0 0 1-1.364-1.112c.29-1.533 2.008-1.15 2.46-.26a.115.115 0 0 0 .207-.092 3.979 3.979 0 0 1 1.319-4.6 6.538 6.538 0 0 0 7.458 0c1.48 1.15 1.533 3.542 1.426 4.377a.13.13 0 0 0 .046.108c.13.1.344-.161.452-.284a1.295 1.295 0 0 1 1.31-.575 1.035 1.035 0 0 1-.053 2.055c-.054-.046-.291.03-.307.191Z"/><path fill="#000" d="M71.133 122.912c0 .1.077.184 0 0a39.074 39.074 0 0 1-6.692 2.032c-.276.053-.184.46.092.429a21.695 21.695 0 0 0 6.83-1.939c.314-.177.107-.644-.23-.522Zm10.732-3.257c.184 0 6.392-2.438 6.998-2.829.299-.199.092-.713-.26-.583-.621.23-5.558 2.561-6.792 2.998a.214.214 0 0 0 .053.414Zm9.49-4.063c.198 0 5.365-2.353 5.848-2.721.237-.184.076-.621-.238-.498-.467.176-4.706 2.299-5.68 2.705a.27.27 0 0 0-.162.284.27.27 0 0 0 .231.23Zm15.039-15.407c.429.276 2.023 1.533 2.452 1.809a.314.314 0 0 0 .384-.491c-.407-.345-2.162-1.441-2.599-1.702a.225.225 0 1 0-.237.384Zm9.619 6.362c-.237-.192-.559.153-.314.352.544.453 2.706 2.369 3.304 2.775a.303.303 0 0 0 .378-.087.31.31 0 0 0-.01-.388c-.491-.506-2.721-2.146-3.358-2.652Zm4.945 4.4a.241.241 0 1 0-.338.345 21.05 21.05 0 0 1 2.584 3.181c.245.345.804 0 .567-.353a16.89 16.89 0 0 0-2.813-3.173Zm-10.732 17.676c-1.027 0-5.45-.291-6.538-.514a.194.194 0 0 0-.212.288c.027.044.07.076.12.088 2.189.412 4.405.668 6.63.767a.313.313 0 0 0 .314-.315.314.314 0 0 0-.314-.314Zm-27.396-5.511c-.268-.131-.49.268-.214.406a21.43 21.43 0 0 0 6.132 2.008c.414.077.575-.559.153-.628a22.773 22.773 0 0 1-6.07-1.786Zm-8.983-.529c.958-.207 2.912-.767 3.22-.813.29.115 2.16.82 3.157 1.058a.298.298 0 0 0 .33-.431.3.3 0 0 0-.169-.144c-.766-.276-1.533-.506-2.384-.766a11.795 11.795 0 0 0 1.794-.767.316.316 0 0 0-.058-.478.32.32 0 0 0-.172-.051c-.859.291-1.702.659-2.537.981a38.346 38.346 0 0 1-2.66-1.05c-.276-.122-.498.284-.215.414.698.33 1.395.644 2.085.928-.815.282-1.644.523-2.483.72a.224.224 0 0 0-.086.23.224.224 0 0 0 .178.169Zm-34.31-21.371c-.767-.598-3.641-3.066-4.277-3.74-.207-.223-.552.107-.346.329a23.312 23.312 0 0 0 4.255 3.901c.306.207.659-.26.368-.49Zm-9.107 36.272a70.27 70.27 0 0 0-2.575-12.487 4.95 4.95 0 0 0 3.012 2.093.216.216 0 0 0 .285-.281.219.219 0 0 0-.116-.118c-.981-.59-2.491-1.188-2.959-2.621a2.04 2.04 0 0 0-.766-2.744 13.037 13.037 0 0 1 1.717-4.6c.1-.191-.161-.391-.307-.222a8.922 8.922 0 0 0-1.924 4.76c-.2.015-.396.059-.583.131a51.015 51.015 0 0 0-8.539-14.434 1.213 1.213 0 0 0-1.732-1.61 1.325 1.325 0 0 0-.46 1.648 1.287 1.287 0 0 0 .812.614 1.28 1.28 0 0 0 1.005-.162 51.911 51.911 0 0 1 8.431 14.22c-1.249 1.103-.16 3.173 1.41 3.004a71.668 71.668 0 0 1 2.7 12.932 1.08 1.08 0 0 0-.022 1.898 1.08 1.08 0 1 0 .611-2.021Zm-13.169-31.09a.68.68 0 0 1-.659.857.685.685 0 0 1-.669-.548.68.68 0 0 1 .01-.309.685.685 0 0 1 .358-.788.685.685 0 0 1 .97.478.683.683 0 0 1-.01.31Zm13.798 32.125c0 .766-1.265.766-1.265 0 0-.767 1.234-.698 1.234.069l.03-.069ZM27.7 123.495c-.413 1.28-1.954.383-1.931-.659 0-.92 1.28-1.533 1.763-.652a1.53 1.53 0 0 1 .138 1.342l.03-.031Zm111.485-30.83a1.192 1.192 0 0 0-.677-1.056 1.194 1.194 0 0 0-1.247.129 34.305 34.305 0 0 1-10.87-10.073 1.848 1.848 0 0 0 .368-1.77 1.418 1.418 0 0 0-2.368-.568 45.806 45.806 0 0 1-7.75-16.718 1.016 1.016 0 0 0 .107-1.203.962.962 0 0 0-1.015-.567.962.962 0 0 0-.824.82.997.997 0 0 0 .27.993 1 1 0 0 0 1.002.233 44.792 44.792 0 0 0 7.865 16.864c-.081.13-.14.273-.177.422-.973-.468-5.81-2.001-6.316-1.863-.214.061-.115.322 0 .352 2.117.585 4.195 1.3 6.224 2.14a1.577 1.577 0 0 0 .816 1.108 1.575 1.575 0 0 0 1.377.04c3.495 4.968 7.075 8.318 10.938 10.242a1.219 1.219 0 0 0 .09 1.162 1.22 1.22 0 0 0 1.022.563 1.12 1.12 0 0 0 1.165-1.25Zm-1.702.383a.673.673 0 0 1 .498-1.05.714.714 0 0 1 .69.705.644.644 0 0 1-1.188.345Zm-11.743-11.544a1.112 1.112 0 0 1-1.288-.475 1.148 1.148 0 0 1 1.004-1.594c.981 0 1.15 1.71.284 2.07Zm-9.344-19.57a.505.505 0 0 1-.02.216.506.506 0 0 1-.49.361.511.511 0 0 1-.51-.576.505.505 0 0 1 .02-.215.506.506 0 0 1 .49-.361.513.513 0 0 1 .51.576Zm12.226 62.373a.247.247 0 0 0-.1-.299c-.383-.237-1.012.161-1.119.614.261.023 1.058-.008 1.219-.315Z"/><path fill="#000" d="M126.799 119.241a29.19 29.19 0 0 0-1.679-3.066.234.234 0 0 0-.146-.099.24.24 0 0 0-.28.169.237.237 0 0 0 .02.175c.517.908.965 1.854 1.341 2.828a4.683 4.683 0 0 0-2.989 7.773 25.744 25.744 0 0 1-8.302 1.732.224.224 0 0 0-.181.219.223.223 0 0 0 .181.218 22.177 22.177 0 0 0 8.854-1.64 4.661 4.661 0 0 0 6.036-.199 4.66 4.66 0 0 0 1.508-3.941 4.671 4.671 0 0 0-4.363-4.177v.008Zm-.974 7.082c-.076-.513-.107-1.034-.199-1.533h-1.127c-.069.453-.069.905-.138 1.357a.255.255 0 0 1-.03.092.26.26 0 0 1-.063.073.253.253 0 0 1-.183.05.246.246 0 0 1-.164-.094.232.232 0 0 1-.043-.086.24.24 0 0 1-.007-.096c0-.506.421-3.726.505-4.178.108-.636.445-.69.637-.667.398.046.506.46.59.767.222.82.766 3.319.904 4.147.062.414-.613.582-.682.168Zm3.442-.59c-1.234.859-2.79-.168-2.3-1.357.315-.766 1.533-1.287 2.047-.49a.907.907 0 0 1-.02.822.907.907 0 0 1-.678.466 2.976 2.976 0 0 1-.766 0c.097.107.211.198.337.268.767.322 1.28-.253 1.434.069a.159.159 0 0 1 .003.101.166.166 0 0 1-.057.083v.038Z"/><path fill="#000" d="M124.897 122.054c-.115.582-.245 1.625-.306 2.108h.912c-.084-.391-.307-1.487-.46-2.085-.023-.1-.13-.123-.146-.023Zm-66.412-11.475c-.46-.276-1.472-.307-1.533.299-.046.337 0 1.686 0 2.046a2.542 2.542 0 0 0 1.84-.866 1.001 1.001 0 0 0 .01-1.197.993.993 0 0 0-.317-.282Z"/><path fill="#000" d="M71.585 118.911a59.62 59.62 0 0 1-6.209-2.683 6.976 6.976 0 1 0-12.533-6.132 29.829 29.829 0 0 1-2.698-1.625c-.237-.153-.46.207-.237.368a34.193 34.193 0 0 0 2.706 1.794c-2.752 8.033 7.94 13.176 12.494 6.063 1.998 1.134 4.137 2 6.362 2.575a.191.191 0 0 0 .115-.36Zm-12.264-6.132c-.621.595-1.44.939-2.3.966v2.146a.33.33 0 0 1-.563.233.33.33 0 0 1-.096-.233c0-.368-.13-3.411-.138-3.656 0-.767-.291-2.078.766-2.499 1.947-.82 3.787 1.333 2.292 3.035l.039.008Zm3.526 2.299c-.108 1.227-1.756 1.756-2.737 1.028a.364.364 0 0 1-.081-.476.361.361 0 0 1 .464-.13 1.151 1.151 0 0 0 1.457-.146c.23-.237.138-.713-.238-.659a2.587 2.587 0 0 1-.897.092.943.943 0 0 1-.676-.595.953.953 0 0 1 .124-.892 1.418 1.418 0 0 1 1.14-.602 1.42 1.42 0 0 1 1.16.564c.23.299-.245.659-.475.368a.825.825 0 0 0-.89-.246c-.666.246-.245.905.2.767.1-.031 1.51-.253 1.41.897l.039.03Zm62.066-25.494a14.731 14.731 0 0 1-.851 1.648 6.974 6.974 0 0 0-10.737-.712 6.98 6.98 0 0 0-.816 8.522 6.988 6.988 0 0 0 2.155 2.155c-.766.682-2.353 1.893-2.675 2.146l-.567-.261c-.253-.115-.46.261-.2.383.119.056.234.117.345.184-.965.7-1.965 1.35-2.997 1.947a.238.238 0 0 0-.11.141.234.234 0 0 0 .34.266 44.135 44.135 0 0 0 3.312-2.024 13.55 13.55 0 0 1 1.947 1.648.316.316 0 0 0 .414-.023.314.314 0 0 0 .03-.414 14.873 14.873 0 0 0-1.924-1.533c.468-.337 1.962-1.449 2.714-2.108a6.98 6.98 0 0 0 8.167-1.478 6.985 6.985 0 0 0 .985-8.242c.395-.658.723-1.354.981-2.077.131-.33-.383-.49-.513-.168Zm-6.447 8.539a12.554 12.554 0 0 1-.36-1.58l-1.618.162c-.092.483-.184.966-.26 1.448-.077.483-.705.284-.644-.13.138-1.02.958-5.366 1.119-5.78.452-.889 1.135-.275 1.533.729.387 1.662.689 3.343.905 5.036a.345.345 0 0 1-.058.255.345.345 0 0 1-.477.081.342.342 0 0 1-.14-.221Zm1.311-4.975a.694.694 0 0 1 .711-.419.7.7 0 0 1 .278.09.637.637 0 0 1 .115.957.643.643 0 0 1-1.104-.628Zm1.334 4.898a.369.369 0 0 1-.721.1c-.061-.169-.176-2.53-.176-2.806a.299.299 0 1 1 .598 0c.023.437.306 2.576.299 2.706Z"/><path fill="#000" d="m116.642 95.946 1.334-.146a14.314 14.314 0 0 0-.675-2.744c-.176.767-.498 2.13-.659 2.89Zm-73.87 33.014c-.644.384-.115 1.426.766 1.035 0-.506-.046-.881-.061-1.058a.765.765 0 0 0-.705.023Z"/><path fill="#000" d="M50.176 127.987a30.381 30.381 0 0 1-3.832.352c-.345-6.032-8.976-6.04-9.329 0a16.113 16.113 0 0 1-3.902-.874.202.202 0 0 0-.154-.012.188.188 0 0 0-.069.039.195.195 0 0 0-.049.062.196.196 0 0 0-.012.154.202.202 0 0 0 .1.118 10.874 10.874 0 0 0 4.117 1.219 4.667 4.667 0 0 0 7.712 2.908 4.667 4.667 0 0 0 1.547-2.908 35.274 35.274 0 0 0 3.971-.637.222.222 0 0 0-.1-.421Zm-9.198 2.445a.374.374 0 0 1-.327.299.374.374 0 0 1-.156-.015c-.23-.069-.192-.2-.56-.721-.114.192-.23.391-.337.59a.314.314 0 0 1-.552-.299c.146-.276.292-.559.453-.835-.19-.197-.4-.372-.629-.521a.361.361 0 0 1 .376-.614c.958.591.368.66 1.096-.245.299-.368.866.084.62.46-.168.261-.383.529-.567.766.376.483.621.859.575 1.135h.008Zm3.265.092a1.535 1.535 0 0 1-1.83.168 1.528 1.528 0 0 1-.47-.452 1.378 1.378 0 0 1 .65-2.062c.26-.1.544-.118.815-.053-.066-.829-.09-1.66-.07-2.492a.358.358 0 0 1 .574-.285c.072.053.122.13.14.216.16 1.005.283 3.948.299 4.285.015.177.092.468-.115.675h.007ZM29.917 85.207c.138 0 .176 0 .184-.046 0-.13-.26-1.855-.291-2.062-2.177.299-1.901 2.307.107 2.108Z"/><path fill="#000" d="M35.336 77.94c-.909.124-1.81.301-2.698.529a6.202 6.202 0 1 0-4.79 10.632 14.333 14.333 0 0 0 4.36 6.24.193.193 0 0 0 .273-.005.192.192 0 0 0-.004-.272 20.651 20.651 0 0 1-3.97-5.948 6.224 6.224 0 0 0 4.599-10.141c.812-.215 1.533-.406 2.3-.552.367-.061.237-.544-.07-.483Zm-9.566 7.757v-5.703a.321.321 0 0 1 .636 0c0 1.135.13 4.937.153 5.703a.414.414 0 0 1-.79 0Zm4.691.077c-1.533.82-3.58-.644-2.614-2.353a2.253 2.253 0 0 1 1.893-.966 20.689 20.689 0 0 1-.23-2.522.353.353 0 0 1 .69-.084c.13.552.499 4.223.537 4.706.015.376.184.935-.276 1.18v.039Z"/></svg>