<svg xmlns="http://www.w3.org/2000/svg" width="154" height="154" fill="none"><path fill="#fff" d="M60.873 61.35c-.545 1.35-1.658 2.727-3.108 2.62a11.516 11.516 0 0 1-13.083 7.83l-1.051 2.253c.58.281.562 1.167.19 1.706a2.772 2.772 0 0 1-3 .928 5.4 5.4 0 0 1-2.65-1.955 10.867 10.867 0 0 1-1.36-2.312 2.82 2.82 0 0 1-.29-1.417c.09-.52.068-.377 1.857-4.341a7.457 7.457 0 0 1-1.657-4.14c1.855-.713 2.76-2.837 3.04-4.798.28-1.96.145-4.028.829-5.882 1.054-2.861 3.868-4.704 6.711-5.8 1.4-.543 2.882-.845 4.383-.895a7.035 7.035 0 0 1 4.25 1.26 13.208 13.208 0 0 1 3.794 4.846c.965 2.112 1.909 3.977 1.898 6.347a10.172 10.172 0 0 1-.753 3.75ZM75.579 52.618a8.254 8.254 0 0 1-.44-2.08 4.31 4.31 0 0 1 2.826-4.05c.47-.178.708.101.911.562a61.175 61.175 0 0 0 2.411 5.601c.261.392.473.816.63 1.26a1.484 1.484 0 0 1-.2 1.342 2.002 2.002 0 0 1-1.78.464c-2.701-.24-3.507-.61-4.358-3.099ZM100.086 58.691l1.069 3.165a3.86 3.86 0 0 0 4.391-.828 9.867 9.867 0 0 0 2.337-4.14.907.907 0 0 0-.182-1.003c-4.425-6.181-2.037-13.693-5.643-20.267a9.238 9.238 0 0 0-3.438-3.587 8.588 8.588 0 0 0-3.704-.828 13.737 13.737 0 0 0-9.404 3.45c-4.275 3.89-3.886 9.387-2.709 14.558 1.044 4.582 3.703 8.995 8.286 10.721 2.48.928 7.05.938 8.997-1.24Z"/><path fill="#fff" d="M80.86 52.782a2.991 2.991 0 1 0 5.983 0 2.991 2.991 0 0 0-5.983 0Z"/><path fill="#000" d="M87.152 46.881c-.406-1.533-1.234-1.32-1.804-1.24a1.847 1.847 0 0 1-2.006-.733.384.384 0 0 0-.655.396 2.566 2.566 0 0 0 2.468 1.127 3.283 3.283 0 0 0-.03 1.206c.346 1.846 2.553 1.238 2.027-.756ZM97.72 44.9c-.406-1.534-1.233-1.32-1.804-1.24a1.84 1.84 0 0 1-2.005-.734.385.385 0 0 0-.701.107.384.384 0 0 0 .044.29 2.568 2.568 0 0 0 2.468 1.126 3.283 3.283 0 0 0-.029 1.206c.348 1.847 2.555 1.238 2.028-.756Z"/><path fill="#fff" d="M93.11 119.365a3.941 3.941 0 0 1 .83 3.232 4.439 4.439 0 0 1-.713 1.457 22.336 22.336 0 0 1-2.229 3.045 74.432 74.432 0 0 0-2.627-9.528c0-.107-.082-.248 0-.34a.43.43 0 0 1 .398-.076 7.35 7.35 0 0 1 4.342 2.21ZM37.848 60.84a3.7 3.7 0 1 0 7.399.001 3.7 3.7 0 0 0-7.4 0Z"/><path fill="#000" d="M58.246 55.264a.384.384 0 0 0-.532.107 1.781 1.781 0 0 1-1.176.88c-.978.23-1.372-.103-1.856.414-.767.823-.669 2.983.576 2.824.991-.127 1.125-1.51.83-2.395a2.627 2.627 0 0 0 2.263-1.298.383.383 0 0 0-.105-.532ZM47.726 54.266a.383.383 0 0 0-.532.106 1.78 1.78 0 0 1-1.174.883c-.979.23-1.373-.104-1.857.413-.766.824-.668 2.983.578 2.824.99-.127 1.124-1.51.828-2.395a2.627 2.627 0 0 0 2.263-1.302.384.384 0 0 0-.106-.53ZM63.525 54.641a1.448 1.448 0 0 0-.818-.837c-.636-.224-1.339.138-2.085.52-.504.26.142.704-.297 3.918-.138 1.011-.338 2.9-1.33 3.774-.497.523-1.716 1.092-2.094 2.87-.108.503.514.43.702.438 1.453-.113 2.828-.216 4.077-1.38a8.601 8.601 0 0 0 1.845-9.303ZM84.038 54.478a.383.383 0 0 0-.418-.344l-.119.01-4.396-10.48.077-.061a.383.383 0 1 0-.46-.614 3.111 3.111 0 0 0-1.18 1.855 8.741 8.741 0 0 0 .573 6.298c1.106 2.3 3.067 4.003 5.582 3.754a.384.384 0 0 0 .341-.418ZM116.94 27.853c-1.342-7.263-8.948-11.235-14.913-9.155-2.193.767-3.894 3.24-4.54 5.41l1.706-.1c.31-.469.674-.9 1.085-1.284 1.321-1.209 3.546-.762 4.806.34a11.212 11.212 0 0 1 2.651 4.242c1.285 3.124 1.898 6.463 2.942 9.67 1.267 3.936 2.56 7.962 2.403 12.105a24.518 24.518 0 0 0 4.241-7.043c1.69-4.3.447-9.794-.381-14.185Z"/><path fill="#000" d="M112.695 49.066c.154-4.088-1.135-8.096-2.384-11.973-1.042-3.199-1.663-6.558-2.932-9.641a10.917 10.917 0 0 0-2.568-4.118c-1.117-.976-3.116-1.35-4.28-.322a7.333 7.333 0 0 0-1.02 1.21.383.383 0 0 1-.637-.428c.329-.49.711-.941 1.139-1.348 1.525-1.346 3.947-.874 5.322.33a11.663 11.663 0 0 1 2.76 4.404c1.284 3.12 1.907 6.49 2.944 9.677 1.159 3.599 2.355 7.31 2.431 11.143a24.093 24.093 0 0 0 3.493-6.103c1.627-4.14.422-9.584-.401-13.973-1.304-6.956-8.429-10.832-14.415-8.862-2.125.784-3.718 3.22-4.294 5.155a.383.383 0 1 1-.734-.219c.648-2.18 2.377-4.776 4.775-5.66 6.461-2.126 14.032 2.047 15.423 9.445.854 4.541 2.066 10.058.361 14.395a24.874 24.874 0 0 1-4.308 7.152.383.383 0 0 1-.675-.264Z"/><path fill="#fff" d="M96.374 48.85a3.789 3.789 0 1 0 7.578 0 3.789 3.789 0 0 0-7.578 0Z"/><path fill="#000" d="M87.51 51.842a.384.384 0 0 1-.343-.556 40.33 40.33 0 0 0 2.093-4.983c.05-.13.077-.268.076-.407a7.945 7.945 0 0 0-1.158-1.722.383.383 0 0 1 .582-.5c.402.47.764.973 1.081 1.504.128.197.215.419.256.65.01.252-.03.503-.12.737a41.032 41.032 0 0 1-2.127 5.061.384.384 0 0 1-.34.216ZM84.04 44.666a.382.382 0 0 1-.384-.432c.162-1.27 1.118-2.18 2.764-2.633a.384.384 0 0 1 .203.74c-1.342.37-2.085 1.04-2.207 1.99a.384.384 0 0 1-.377.335ZM96.25 53.925a14.095 14.095 0 0 0-1.138-3.915c.15.008.302.005.453-.01a.385.385 0 1 0-.07-.766 2.345 2.345 0 0 1-1.368-.291.384.384 0 1 0-.376.667c.18.101.367.184.563.247a6.037 6.037 0 0 1-4.586 3.89.383.383 0 1 0 .138.754 6.812 6.812 0 0 0 4.81-3.561c.46 1.162 1.481 4.577.316 4.984a4.49 4.49 0 0 1-3.053-.71.385.385 0 0 0-.6.241.383.383 0 0 0 .177.398 5.26 5.26 0 0 0 3.646.815c1.285-.427 1.158-1.921 1.087-2.743Z"/><path fill="#000" d="M108.09 28.715a15.932 15.932 0 0 0-6.868-5.046c-3.629-1.332-7.697-.785-11.384.372-6.628 2.083-10.581 7.458-11.07 14.35-.596 8.463 3.52 16.327 4.4 24.716 3.1-3.108 3-2.953 3.123-3.272.042-.21.025-.428-.05-.63-.877-3.463-2.46-6.634-3.313-10.116-.863-3.471-.78-7.11.24-10.54a5.56 5.56 0 0 0 5.228 5.905c.266 0 .166 0 .398-.133l2.784-1.367a3.825 3.825 0 0 1-1.375-.197 3.602 3.602 0 0 1-.904-.588 9.089 9.089 0 0 1-1.657-1.657c-.628-.824-.505-1.591-.588-2.594a6.477 6.477 0 0 0 3.471 3.132c1.494.583 3.087.865 4.69.83.881-.034 1.763.041 2.627.222 1.963.564 2.842 2.377 3.22 4.226.889 4.317 1.6 8.857.348 13.083 1.692-.871 3.701-2.627 4.35-4.433.191-.74.258-1.508.199-2.27 0-.69.39-2.73-.614-2.676-1.176.063-2.147-.942-2.726-1.964a7.792 7.792 0 0 1-.389-7.076 6.2 6.2 0 0 1 5.941-3.538 3.029 3.029 0 0 1 2.336 1.243c-.097-3.594-.022-7.004-2.417-9.982Z"/><path fill="#000" d="M108.391 28.477a16.926 16.926 0 0 0-7.043-5.17c-3.272-1.15-7.184-1.028-11.626.37-6.7 2.101-10.832 7.455-11.336 14.688-.607 8.526 3.523 16.428 4.4 24.783a.383.383 0 0 0 .653.23l2.742-2.752c.224-.19.392-.438.486-.717a1.496 1.496 0 0 0-.054-.798c-.24-.93-.522-1.848-.844-2.753 3.55 4.37 9.224 5.981 14.045 2.723l.439 1.074c-.066.315-.051.642.043.95.094.308.264.588.493.813 1.381 1.329 3.82.727 5.115-.655 1.073-1.17 2.745-3.757 2.515-5.335a.38.38 0 0 0-.109-.216c-2.16-3.152-1.929-2.54-1.966-3.01-.046-2.39-.13-4.921-.257-7.74a.388.388 0 0 0-.4-.366.385.385 0 0 0-.344.253.391.391 0 0 0-.022.148c.126 2.811.21 5.337.257 7.744a6.552 6.552 0 0 1-.177 2.11 8.646 8.646 0 0 1-3.386 3.776c.956-4.135.213-8.533-.575-12.373-.512-2.479-1.687-3.998-3.517-4.524a10.59 10.59 0 0 0-2.715-.23 12.051 12.051 0 0 1-4.547-.803 6.075 6.075 0 0 1-3.265-2.947.384.384 0 0 0-.725.205c.084 1.012-.034 1.862.668 2.797.634.816 1.979 2.156 2.92 2.43l-1.656.813c-.164.093-.105.085-.22.08a5.172 5.172 0 0 1-4.83-5.498.384.384 0 0 0-.75-.135c-2.684 8.909 1.506 14.721 3.08 20.898.043.115.061.238.053.36-.082.21.03.062-2.478 2.578-1.036-8.047-4.877-15.811-4.305-23.856.481-6.9 4.417-12.009 10.801-14.01 4.281-1.348 8.03-1.475 11.133-.384a16.147 16.147 0 0 1 6.712 4.934c1.928 2.365 2.77 5.848 2.209 9.64-.007.05-.005.1.007.15a.4.4 0 0 0 .176.235.383.383 0 0 0 .576-.273c.591-4.008-.315-7.712-2.376-10.237Zm-2.257 26.598c.074-.292.131-.587.17-.886.46.646.92 1.293 1.368 1.948.125 1.207-1.41 3.604-2.331 4.6-1.094 1.168-2.803 1.392-3.662.894-.013-.056-.187-.468-1.227-3.021.337-.268.658-.558.958-.866a15.084 15.084 0 0 1-.368 1.556.382.382 0 0 0 .542.45c1.835-.94 3.857-2.738 4.55-4.675ZM83.042 40.687a5.946 5.946 0 0 0 5.354 4.156.723.723 0 0 0 .567-.172l2.784-1.367a.383.383 0 0 0-.184-.728 3.412 3.412 0 0 1-1.201-.164 8.167 8.167 0 0 1-2.413-2.126 2.101 2.101 0 0 1-.4-.909 6.844 6.844 0 0 0 2.837 2.035c1.545.594 3.19.884 4.844.854a9.888 9.888 0 0 1 2.504.209c1.51.433 2.504 1.757 2.953 3.934.661 3.22 1.29 6.831.88 10.305-4.447 5.394-12.61 4.607-16.65-2.708-1.716-4.638-2.816-8.295-1.875-13.32Z"/><path fill="#fff" d="M104.006 38.044c-1.358-3.969-2.837-7.816-6.338-10.29a12.755 12.755 0 0 0-9.584-2.196 10.526 10.526 0 0 0-8.285 7.954c0 .216-.19 0-.282.207 1.081-11.372 17.538-14.721 23.572-5.087a23.263 23.263 0 0 1 3.165 8.161 3.148 3.148 0 0 0-2.248 1.25ZM103.296 43.633c.024.847.171 1.682.433 2.457a6.944 6.944 0 0 0 1.092 2.062c.459.585.997 1.044 1.582 1.35a3.662 3.662 0 0 0 1.83.43 3.656 3.656 0 0 0 1.794-.557c.563-.346 1.068-.841 1.484-1.457a6.938 6.938 0 0 0 .945-2.133 8.468 8.468 0 0 0 .26-2.481 8.455 8.455 0 0 0-.433-2.457 6.918 6.918 0 0 0-1.091-2.062c-.459-.585-.997-1.044-1.583-1.35a3.66 3.66 0 0 0-1.829-.429 3.663 3.663 0 0 0-1.795.556c-.563.346-1.067.841-1.484 1.457a6.94 6.94 0 0 0-.945 2.134 8.467 8.467 0 0 0-.26 2.48Z"/><path fill="#000" d="M106.575 36.444a23.574 23.574 0 0 0-3.164-8.016c-6.246-9.957-23.165-6.46-24.279 5.254-.06.631.997.475 1.045-.115a10.28 10.28 0 0 1 7.966-7.631c3.26-.538 6.601.227 9.302 2.13 3.092 2.198 4.556 5.439 5.873 9.166-3.802 1.877-4.623 9.235-.077 12.4 2.224 1.474 6.282 1.014 8.03-.825 3.576-3.633 2.139-12.74-4.696-12.364Zm-8.689-9.004a13.361 13.361 0 0 0-9.88-2.259 11.049 11.049 0 0 0-6.921 4.537 10.905 10.905 0 0 1 3.744-4.109c5.818-3.66 14.037-2.98 17.931 3.226a23.561 23.561 0 0 1 3.054 7.685 10.61 10.61 0 0 0-1.785.427c-1.321-3.727-2.892-7.197-6.143-9.507Zm10.39 22.024c-2.386.088-4.424-2.55-4.541-5.872-.188-5.297 4.317-8.204 7.198-4.565 2.902 3.668 1.207 10.3-2.655 10.438h-.002Z"/><path fill="#000" d="M111.904 43.419c-.082-2.307-1.534-4.67-3.739-4.596-2.205.074-3.485 2.53-3.404 4.849.1 2.814 1.933 4.658 3.739 4.595 2.196-.078 3.487-2.531 3.404-4.848ZM90.532 57.853c-.717.647-1.389 1.883-1.105 2.823-1.15.78-2.646.973-3.637-.063a.383.383 0 0 0-.554.53c1.246 1.304 3.123 1.174 4.606.178 1.216 1.065 3.111-.21 3.538-1.656a1.716 1.716 0 0 0-2.848-1.812ZM77.573 50.26a.383.383 0 1 1-.607-.47l.55-.709.606.47-.55.709Z"/><path fill="#000" d="M149.642 124.301h-16.739c2.808-6.554 4.923-11.091 5.719-15.682.664-3.819.415-7.929-1.499-11.31a21.847 21.847 0 0 0-5.46-6.106c-.242-.194-2.804-2.14-3.681-2.708.424-8.075.132-9.099.358-18.479.09-5.153-.395-11.447-5.005-14.428a11.392 11.392 0 0 0-5.827-1.39c-3.27-.099-6.638.967-9.533 1.354a.386.386 0 0 0-.328.28.384.384 0 0 0 .429.48 30.7 30.7 0 0 0 1.539-.25c.013 2.94-.54 5.856-1.631 8.587a52.355 52.355 0 0 0-3.902-2.624 5.174 5.174 0 0 0-1.241.033c-1.544 1.032-2.69 2.635-3.839 4.115a8.836 8.836 0 0 1 1.568-6.635.382.382 0 0 0-.511-.552.382.382 0 0 0-.11.102 9.63 9.63 0 0 0-1.687 3.967c-9.002 7.208-12.604 8.773-16.96 11.53 1.033-6.586 3.086-8.863 2.31-11.903a.383.383 0 0 0-.742.19c.395 1.549-.113 3.153-.614 4.676a42.703 42.703 0 0 0-2.191 12.128.383.383 0 1 0 .767.02c.039-1.374.148-2.745.326-4.108 4.73-3.067 7.751-4.132 16.976-11.468a9.637 9.637 0 0 0 .288 3.026.383.383 0 0 0 .668.148c.813-.997 1.57-2.08 2.439-3.044.399.574.754 1.178 1.062 1.805-2.669 13.201-2.894 13.692-2.82 14.61.16.777.134.757 3.007 5.673.049.084.108.174.199.191.091.017.241-.108.307-.224.829-1.425 1.657-2.85 2.444-4.294.495-.728.713-1.61.613-2.485a81.997 81.997 0 0 0-1.62-14.056c.23-.573.429-1.159.595-1.754 2.57 1.7 2.541 1.917 2.832 1.917a.385.385 0 0 0 .353-.23c1.273-3 1.912-6.23 1.877-9.489 2.335-.58 4.726-.9 7.131-.95a10.638 10.638 0 0 1 5.438 1.28c4.268 2.761 4.717 8.804 4.63 13.755a75.237 75.237 0 0 1-4.515 22.426c-1.626 4.254-4.207 8.078-6.756 11.578-3.497 4.901-7.296 9.661-11.068 14.338a14.239 14.239 0 0 1-2.134 2.201c-2.189 1.741-5.3 1.917-7.873 2.04a6.166 6.166 0 0 0-1.523-5.381 4.424 4.424 0 0 0-3.285-1.739c.35-1.599.88-3.154 1.58-4.634a15.473 15.473 0 0 1 3.68-4l6.536-5.635a47.562 47.562 0 0 0 8.216-8.593c4.609-6.5 5.459-17.405 6.727-25.015a.38.38 0 0 0-.313-.452.386.386 0 0 0-.393.182.388.388 0 0 0-.05.144c-.222 1.328-.42 2.66-.614 3.994l-3.337 1.066a.382.382 0 0 0-.253.467c.254.925.241 1.005.426 1.105a.383.383 0 0 0 .298.029l2.592-.817a90.887 90.887 0 0 1-1.678 9.04c-1.678 6.647-3.241 9.181-6.582 12.959-6.929-4.247-11.308-12.36-10.888-20.166a.383.383 0 1 0-.767-.04 20.202 20.202 0 0 0 0 2.079 53.3 53.3 0 0 1-9.504 6.832 37.104 37.104 0 0 1-10.136 4.11 1.358 1.358 0 0 1-1.57-.858 39.055 39.055 0 0 1-4.744-16.06 38.057 38.057 0 0 1-.055-8.89c.362-2.632 2.76-4.642 4.422-6.824.537 2.147 3.797 3.97 7.028 2.876.284-.1.54-.265.747-.485.276-.394.4-.874.35-1.353l-.163-.897s-.455-.633-.756-.554a5.377 5.377 0 0 1-4.13-.674 3.445 3.445 0 0 1-1.058-1.8c-.346-1.063-.772-3.052.23-4.381a3.841 3.841 0 0 1 1.342-.92.384.384 0 1 0-.291-.71 4.623 4.623 0 0 0-1.635 1.135 5.11 5.11 0 0 0-.601 4.297 10.302 10.302 0 0 0-1.02 2.057c-1.859 2.844-4.78 4.904-5.224 8.135a38.695 38.695 0 0 0 .049 9.059 39.685 39.685 0 0 0 4.812 16.31 2.087 2.087 0 0 0 2.429 1.282 37.598 37.598 0 0 0 10.342-4.187 54.792 54.792 0 0 0 9.201-6.547 24.076 24.076 0 0 0 11.07 17.752c-2.324 2.54-2.893 2.899-11.54 10.355a16.131 16.131 0 0 0-3.863 4.217 24.004 24.004 0 0 0-1.76 5.19.473.473 0 0 0 .43.585 3.678 3.678 0 0 1 3.115 1.47 5.083 5.083 0 0 1 1.346 4.431 4.873 4.873 0 0 0-4.573-5.142.394.394 0 0 0-.148.02.385.385 0 0 0 .103.747 4.1 4.1 0 0 1 3.852 4.332c-.11 1.889-.852 1.734-1.763 3.494a.382.382 0 0 0 .165.516.381.381 0 0 0 .516-.165c.16-.308.343-.604.548-.884.1.037-2.495.024 56.471.024a.385.385 0 0 0 .384-.384.384.384 0 0 0-.384-.383l.005-.002ZM74.731 54.556a5.46 5.46 0 0 1 .632-1.51c.228.754.663 1.43 1.256 1.949a6.37 6.37 0 0 0 3.309 1.023c.493.007.983-.07 1.45-.226v.771c.036.283-.023.57-.167.815a1.102 1.102 0 0 1-.41.252c-3.225 1.094-6.417-1.144-6.07-3.074Zm49.049 38.138a79.652 79.652 0 0 0 3.709-14.192c-.011 5.516-.245 9.183-.317 10.779a11.046 11.046 0 0 1-3.405 3.446l.013-.033Zm-5.845 25.197.373 6.41h-7.944c.079-.05 7.49-6.342 7.57-6.41h.001Z"/><path fill="#000" d="M117.898 124.301h.767a65.698 65.698 0 0 0-1.041-11.491.382.382 0 0 0-.447-.317.383.383 0 0 0-.308.453 64.917 64.917 0 0 1 1.029 11.355ZM62.557 93.774c-1.338-4.662-2.002-10.275-5.425-13.895-3.31-3.501-7.82-5.664-12.115-7.667l.052-.12a10.255 10.255 0 0 0 9.6-2.792 14.407 14.407 0 0 0 3.82-7.072 19.552 19.552 0 0 0 0-8.894.362.362 0 0 0-.45-.268c-.307.073-.372.425-.273.518 1.22 5.214.094 10.6-2.76 14.214a9.685 9.685 0 0 1-15.1.332c-1.874-1.96-2.975-4.335-2.906-8.526a.386.386 0 0 0-.772 0c0 3.067.537 5.357 1.733 7.273l-.69 1.585a3.246 3.246 0 0 0-2.837 1.642c-1.4.261-10.859 2.033-17.81 8.227-.476.423-11.34 11.035-6.24 45.906a.383.383 0 1 0 .758-.112c-4.152-28.395 2.564-40.659 5.091-44.13.154-.077.93-1.408 3.463-.425a10.648 10.648 0 0 1 4.95 4.19 15.478 15.478 0 0 1 2.182 6.089 99.86 99.86 0 0 0-3.321 16.868 110.634 110.634 0 0 0-.956 17.36.383.383 0 0 0 .383.374h.01a.386.386 0 0 0 .268-.119.377.377 0 0 0 .105-.273 110.02 110.02 0 0 1 .951-17.252 99.245 99.245 0 0 1 3.267-16.643c.329-.45-.588-4.155-2.238-6.81a11.424 11.424 0 0 0-5.314-4.494 5.422 5.422 0 0 0-2.326-.39c6.364-5.16 14.338-7.084 16.512-7.532a6.229 6.229 0 0 0 .254 3.192 30.701 30.701 0 0 0 2.635 6.26.383.383 0 0 0 .585.103 82.086 82.086 0 0 1 2.01-1.676c.195.54.43 1.063.703 1.566 0 .01 0 .02-.005.032a88.368 88.368 0 0 0-.588 13.08c-.124.996.931.798 1.84.76 1.738-.072 5.04-.173 4.99-.175a.384.384 0 0 0 .383-.504 156.504 156.504 0 0 1-3.844-13.112l.643-1.424a37.812 37.812 0 0 1 2.537 2.57.383.383 0 0 0 .666-.216c.3-2.822-.259-5.67-1.603-8.169 3.496 1.64 7.032 3.383 9.926 5.95a13.778 13.778 0 0 1-2.147 8.417.384.384 0 0 0-.055.277c.428 2.323.873 4.48 1.362 6.594a.384.384 0 0 0 .748-.173c-.49-2.128-.933-4.266-1.329-6.414a14.55 14.55 0 0 0 2.218-7.955c3.775 3.721 4.248 8.936 5.721 14.064a.384.384 0 1 0 .737-.211h.001ZM38.472 67.623a11.396 11.396 0 0 0 5.85 4.26l-1.134 2.596a.384.384 0 0 0 .543.486c.146 1.89-2.212 1.811-3.557.795a9.513 9.513 0 0 1-1.772-1.782 6.05 6.05 0 0 1-1.45-2.846l1.52-3.51Zm-.972 11.98a34.32 34.32 0 0 1-2.35-5.711c-.893-2.76.167-4.478 1.786-4.653l-.376.869a.384.384 0 0 0-.361.331c-.206 1.545.77 2.944 1.598 4.009a7.773 7.773 0 0 0 2.977 2.506 86.878 86.878 0 0 0-3.274 2.649Zm8.784.838a37.414 37.414 0 0 0-3.466-3.255c1.388-.273 2.132-1.533 1.446-3.245l.28-.64a13.341 13.341 0 0 1 1.74 7.14Z"/><path fill="#000" d="M54.45 62.553a.384.384 0 0 1-.53-.118 41.379 41.379 0 0 1-2.642-4.83 1.944 1.944 0 0 1-.183-.632c.005-.27.075-.535.202-.774.256-.548.557-1.074.899-1.573a.383.383 0 1 1 .632.432 6.885 6.885 0 0 0-.97 1.895c.025.111.062.22.112.323a40.716 40.716 0 0 0 2.595 4.747.384.384 0 0 1-.115.53Z"/><path fill="#000" d="M65.737 51.895a8.928 8.928 0 0 0-.536-2.823 9.744 9.744 0 0 0-2.238-3.554 4.692 4.692 0 0 0 2.614-1.24.383.383 0 0 0-.339-.654 2.69 2.69 0 0 1-1.917-.343c-1.428-.69-2.401-1.777-3.71-2.748l-2.469-1.803a22.158 22.158 0 0 0-7.228-3.917 14.458 14.458 0 0 0-13.16 3.067c-3.25 2.853-5.137 6.935-5.464 11.793-.328 3.456 1.78 5.295 4.346 7.694 1.694 1.584 1.626 2.147 3.245 2.914a.382.382 0 0 0 .537-.266c.215-.992 1.145-4.294 4.035-5.15 2.416-.72 8.138-1.964 9.874-3.634a5.53 5.53 0 0 1-1.124 4.59.383.383 0 0 0 .348.614c.635-.073 1.733-.207 1.93-.279a6.285 6.285 0 0 0 1.778-.824 10.393 10.393 0 0 0 2.492-2.489 8.294 8.294 0 0 1 1.22 5.868.383.383 0 0 0 .658.327 9.612 9.612 0 0 0 2.607-7.06 7.488 7.488 0 0 1 1.406 2.485.384.384 0 0 0 .728-.24c-.097-.297.376-1.753.367-2.328Z"/><path fill="#fff" d="M28.284 56.658c.05.846.224 1.677.51 2.445.285.769.678 1.459 1.156 2.03.478.572 1.03 1.015 1.626 1.302a3.663 3.663 0 0 0 1.844.372 3.664 3.664 0 0 0 1.778-.614c.552-.364 1.041-.876 1.438-1.506.398-.63.696-1.367.877-2.166.181-.8.242-1.646.18-2.492a8.479 8.479 0 0 0-.51-2.445 6.947 6.947 0 0 0-1.157-2.03c-.477-.572-1.03-1.014-1.625-1.302a3.663 3.663 0 0 0-1.845-.372 3.664 3.664 0 0 0-1.778.614c-.552.364-1.04.876-1.438 1.507a6.944 6.944 0 0 0-.876 2.165 8.479 8.479 0 0 0-.18 2.492ZM58.072 40.132c.673.36.713.384 1.226.69a10.849 10.849 0 0 0-4.864-4.92c-6.395-3.202-14.717-1.509-18.028 5.244a23.435 23.435 0 0 0-2.32 8.434 3.284 3.284 0 0 1 2.376 1.02c.953-4.085 2.025-8.06 5.261-10.88 4.752-4.142 11.958-4.545 16.349.412Z"/><path fill="#000" d="M59.642 40.65a11.379 11.379 0 0 0-5.038-5.096c-6.67-3.297-15.155-1.497-18.543 5.42a23.676 23.676 0 0 0-2.332 8.271 5.539 5.539 0 0 0-4.822 2.803 8.539 8.539 0 0 0 .766 9.289c2.176 2.58 6.724 2.331 8.759.668a7.28 7.28 0 0 0 2.476-5.684c-.047-2.603-1.204-5.663-3.833-6.631.935-3.838 2.07-7.208 4.902-9.683a12.305 12.305 0 0 1 9.025-3.073 10.263 10.263 0 0 1 6.89 3.536c.69.37.704.374 1.21.678a.384.384 0 0 0 .54-.497ZM36.293 60.44c-1.533 2.405-4.198 2.581-6.035.403a7.748 7.748 0 0 1-.575-8.596 3.751 3.751 0 0 1 3.113-1.927c3.72 0 5.974 6.234 3.497 10.12Zm5.179-21.01c-2.99 2.618-4.171 6.097-5.137 10.053a16.52 16.52 0 0 0-1.832-.273 22.903 22.903 0 0 1 2.246-7.898c3.22-6.57 11.263-8.161 17.512-5.071 1.586.807 2.943 2 3.947 3.47-4.563-4.95-11.932-4.454-16.736-.282v.002Z"/><path fill="#000" d="M32.406 51.762c-3.163.211-4.392 5.367-2.024 8.175a3.015 3.015 0 0 0 5.118-.342c1.974-3.095.08-8.044-3.094-7.833ZM48.45 67.225a2.024 2.024 0 0 1-.974-.23c-.264-.201-.48-.459-.632-.754a22.142 22.142 0 0 1-1.505-2.986.384.384 0 1 1 .709-.293 21.754 21.754 0 0 0 1.463 2.906c.094.187.227.352.39.485a1.458 1.458 0 0 0 1.392-.175c.605-.327 1.18-.706 1.719-1.133a.384.384 0 1 1 .478.6c-.56.445-1.159.84-1.789 1.18a2.117 2.117 0 0 1-1.251.4ZM56.564 66.763a.383.383 0 0 0-.613.46 3.881 3.881 0 0 1 .792 2.907 1.52 1.52 0 0 1-2 .801c.456-1.416-1.35-2.615-2.848-2.498a1.803 1.803 0 0 0-1.595 1.504c-.161 1.664 2.598 3.044 4.024 1.656 1.182.488 2.765.096 3.154-1.25.364-1.25-.348-2.826-.914-3.58ZM47.276 89.49a.384.384 0 0 1-.384-.383v-.712a.383.383 0 0 1 .369-.384l4.294-.165a.383.383 0 0 1 .398.383v.72a.383.383 0 0 1-.37.384l-4.307.157ZM31.525 124.927H3.96a.383.383 0 1 1 0-.766h27.565a.383.383 0 1 1 0 .766Z"/><path fill="#fff" d="M54.998 63.25a3.055 3.055 0 1 0 6.11 0 3.055 3.055 0 0 0-6.11 0ZM85.273 134.205l10.2.124 7.878-7.515H85.273v7.391Z"/><path fill="#fff" d="M89.697 134.205H36.77a3.223 3.223 0 0 1-3.107-2.37L24.65 98.792a2.607 2.607 0 0 1 2.485-3.314l52.48-.753a3.314 3.314 0 0 1 3.314 2.485l8.748 34.476a1.994 1.994 0 0 1-1.979 2.519Z"/><path fill="#000" d="M103.352 126.431H92.754l-7.848-30.922a3.672 3.672 0 0 0-3.691-2.773l-52.474.754c-1.67 0-2.785 1.303-3.68 2.345a2.95 2.95 0 0 0-.782 3.061l9.015 33.042a3.596 3.596 0 0 0 1.187 1.829v1.699a1.278 1.278 0 0 0 1.279 1.278c62.766 0 58.587.055 58.76-.085l8.971-7.243a1.3 1.3 0 0 0 .48-1.017v-1.26a.78.78 0 0 0-.619-.708Zm-69.32 5.303-9.015-33.047a2.17 2.17 0 0 1 2.04-2.778l52.486-.753a2.914 2.914 0 0 1 2.93 2.197l8.75 34.473a1.595 1.595 0 0 1-.427 1.522h-55.59a2.837 2.837 0 0 1-1.174-1.614Zm60.117 1.615h-1.974c1.218-1.127 1.745-2.32 1.481-3.365l-.707-2.787h9.265l-8.065 6.152Z"/></svg>