<svg width="512" height="512" viewBox="0 0 512 512" fill="none" xmlns="http://www.w3.org/2000/svg">
<g clip-path="url(#clip0_1_2)">
<rect width="512" height="512" rx="8" fill="#0CA190"/>
<path d="M415.991 202.344H340.088C338.702 192.524 335.871 183.801 331.597 176.176C327.322 168.436 321.834 161.85 315.134 156.42C308.433 150.991 300.692 146.831 291.912 143.943C283.247 141.055 273.831 139.611 263.665 139.611C245.295 139.611 229.295 144.174 215.662 153.301C202.029 162.312 191.458 175.483 183.949 192.812C176.439 210.027 172.685 230.937 172.685 255.545C172.685 280.847 176.439 302.104 183.949 319.318C191.574 336.532 202.203 349.529 215.835 358.31C229.468 367.09 245.238 371.48 263.145 371.48C273.196 371.48 282.496 370.152 291.045 367.494C299.71 364.837 307.393 360.967 314.094 355.884C320.795 350.685 326.34 344.388 330.73 336.994C335.236 329.6 338.355 321.167 340.088 311.693L415.991 312.04C414.027 328.33 409.117 344.042 401.261 359.176C393.521 374.195 383.065 387.654 369.895 399.554C356.84 411.338 341.243 420.696 323.105 427.628C305.082 434.444 284.691 437.852 261.932 437.852C230.277 437.852 201.972 430.689 177.017 416.364C152.178 402.038 132.538 381.3 118.097 354.151C103.771 327.001 96.608 294.133 96.608 255.545C96.608 216.843 103.886 183.917 118.443 156.767C133 129.617 152.756 108.937 177.71 94.7273C202.665 80.4015 230.739 73.2386 261.932 73.2386C282.496 73.2386 301.559 76.1269 319.119 81.9034C336.795 87.6799 352.45 96.1136 366.082 107.205C379.715 118.18 390.806 131.639 399.355 147.582C408.02 163.526 413.565 181.779 415.991 202.344Z" fill="white"/>
</g>
<defs>
<clipPath id="clip0_1_2">
<rect width="512" height="512" rx="8" fill="white"/>
</clipPath>
</defs>
</svg>
